<?xml version="1.0" standalone="no"?>
<!DOCTYPE svg PUBLIC "-//W3C//DTD SVG 20010904//EN"
 "http://www.w3.org/TR/2001/REC-SVG-20010904/DTD/svg10.dtd">
<svg version="1.0" xmlns="http://www.w3.org/2000/svg"
 width="183.000000pt" height="183.000000pt" viewBox="0 0 183.000000 183.000000"
 preserveAspectRatio="xMidYMid meet">
<metadata>
Created by potrace 1.14, written by Peter Selinger 2001-2017
</metadata>
<g transform="translate(0.000000,183.000000) scale(0.100000,-0.100000)"
fill="#000000" stroke="none">
<path d="M1605 1551 c-81 -44 -154 -87 -190 -111 -22 -15 -71 -44 -110 -65
-38 -20 -131 -72 -205 -115 -74 -43 -152 -87 -172 -98 l-36 -21 -64 38 c-421
249 -427 253 -457 246 -44 -9 -54 -29 -55 -105 l-1 -69 -42 25 c-53 31 -87 31
-118 -1 l-25 -24 -1 -328 c-2 -540 -1 -675 4 -679 2 -3 44 19 93 47 49 29 136
79 194 113 58 33 178 102 268 154 90 52 172 96 182 99 13 3 70 -25 162 -79
288 -171 336 -198 357 -198 12 0 33 11 46 25 21 21 25 33 25 89 l0 65 46 -24
c26 -14 58 -25 70 -25 36 0 64 34 65 78 3 124 1 973 -2 976 -2 2 -17 -4 -34
-13z"/>
</g>
</svg>
