<svg width="249" height="182" viewBox="0 0 249 182" fill="none" xmlns="http://www.w3.org/2000/svg">
<g clip-path="url(#clip0)">
<path d="M131.324 180.163H129.251L129.942 139.615H130.633L131.324 180.163Z" fill="#E6E6E6"/>
<path d="M132.96 114.049L136.302 108.885C135.311 106.148 134.166 103.468 132.873 100.86L130.713 102.605L132.423 99.961C130.793 96.7514 129.51 94.7292 129.51 94.7292C129.51 94.7292 122.808 105.29 120.569 116.471L124.857 123.098L120.11 119.264C119.941 120.566 119.854 121.878 119.85 123.192C119.85 136.434 124.175 147.169 129.51 147.169C134.845 147.169 139.17 136.434 139.17 123.192C139.17 119.086 138.241 114.791 136.96 110.818L132.96 114.049Z" fill="#E6E6E6"/>
<path d="M78.8092 180.163H76.7359L77.4271 139.615H78.118L78.8092 180.163Z" fill="#E6E6E6"/>
<path d="M81.2223 114.049L84.5638 108.885C83.5729 106.148 82.4283 103.468 81.1356 100.86L78.9749 102.605L80.6858 99.961C79.0553 96.7514 77.7723 94.7292 77.7723 94.7292C77.7723 94.7292 71.0708 105.29 68.8318 116.471L73.1198 123.098L68.3728 119.264C68.2038 120.566 68.1168 121.878 68.1124 123.192C68.1124 136.434 72.4373 147.169 77.7723 147.169C83.1074 147.169 87.4323 136.434 87.4323 123.192C87.4323 119.086 86.5035 114.791 85.2224 110.818L81.2223 114.049Z" fill="#E6E6E6"/>
<path d="M104.578 180.038H100.431L101.813 96.6367H103.196L104.578 180.038Z" fill="#E6E6E6"/>
<path d="M108.183 44.053L115.073 33.405C113.03 27.7608 110.67 22.2364 108.004 16.858L103.549 20.4564L107.077 15.0046C103.715 8.38684 101.07 4.21729 101.07 4.21729C101.07 4.21729 87.2516 25.9922 82.6351 49.0468L91.4765 62.7108L81.6887 54.8052C81.3401 57.4908 81.1608 60.1957 81.1517 62.9038C81.1517 90.2082 90.0692 112.343 101.07 112.343C112.07 112.343 120.987 90.2082 120.987 62.9038C120.987 54.4392 119.073 45.5833 116.431 37.3914L108.183 44.053Z" fill="#E6E6E6"/>
<path d="M84.4445 38.2448C95.0055 38.2448 103.567 29.6834 103.567 19.1224C103.567 8.56139 95.0055 0 84.4445 0C73.8835 0 65.3221 8.56139 65.3221 19.1224C65.3221 29.6834 73.8835 38.2448 84.4445 38.2448Z" fill="#E6E6E6"/>
<path d="M248.886 179.923H0.885712V180.549H248.886V179.923Z" fill="#3F3D56"/>
<path d="M224.095 81.6675C224.198 81.6675 224.301 81.6472 224.396 81.6076C224.492 81.568 224.579 81.5099 224.652 81.4367C224.725 81.3636 224.783 81.2767 224.823 81.1811C224.862 81.0855 224.883 80.983 224.883 80.8796V72.4743C224.884 72.3479 224.855 72.2231 224.797 72.1106C224.739 71.9981 224.655 71.9013 224.552 71.8286C224.448 71.7558 224.329 71.7092 224.204 71.6928C224.078 71.6765 223.951 71.6908 223.832 71.7345V62.2304C223.832 61.8855 223.764 61.5439 223.632 61.2252C223.5 60.9066 223.307 60.617 223.063 60.3731C222.819 60.1292 222.529 59.9357 222.211 59.8037C221.892 59.6717 221.551 59.6038 221.206 59.6038H135.314C134.969 59.6038 134.628 59.6717 134.309 59.8037C133.991 59.9357 133.701 60.1292 133.457 60.3731C133.213 60.617 133.02 60.9066 132.888 61.2252C132.756 61.5439 132.688 61.8855 132.688 62.2304V177.54C132.688 178.237 132.964 178.905 133.457 179.397C133.95 179.89 134.618 180.167 135.314 180.167H221.206C221.902 180.167 222.57 179.89 223.063 179.397C223.555 178.905 223.832 178.237 223.832 177.54V93.4392C223.951 93.4829 224.078 93.4973 224.204 93.4809C224.329 93.4645 224.448 93.4179 224.552 93.3452C224.655 93.2724 224.739 93.1756 224.797 93.0631C224.855 92.9506 224.884 92.8258 224.883 92.6994V84.2942C224.884 84.1678 224.855 84.043 224.797 83.9305C224.739 83.818 224.655 83.7212 224.552 83.6484C224.448 83.5757 224.329 83.5291 224.204 83.5127C224.078 83.4963 223.951 83.5107 223.832 83.5544V81.6193C223.916 81.6503 224.005 81.6667 224.095 81.6675Z" fill="#3F3D56"/>
<path d="M215.952 64.7256C216.297 64.7256 216.639 64.7935 216.957 64.9255C217.276 65.0575 217.565 65.251 217.809 65.4949C218.053 65.7388 218.247 66.0284 218.379 66.3471C218.511 66.6657 218.579 67.0073 218.579 67.3522V172.418C218.579 173.115 218.302 173.783 217.809 174.275C217.317 174.768 216.649 175.045 215.952 175.045H140.567C139.871 175.045 139.203 174.768 138.71 174.275C138.218 173.783 137.941 173.115 137.941 172.418V67.3522C137.941 66.6556 138.218 65.9875 138.71 65.4949C139.203 65.0023 139.871 64.7256 140.567 64.7256H215.952Z" fill="white"/>
<path d="M178.26 63.281C178.84 63.281 179.311 62.8106 179.311 62.2303C179.311 61.6501 178.84 61.1797 178.26 61.1797C177.68 61.1797 177.209 61.6501 177.209 62.2303C177.209 62.8106 177.68 63.281 178.26 63.281Z" fill="white"/>
<path d="M209.454 78.5083H144.893V84.9242H209.454V78.5083Z" fill="#6C63FF"/>
<path d="M209.454 93.6211H144.893V96.0511H209.454V93.6211Z" fill="#E6E6E6"/>
<path d="M209.454 101.038H144.893V103.468H209.454V101.038Z" fill="#E6E6E6"/>
<path d="M178.252 108.549H144.893V110.979H178.252V108.549Z" fill="#E6E6E6"/>
<path d="M209.454 116.194H144.893V118.624H209.454V116.194Z" fill="#E6E6E6"/>
<path d="M209.454 123.838H144.893V126.268H209.454V123.838Z" fill="#E6E6E6"/>
<path d="M177.134 131.483H144.893V133.913H177.134V131.483Z" fill="#E6E6E6"/>
<path d="M209.454 139.127H144.893V141.557H209.454V139.127Z" fill="#E6E6E6"/>
<path d="M209.454 146.771H144.893V149.202H209.454V146.771Z" fill="#E6E6E6"/>
<path d="M209.531 156.148H189.143V162.85H209.531V156.148Z" fill="#6C63FF"/>
<path d="M75.7174 102.239H75.2581V86.9416C75.2581 84.5833 74.3213 82.3215 72.6537 80.654C70.9861 78.9864 68.7244 78.0496 66.3661 78.0496H33.7806C32.6128 78.0496 31.4566 78.2796 30.3777 78.7264C29.2989 79.1733 28.3187 79.8283 27.493 80.654C26.6673 81.4797 26.0123 82.4599 25.5654 83.5387C25.1186 84.6176 24.8886 85.7739 24.8886 86.9416V171.275C24.8886 172.442 25.1186 173.599 25.5654 174.677C26.0123 175.756 26.6673 176.736 27.493 177.562C28.3187 178.388 29.2989 179.043 30.3777 179.49C31.4566 179.937 32.6128 180.167 33.7806 180.167H66.3661C68.7244 180.167 70.9861 179.23 72.6537 177.562C74.3213 175.895 75.2581 173.633 75.2581 171.275V113.109H75.7174V102.239Z" fill="#3F3D56"/>
<path d="M73.2678 86.3316V171.076C73.2678 172.837 72.5682 174.526 71.3228 175.772C70.0774 177.017 68.3883 177.717 66.6271 177.717H33.9789C32.2177 177.717 30.5286 177.017 29.2832 175.772C28.0378 174.526 27.3382 172.837 27.3382 171.076V86.3316C27.3382 84.7441 27.9688 83.2216 29.0913 82.0991C30.2139 80.9766 31.7363 80.3459 33.3238 80.3459H37.9332C37.7592 80.7813 37.6816 81.2493 37.706 81.7175C37.7304 82.1857 37.8561 82.6431 38.0745 83.0581C38.3403 83.5162 38.7167 83.9005 39.1694 84.1756C39.6221 84.4507 40.1365 84.6078 40.6656 84.6327H59.6604C60.1895 84.6078 60.704 84.4506 61.1567 84.1755C61.6094 83.9004 61.9858 83.5161 62.2516 83.0579C62.4699 82.6429 62.5955 82.1856 62.6199 81.7174C62.6442 81.2492 62.5667 80.7813 62.3927 80.346H67.2822C68.8697 80.346 70.3922 80.9766 71.5147 82.0991C72.6372 83.2216 73.2678 84.7441 73.2678 86.3316Z" fill="white"/>
<path d="M111.098 63.3304C111.098 63.3304 107.635 62.0934 105.408 67.0414C103.181 71.9895 99.7178 77.4324 99.7178 77.4324L101.697 77.9272C101.697 77.9272 102.192 74.4636 103.429 73.9688L102.934 78.422C102.934 78.422 117.778 83.6175 124.458 77.9272L124.211 76.1954C124.211 76.1954 125.2 76.4428 125.2 77.9272L125.943 77.185C125.943 77.185 125.2 75.7006 122.974 73.7214C121.512 72.4223 121.01 69.9508 120.838 68.4056C120.708 67.1153 120.192 65.8942 119.357 64.9025C117.877 63.1876 115.181 61.3649 111.098 63.3304Z" fill="#2F2E41"/>
<path d="M90.7561 105.778L93.995 109.9L96.0563 107.544L94.2896 104.6L90.7561 105.778Z" fill="#FBBEBE"/>
<path d="M89.5785 169.084L88.4007 175.267L91.3452 176.739L93.4063 175.267V169.084H89.5785Z" fill="#FBBEBE"/>
<path d="M110.19 169.084L111.368 175.267L108.423 176.739L106.362 175.267V169.084H110.19Z" fill="#FBBEBE"/>
<path d="M98.1173 113.433L93.9948 142.878L88.1059 169.673L95.1728 170.556L100.767 145.528L107.834 124.328L106.951 149.65L105.478 170.556H110.778L114.606 142.289L118.839 121.273L118.728 113.433H98.1173Z" fill="#2F2E41"/>
<path d="M90.4617 174.678C90.4617 174.678 88.9895 172.912 88.1061 173.795C87.2228 174.678 85.1617 178.212 85.1617 178.212C85.1617 178.212 80.4505 180.862 84.2783 181.451C88.1062 182.039 89.2839 181.451 89.2839 181.156C89.2839 180.862 89.8728 179.978 89.8728 179.978L91.3451 180.273L93.4062 179.684C93.4062 179.684 94.2895 174.259 93.4062 174.468C92.5228 174.678 90.7562 175.562 90.4617 174.678Z" fill="#2F2E41"/>
<path d="M109.306 174.678C109.306 174.678 110.779 172.912 111.662 173.795C112.545 174.678 114.606 178.212 114.606 178.212C114.606 178.212 119.318 180.862 115.49 181.451C111.662 182.039 110.484 181.451 110.484 181.156C110.484 180.862 109.895 179.978 109.895 179.978L108.423 180.273L106.362 179.684C106.362 179.684 105.478 174.259 106.362 174.468C107.245 174.678 109.012 175.562 109.306 174.678Z" fill="#2F2E41"/>
<path d="M112.103 78.5415C115.356 78.5415 117.992 75.905 117.992 72.6526C117.992 69.4002 115.356 66.7637 112.103 66.7637C108.851 66.7637 106.214 69.4002 106.214 72.6526C106.214 75.905 108.851 78.5415 112.103 78.5415Z" fill="#FBBEBE"/>
<path d="M116.078 76.333C116.078 76.333 115.49 81.3386 115.784 82.5164C116.078 83.6942 116.667 85.4609 116.667 85.4609L107.245 83.6942C107.245 83.6942 109.895 78.0997 109.306 77.2163C108.717 76.333 116.078 76.333 116.078 76.333Z" fill="#FBBEBE"/>
<path d="M116.962 83.3997L107.245 81.3386L101.651 115.494C104.172 114.806 106.845 114.909 109.306 115.789C113.428 117.261 119.023 115.789 119.023 115.789L117.845 83.6942L116.962 83.3997Z" fill="#6C63FF"/>
<path d="M109.224 78.6335L105.773 80.4554L101.356 81.3387L96.6451 92.5277L97.2339 100.478C97.2339 100.478 92.2284 109.606 91.6395 114.611C91.6395 114.611 92.2283 122.267 101.945 121.972L108.423 104.011C108.423 104.011 111.073 90.4666 108.423 86.6388C108.423 86.6388 110.32 79.4617 109.224 78.6335Z" fill="#2F2E41"/>
<path d="M103.123 81.3387L102.169 81.176L101.356 81.3387C101.356 81.3387 99.295 81.6331 96.9394 83.6943C94.5839 85.7554 86.6338 92.2332 86.0449 93.9999C85.456 95.7665 85.7505 98.711 86.6338 100.478C87.5172 102.244 89.2838 104.6 89.2838 104.6L90.1672 106.661L95.1728 105.189C95.1728 105.189 91.9339 99.0055 92.2283 96.3554L98.1173 91.6443L103.123 81.3387Z" fill="#2F2E41"/>
<path d="M115.752 79.9648L120.201 85.4611L122.556 88.4056L119.612 98.4167L118.14 106.956C118.14 106.956 121.673 120.5 118.729 124.623C118.729 124.623 116.962 126.684 116.373 124.328C115.784 121.972 115.784 110.784 115.784 110.784C115.784 110.784 113.428 96.0612 114.606 92.2334C115.784 88.4056 114.543 80.652 115.752 79.9648Z" fill="#2F2E41"/>
<path d="M119.906 122.561V125.506C119.906 125.506 119.317 135.222 122.262 134.045C125.206 132.867 123.145 125.506 123.145 125.506L122.851 122.267L119.906 122.561Z" fill="#FBBEBE"/>
<path d="M105.539 72.9665C107.778 71.3457 109.591 69.4789 110.791 67.2583C110.791 67.2583 114.9 71.8248 117.412 72.0532C119.924 72.2815 117.64 66.5733 117.64 66.5733L113.074 65.4316L108.736 65.8883L105.311 68.1716L105.539 72.9665Z" fill="#2F2E41"/>
<path d="M120.201 87.522L122.556 88.4053L122.851 91.3498L124.029 109.311L123.44 122.856L119.023 123.15L117.551 108.133L116.962 91.6444L120.201 87.522Z" fill="#2F2E41"/>
<path d="M68.1344 104.364H32.3436V107.92H68.1344V104.364Z" fill="#6C63FF"/>
<path d="M68.1344 112.742H32.3436V114.089H68.1344V112.742Z" fill="#E6E6E6"/>
<path d="M68.1344 116.854H32.3436V118.201H68.1344V116.854Z" fill="#E6E6E6"/>
<path d="M50.8367 121.018H32.3436V122.365H50.8367V121.018Z" fill="#E6E6E6"/>
<path d="M68.1344 125.255H32.3436V126.603H68.1344V125.255Z" fill="#E6E6E6"/>
<path d="M68.1344 129.493H32.3436V130.84H68.1344V129.493Z" fill="#E6E6E6"/>
<path d="M50.2174 133.731H32.3436V135.078H50.2174V133.731Z" fill="#E6E6E6"/>
<path d="M68.1344 137.969H32.3436V139.316H68.1344V137.969Z" fill="#E6E6E6"/>
<path d="M68.1344 142.207H32.3436V143.554H68.1344V142.207Z" fill="#E6E6E6"/>
<path d="M68.1771 147.405H56.8748V151.121H68.1771V147.405Z" fill="#6C63FF"/>
</g>
<defs>
<clipPath id="clip0">
<rect width="248" height="181.702" fill="white" transform="translate(0.885712)"/>
</clipPath>
</defs>
</svg>
