<svg width="234" height="201" viewBox="0 0 234 201" fill="none" xmlns="http://www.w3.org/2000/svg">
<g clip-path="url(#clip0)">
<path d="M194.406 47.5801H193.297V17.4431C193.297 12.8169 191.446 8.3802 188.151 5.10898C184.856 1.83776 180.387 3.05392e-06 175.727 0H111.409C109.102 0 106.817 0.451179 104.685 1.32778C102.554 2.20438 100.617 3.48923 98.9852 5.10898C97.3536 6.72872 96.0594 8.65163 95.1764 10.7679C94.2934 12.8842 93.8389 15.1525 93.8389 17.4431V182.78C93.8389 187.406 95.6901 191.842 98.9852 195.114C102.28 198.385 106.749 200.223 111.409 200.223H175.727C180.387 200.223 184.856 198.385 188.151 195.114C191.446 191.842 193.297 187.406 193.297 182.78V69.0321H194.405L194.406 47.5801Z" fill="#E6E6E6"/>
<path d="M176.436 4.53638H168.041C168.427 5.47613 168.574 6.49573 168.47 7.50535C168.366 8.51497 168.013 9.48362 167.443 10.326C166.872 11.1683 166.102 11.8585 165.2 12.3356C164.298 12.8128 163.291 13.0624 162.269 13.0624H125.422C124.4 13.0623 123.393 12.8127 122.491 12.3355C121.588 11.8582 120.818 11.168 120.248 10.3257C119.678 9.48341 119.325 8.5148 119.221 7.50522C119.116 6.49564 119.264 5.47609 119.65 4.53638H111.809C108.329 4.53638 104.991 5.9088 102.53 8.35171C100.07 10.7946 98.6871 14.1079 98.6871 17.5627V182.659C98.6871 186.114 100.07 189.427 102.53 191.87C104.991 194.313 108.329 195.685 111.809 195.685H176.436C179.916 195.685 183.253 194.313 185.714 191.87C188.175 189.427 189.557 186.114 189.557 182.659V17.5625C189.557 14.1077 188.175 10.7945 185.714 8.35161C183.253 5.90876 179.916 4.53638 176.436 4.53638Z" fill="white"/>
<path d="M124.573 43.0454C124.223 43.0484 123.876 42.9783 123.555 42.8395C123.234 42.7008 122.946 42.4964 122.71 42.2398C122.429 41.9178 122.219 41.5416 122.092 41.135C121.965 40.7283 121.924 40.3 121.972 39.8769C122.039 39.0712 122.379 38.3117 122.937 37.7228C123.205 37.4352 123.529 37.2049 123.89 37.0462C124.251 36.8875 124.641 36.8037 125.036 36.7998C125.402 36.7982 125.766 36.8733 126.101 37.0202C126.437 37.1672 126.738 37.3826 126.984 37.6526C127.264 37.9661 127.475 38.3338 127.604 38.7324C127.733 39.1309 127.778 39.5518 127.735 39.9683C127.683 40.8232 127.311 41.628 126.693 42.2254C126.118 42.7572 125.36 43.0505 124.573 43.0454ZM125.036 37.8408C124.009 37.8408 123.123 38.7753 123.017 39.9682C122.982 40.2475 123.005 40.5309 123.085 40.8007C123.166 41.0706 123.301 41.3212 123.483 41.5368C123.621 41.6873 123.789 41.8069 123.977 41.8875C124.165 41.9681 124.369 42.008 124.573 42.0044C125.533 42.0044 126.56 41.3466 126.691 39.8768C126.721 39.6041 126.694 39.3282 126.611 39.0664C126.529 38.8046 126.393 38.5626 126.211 38.3556C126.063 38.1927 125.881 38.0626 125.679 37.9739C125.476 37.8852 125.257 37.8398 125.036 37.8408Z" fill="#3F3D56"/>
<path d="M124.608 46.1682C123.797 46.1813 122.992 46.0231 122.247 45.7039C121.502 45.3848 120.835 44.9121 120.288 44.3172C119.741 43.7222 119.328 43.0187 119.076 42.2532C118.824 41.4878 118.739 40.6779 118.827 39.8773C118.998 38.1968 119.785 36.6374 121.038 35.4946C122.291 34.3518 123.923 33.7051 125.624 33.6771C127.512 33.6771 129.065 34.2792 130.115 35.4182C131.112 36.4982 131.578 38.0187 131.429 39.6993C131.288 41.2915 130.607 42.1207 130.061 42.536C129.82 42.7311 129.542 42.8755 129.243 42.9606C128.944 43.0457 128.63 43.0696 128.322 43.0309C127.459 42.879 126.504 42.1008 126.655 40.4073L126.932 37.2763C126.945 37.1393 127.012 37.013 127.119 36.9248C127.225 36.8367 127.362 36.794 127.5 36.8061C127.639 36.8182 127.766 36.8841 127.855 36.9893C127.945 37.0945 127.988 37.2306 127.977 37.3677L127.699 40.4986C127.624 41.3405 127.926 41.9041 128.505 42.006C128.839 42.0317 129.169 41.9252 129.424 41.7097C129.802 41.4215 130.277 40.823 130.384 39.608C130.509 38.2015 130.149 36.9958 129.342 36.1212C128.495 35.2033 127.21 34.718 125.624 34.718C124.185 34.7451 122.805 35.2939 121.746 36.261C120.686 37.2281 120.019 38.5467 119.871 39.9681C119.796 40.6248 119.864 41.2899 120.069 41.9187C120.274 42.5474 120.612 43.1254 121.061 43.6139C121.509 44.1024 122.058 44.4902 122.67 44.7512C123.281 45.0122 123.942 45.1404 124.608 45.1273C125.429 45.1714 126.249 45.0237 127.002 44.6962C127.13 44.6434 127.274 44.6432 127.402 44.6955C127.531 44.7478 127.633 44.8484 127.687 44.9753C127.74 45.1022 127.741 45.2451 127.689 45.3727C127.637 45.5002 127.536 45.6021 127.408 45.6559C126.527 46.037 125.568 46.2123 124.608 46.1682Z" fill="#3F3D56"/>
<path d="M119.072 120.562C118.968 120.562 118.867 120.531 118.781 120.474C118.695 120.417 118.628 120.335 118.588 120.24C118.548 120.145 118.538 120.041 118.558 119.94C118.578 119.839 118.628 119.746 118.701 119.673L122.109 116.29C122.208 116.194 122.341 116.14 122.479 116.14C122.617 116.141 122.75 116.196 122.848 116.293C122.946 116.39 123.001 116.522 123.001 116.659C123.002 116.796 122.948 116.928 122.851 117.026L119.443 120.409C119.394 120.458 119.336 120.496 119.273 120.522C119.209 120.548 119.141 120.562 119.072 120.562ZM127.722 119.261C127.619 119.261 127.517 119.23 127.431 119.173C127.345 119.116 127.278 119.034 127.238 118.939C127.198 118.844 127.188 118.739 127.208 118.639C127.229 118.538 127.278 118.445 127.352 118.372L130.235 115.51C130.334 115.413 130.467 115.359 130.605 115.36C130.744 115.36 130.876 115.415 130.974 115.512C131.072 115.609 131.127 115.741 131.128 115.878C131.128 116.016 131.074 116.148 130.977 116.246L128.093 119.108C128.045 119.156 127.987 119.195 127.923 119.221C127.86 119.247 127.791 119.261 127.722 119.261ZM126.15 119.261C126.081 119.261 126.013 119.247 125.949 119.221C125.885 119.195 125.828 119.156 125.779 119.108L123.682 117.026C123.633 116.978 123.594 116.921 123.567 116.857C123.54 116.794 123.526 116.726 123.526 116.657C123.526 116.589 123.539 116.521 123.565 116.457C123.592 116.394 123.63 116.336 123.679 116.288C123.728 116.239 123.786 116.201 123.85 116.174C123.914 116.148 123.983 116.135 124.052 116.135C124.121 116.135 124.189 116.149 124.253 116.176C124.317 116.202 124.375 116.241 124.423 116.29L126.52 118.372C126.594 118.445 126.644 118.538 126.664 118.639C126.684 118.739 126.674 118.844 126.634 118.939C126.594 119.034 126.527 119.116 126.441 119.173C126.355 119.23 126.253 119.261 126.15 119.261Z" fill="#3F3D56"/>
<path d="M131.392 116.398C131.133 116.398 130.88 116.322 130.664 116.179C130.449 116.036 130.281 115.832 130.181 115.595C130.082 115.357 130.056 115.095 130.107 114.843C130.157 114.59 130.282 114.359 130.466 114.177C130.649 113.995 130.882 113.871 131.137 113.821C131.391 113.77 131.654 113.796 131.894 113.895C132.133 113.993 132.338 114.16 132.482 114.374C132.626 114.588 132.703 114.839 132.703 115.097C132.703 115.442 132.564 115.772 132.319 116.016C132.073 116.26 131.74 116.397 131.392 116.398ZM131.392 114.836C131.34 114.836 131.29 114.852 131.247 114.88C131.204 114.909 131.17 114.95 131.15 114.997C131.13 115.045 131.125 115.097 131.135 115.147C131.145 115.198 131.17 115.244 131.207 115.281C131.244 115.317 131.29 115.342 131.341 115.352C131.392 115.362 131.445 115.357 131.493 115.337C131.541 115.317 131.581 115.284 131.61 115.241C131.639 115.198 131.654 115.148 131.654 115.097C131.654 115.028 131.627 114.962 131.578 114.913C131.528 114.864 131.462 114.837 131.392 114.836Z" fill="#3F3D56"/>
<path d="M126.936 120.822C126.677 120.822 126.423 120.746 126.208 120.603C125.992 120.46 125.824 120.256 125.725 120.019C125.626 119.781 125.6 119.519 125.651 119.267C125.701 119.014 125.826 118.783 126.009 118.601C126.193 118.419 126.426 118.295 126.68 118.244C126.935 118.194 127.198 118.22 127.438 118.319C127.677 118.417 127.882 118.584 128.026 118.798C128.17 119.012 128.247 119.263 128.247 119.521C128.246 119.866 128.108 120.196 127.862 120.44C127.617 120.684 127.284 120.821 126.936 120.822ZM126.936 119.26C126.884 119.26 126.834 119.276 126.79 119.304C126.747 119.333 126.714 119.374 126.694 119.421C126.674 119.469 126.669 119.521 126.679 119.571C126.689 119.622 126.714 119.668 126.751 119.705C126.787 119.741 126.834 119.766 126.885 119.776C126.936 119.786 126.989 119.781 127.036 119.761C127.084 119.741 127.125 119.708 127.154 119.665C127.183 119.622 127.198 119.572 127.198 119.521C127.198 119.452 127.171 119.386 127.121 119.337C127.072 119.288 127.006 119.261 126.936 119.26Z" fill="#3F3D56"/>
<path d="M123.266 117.179C123.007 117.179 122.754 117.102 122.538 116.959C122.323 116.816 122.155 116.613 122.055 116.375C121.956 116.138 121.93 115.876 121.981 115.624C122.031 115.371 122.156 115.139 122.339 114.957C122.523 114.775 122.756 114.652 123.011 114.601C123.265 114.551 123.528 114.577 123.768 114.675C124.007 114.774 124.212 114.941 124.356 115.155C124.5 115.369 124.577 115.62 124.577 115.877C124.577 116.222 124.438 116.553 124.193 116.797C123.947 117.041 123.614 117.178 123.266 117.179ZM123.266 115.617C123.214 115.617 123.164 115.632 123.121 115.661C123.078 115.69 123.044 115.73 123.024 115.778C123.004 115.825 122.999 115.878 123.009 115.928C123.019 115.979 123.044 116.025 123.081 116.061C123.118 116.098 123.164 116.123 123.215 116.133C123.266 116.143 123.319 116.138 123.367 116.118C123.414 116.098 123.455 116.065 123.484 116.022C123.513 115.979 123.528 115.929 123.528 115.877C123.528 115.808 123.501 115.742 123.452 115.694C123.402 115.645 123.336 115.617 123.266 115.617Z" fill="#3F3D56"/>
<path d="M118.286 122.123C118.027 122.123 117.773 122.047 117.558 121.904C117.342 121.761 117.174 121.557 117.075 121.32C116.976 121.082 116.95 120.82 117 120.568C117.051 120.316 117.176 120.084 117.359 119.902C117.542 119.72 117.776 119.596 118.03 119.546C118.284 119.495 118.548 119.521 118.787 119.62C119.027 119.718 119.232 119.885 119.376 120.099C119.52 120.313 119.596 120.564 119.596 120.822C119.596 121.167 119.458 121.497 119.212 121.741C118.966 121.985 118.633 122.123 118.286 122.123ZM118.286 120.562C118.234 120.562 118.183 120.577 118.14 120.605C118.097 120.634 118.063 120.675 118.044 120.722C118.024 120.77 118.019 120.822 118.029 120.873C118.039 120.923 118.064 120.969 118.1 121.006C118.137 121.042 118.184 121.067 118.235 121.077C118.286 121.087 118.338 121.082 118.386 121.062C118.434 121.043 118.475 121.009 118.504 120.966C118.533 120.924 118.548 120.873 118.548 120.822C118.548 120.753 118.52 120.687 118.471 120.638C118.422 120.589 118.355 120.562 118.286 120.562Z" fill="#3F3D56"/>
<path d="M168.04 162.259H157.031C156.544 162.258 156.078 162.066 155.734 161.725C155.39 161.383 155.196 160.92 155.196 160.437V152.63C155.196 152.148 155.39 151.684 155.734 151.343C156.078 151.001 156.544 150.809 157.031 150.809H168.04C168.527 150.809 168.993 151.001 169.337 151.343C169.681 151.684 169.875 152.148 169.875 152.63V160.437C169.875 160.92 169.681 161.383 169.337 161.725C168.993 162.066 168.527 162.258 168.04 162.259ZM157.031 151.85C156.822 151.85 156.622 151.932 156.475 152.079C156.327 152.225 156.245 152.423 156.244 152.63V160.437C156.245 160.644 156.327 160.843 156.475 160.989C156.622 161.136 156.822 161.218 157.031 161.218H168.04C168.249 161.218 168.449 161.136 168.596 160.989C168.743 160.843 168.826 160.644 168.827 160.437V152.63C168.826 152.423 168.743 152.225 168.596 152.079C168.449 151.932 168.249 151.85 168.04 151.85L157.031 151.85Z" fill="#3F3D56"/>
<path d="M162.535 157.575C162.419 157.575 162.306 157.536 162.214 157.465L157.495 153.822C157.441 153.78 157.395 153.728 157.361 153.668C157.327 153.609 157.305 153.543 157.297 153.476C157.288 153.408 157.293 153.339 157.312 153.273C157.33 153.207 157.361 153.146 157.403 153.092C157.446 153.038 157.498 152.992 157.558 152.959C157.618 152.925 157.684 152.903 157.752 152.895C157.82 152.886 157.89 152.891 157.956 152.909C158.022 152.927 158.085 152.958 158.139 153L162.535 156.395L166.932 153C166.986 152.958 167.048 152.927 167.115 152.909C167.181 152.891 167.251 152.886 167.319 152.895C167.387 152.903 167.453 152.925 167.513 152.959C167.573 152.992 167.625 153.038 167.668 153.092C167.71 153.146 167.741 153.207 167.759 153.273C167.778 153.339 167.783 153.408 167.774 153.476C167.765 153.543 167.744 153.609 167.71 153.668C167.676 153.728 167.63 153.78 167.576 153.822L162.857 157.465C162.765 157.536 162.652 157.575 162.535 157.575Z" fill="#3F3D56"/>
<path d="M221.668 169.464L161.023 169.488C160.946 169.488 160.872 169.458 160.818 169.404C160.763 169.35 160.733 169.276 160.733 169.2C160.733 169.124 160.763 169.051 160.818 168.997C160.872 168.943 160.946 168.912 161.023 168.912L221.668 168.888C221.745 168.888 221.819 168.919 221.873 168.973C221.927 169.027 221.958 169.1 221.958 169.176C221.958 169.253 221.927 169.326 221.873 169.38C221.819 169.434 221.745 169.464 221.668 169.464Z" fill="#CCCCCC"/>
<path d="M220.861 173.206C223.103 173.206 224.92 171.402 224.92 169.176C224.92 166.95 223.103 165.146 220.861 165.146C218.619 165.146 216.801 166.95 216.801 169.176C216.801 171.402 218.619 173.206 220.861 173.206Z" fill="#14AFDD"/>
<path d="M220.218 92.315L158.993 92.3389C158.916 92.3389 158.842 92.3085 158.788 92.2545C158.734 92.2005 158.703 92.1273 158.703 92.051C158.703 91.9746 158.734 91.9014 158.788 91.8474C158.842 91.7934 158.916 91.7631 158.993 91.7631L220.218 91.7393C220.295 91.7393 220.369 91.7696 220.423 91.8236C220.478 91.8776 220.508 91.9508 220.508 92.0271C220.508 92.1035 220.478 92.1767 220.423 92.2307C220.369 92.2847 220.295 92.315 220.218 92.315Z" fill="#CCCCCC"/>
<path d="M220.861 96.3452C223.103 96.3452 224.92 94.5408 224.92 92.315C224.92 90.0892 223.103 88.2848 220.861 88.2848C218.619 88.2848 216.801 90.0892 216.801 92.315C216.801 94.5408 218.619 96.3452 220.861 96.3452Z" fill="#14AFDD"/>
<path d="M63.4687 52.8768L124.694 52.9006C124.771 52.9006 124.844 52.8703 124.899 52.8163C124.953 52.7623 124.984 52.6891 124.984 52.6128C124.984 52.5364 124.953 52.4632 124.899 52.4092C124.844 52.3552 124.771 52.3249 124.694 52.3249L63.4687 52.301C63.3918 52.301 63.3181 52.3314 63.2637 52.3853C63.2093 52.4393 63.1787 52.5126 63.1787 52.5889C63.1787 52.6653 63.2093 52.7385 63.2637 52.7925C63.3181 52.8464 63.3918 52.8768 63.4687 52.8768Z" fill="#CCCCCC"/>
<path d="M62.826 56.9069C65.068 56.9069 66.8856 55.1025 66.8856 52.8767C66.8856 50.6509 65.068 48.8466 62.826 48.8466C60.5839 48.8466 58.7664 50.6509 58.7664 52.8767C58.7664 55.1025 60.5839 56.9069 62.826 56.9069Z" fill="#14AFDD"/>
<path d="M63.4687 130.89L124.694 130.913C124.771 130.913 124.844 130.883 124.899 130.829C124.953 130.775 124.984 130.702 124.984 130.626C124.984 130.549 124.953 130.476 124.899 130.422C124.844 130.368 124.771 130.338 124.694 130.338L63.4687 130.314C63.3918 130.314 63.3181 130.344 63.2637 130.398C63.2093 130.452 63.1787 130.525 63.1787 130.602C63.1787 130.678 63.2093 130.751 63.2637 130.805C63.3181 130.859 63.3918 130.89 63.4687 130.89Z" fill="#CCCCCC"/>
<path d="M62.826 134.92C65.068 134.92 66.8856 133.115 66.8856 130.89C66.8856 128.664 65.068 126.859 62.826 126.859C60.5839 126.859 58.7664 128.664 58.7664 130.89C58.7664 133.115 60.5839 134.92 62.826 134.92Z" fill="#14AFDD"/>
<path d="M162.535 169.488C159.955 169.488 157.432 168.728 155.286 167.305C153.14 165.882 151.468 163.858 150.48 161.491C149.492 159.124 149.234 156.52 149.737 154.007C150.241 151.494 151.484 149.186 153.309 147.374C155.133 145.562 157.459 144.329 159.99 143.829C162.521 143.329 165.145 143.585 167.529 144.566C169.913 145.546 171.951 147.207 173.385 149.337C174.819 151.467 175.584 153.972 175.584 156.534C175.58 159.968 174.204 163.261 171.758 165.69C169.312 168.118 165.995 169.484 162.535 169.488ZM162.535 144.156C160.069 144.156 157.659 144.882 155.608 146.242C153.558 147.602 151.96 149.535 151.016 151.797C150.072 154.059 149.825 156.548 150.306 158.949C150.787 161.35 151.975 163.556 153.719 165.287C155.462 167.018 157.684 168.197 160.103 168.675C162.522 169.152 165.029 168.907 167.307 167.97C169.585 167.033 171.533 165.447 172.903 163.411C174.273 161.375 175.004 158.982 175.004 156.534C175.001 153.252 173.686 150.106 171.348 147.785C169.011 145.465 165.841 144.159 162.535 144.156Z" fill="#CCCCCC"/>
<path d="M124.839 130.913C122.258 130.913 119.735 130.154 117.59 128.73C115.444 127.307 113.771 125.284 112.784 122.917C111.796 120.55 111.538 117.945 112.041 115.432C112.545 112.919 113.787 110.611 115.612 108.799C117.437 106.988 119.762 105.754 122.293 105.254C124.825 104.754 127.448 105.011 129.833 105.991C132.217 106.972 134.255 108.632 135.689 110.762C137.122 112.893 137.888 115.397 137.888 117.959C137.884 121.394 136.508 124.686 134.062 127.115C131.615 129.543 128.299 130.91 124.839 130.913ZM124.839 105.581C122.373 105.581 119.962 106.307 117.912 107.667C115.861 109.027 114.263 110.96 113.319 113.222C112.376 115.484 112.129 117.973 112.61 120.374C113.091 122.775 114.278 124.981 116.022 126.712C117.766 128.443 119.988 129.622 122.407 130.1C124.825 130.577 127.332 130.332 129.611 129.395C131.889 128.459 133.836 126.872 135.206 124.836C136.577 122.801 137.308 120.408 137.308 117.959C137.304 114.677 135.989 111.531 133.652 109.211C131.314 106.89 128.145 105.585 124.839 105.581Z" fill="#CCCCCC"/>
<path d="M159.926 92.3389C157.345 92.3389 154.822 91.5791 152.676 90.1557C150.53 88.7323 148.858 86.7091 147.87 84.3421C146.883 81.975 146.624 79.3703 147.128 76.8575C147.631 74.3446 148.874 72.0364 150.699 70.2247C152.524 68.4131 154.849 67.1793 157.38 66.6795C159.911 66.1796 162.535 66.4362 164.919 67.4166C167.304 68.3971 169.342 70.0575 170.775 72.1878C172.209 74.3181 172.974 76.8226 172.974 79.3847C172.971 82.8192 171.594 86.1119 169.148 88.5404C166.702 90.9689 163.385 92.335 159.926 92.3389ZM159.926 67.0063C157.46 67.0063 155.049 67.7323 152.998 69.0924C150.948 70.4526 149.35 72.3858 148.406 74.6477C147.462 76.9096 147.215 79.3984 147.696 81.7996C148.178 84.2008 149.365 86.4064 151.109 88.1376C152.853 89.8687 155.074 91.0477 157.493 91.5253C159.912 92.0029 162.419 91.7578 164.697 90.8209C166.976 89.884 168.923 88.2974 170.293 86.2618C171.663 84.2262 172.394 81.8329 172.394 79.3847C172.391 76.1029 171.076 72.9565 168.738 70.6359C166.401 68.3153 163.231 67.01 159.926 67.0063Z" fill="#CCCCCC"/>
<path d="M125.129 52.8767C122.548 52.8767 120.025 52.117 117.88 50.6936C115.734 49.2701 114.061 47.247 113.074 44.8799C112.086 42.5128 111.828 39.9082 112.331 37.3953C112.834 34.8825 114.077 32.5742 115.902 30.7626C117.727 28.9509 120.052 27.7171 122.583 27.2173C125.115 26.7175 127.738 26.974 130.123 27.9545C132.507 28.9349 134.545 30.5953 135.979 32.7256C137.412 34.8559 138.178 37.3605 138.178 39.9226C138.174 43.357 136.798 46.6497 134.352 49.0782C131.905 51.5068 128.589 52.8728 125.129 52.8767ZM125.129 27.5441C122.663 27.5441 120.252 28.2701 118.202 29.6303C116.151 30.9904 114.553 32.9237 113.609 35.1855C112.666 37.4474 112.419 39.9363 112.9 42.3375C113.381 44.7386 114.568 46.9443 116.312 48.6754C118.056 50.4066 120.278 51.5855 122.696 52.0631C125.115 52.5408 127.622 52.2956 129.901 51.3587C132.179 50.4218 134.126 48.8353 135.496 46.7996C136.867 44.764 137.598 42.3708 137.598 39.9226C137.594 36.6407 136.279 33.4944 133.942 31.1738C131.604 28.8532 128.435 27.5478 125.129 27.5441Z" fill="#CCCCCC"/>
<path d="M43.2387 140.647C42.882 140.377 42.5865 140.036 42.3716 139.645C42.1567 139.254 42.0271 138.823 41.9912 138.379C41.9833 138.275 41.9808 138.172 41.9838 138.068L28.4804 129.04C28.0385 128.741 27.7055 128.309 27.5311 127.807C27.3568 127.306 27.3504 126.761 27.5128 126.256L33.9667 110.338C34.2444 109.653 34.7844 109.105 35.4682 108.814C36.1521 108.523 36.9242 108.513 37.6155 108.786C38.3068 109.059 38.8609 109.593 39.1566 110.271C39.4523 110.948 39.4654 111.715 39.193 112.402L33.9823 125.555L44.497 135.036C44.6358 135.005 44.7766 134.983 44.9184 134.972C45.7305 134.907 46.5365 135.154 47.1711 135.661C47.8058 136.168 48.221 136.897 48.3317 137.698C48.4423 138.5 48.24 139.312 47.7662 139.97C47.2924 140.628 46.583 141.081 45.7835 141.236C45.5784 141.276 45.3699 141.296 45.161 141.296C44.4657 141.296 43.7898 141.068 43.2387 140.647Z" fill="#A0616A"/>
<path d="M28.4859 119.711C28.4069 119.528 28.3686 119.33 28.3737 119.131C28.3787 118.931 28.427 118.736 28.5153 118.557L31.5961 112.305C31.907 111.334 32.5933 110.524 33.5045 110.054C34.4158 109.584 35.4776 109.492 36.4572 109.797C37.4368 110.103 38.2542 110.782 38.7303 111.686C39.2063 112.589 39.3021 113.643 38.9967 114.616L37.8719 121.508C37.8398 121.705 37.7654 121.893 37.6537 122.058C37.542 122.224 37.3956 122.364 37.2247 122.468C37.0537 122.572 36.862 122.639 36.6628 122.663C36.4636 122.687 36.2614 122.668 36.0701 122.608L29.3471 120.487C29.1557 120.427 28.9797 120.326 28.8311 120.192C28.6825 120.058 28.5647 119.894 28.4859 119.711Z" fill="#14AFDD"/>
<path d="M49.7357 196.889H53.2908L54.9819 183.276L49.7351 183.276L49.7357 196.889Z" fill="#A0616A"/>
<path d="M48.8288 195.737L55.8299 195.737H55.8302C56.4161 195.737 56.9963 195.851 57.5376 196.074C58.0789 196.296 58.5707 196.623 58.985 197.034C59.3993 197.445 59.728 197.933 59.9522 198.471C60.1764 199.008 60.2918 199.584 60.2918 200.166V200.31L48.8291 200.31L48.8288 195.737Z" fill="#2F2E41"/>
<path d="M14.973 194.389L18.4161 195.267L23.4674 182.5L18.3856 181.204L14.973 194.389Z" fill="#A0616A"/>
<path d="M14.3836 193.048L21.1643 194.778L21.1646 194.778C21.7321 194.923 22.2652 195.177 22.7337 195.527C23.2022 195.876 23.5967 196.314 23.8949 196.814C24.193 197.315 24.3889 197.869 24.4713 198.445C24.5537 199.021 24.521 199.607 24.3752 200.171L24.3391 200.31L13.237 197.478L14.3836 193.048Z" fill="#2F2E41"/>
<path d="M39.9076 103.501C43.841 103.501 47.0296 100.336 47.0296 96.431C47.0296 92.5261 43.841 89.3606 39.9076 89.3606C35.9742 89.3606 32.7856 92.5261 32.7856 96.431C32.7856 100.336 35.9742 103.501 39.9076 103.501Z" fill="#A0616A"/>
<path d="M36.3055 125.84C34.611 124.108 33.1723 122.147 32.0324 120.015C31.4261 118.846 31.0732 117.564 30.9962 116.251C30.9193 114.938 31.1201 113.624 31.5858 112.393C32.0612 111.135 32.7969 109.989 33.7453 109.03C34.6937 108.071 35.8339 107.32 37.0925 106.824C39.2998 105.935 41.7624 105.898 43.9956 106.721C46.2288 107.544 48.0708 109.167 49.1589 111.271C50.941 114.733 51.6394 118.118 51.2348 121.333C50.4611 127.477 50.0081 130.654 49.8885 130.772L49.8488 130.812L36.6001 131.396L36.3055 125.84Z" fill="#14AFDD"/>
<path d="M37.0923 129.696L48.9484 129.11C49.2478 129.095 49.5413 129.196 49.7675 129.391C49.9936 129.587 50.1348 129.861 50.1614 130.158L55.6154 190.85C55.6299 191.011 55.6099 191.174 55.5569 191.327C55.5038 191.48 55.4189 191.62 55.3075 191.738C55.1962 191.857 55.061 191.95 54.9107 192.013C54.7604 192.076 54.5984 192.107 54.4354 192.103L49.8034 192.006C49.5487 192 49.3028 191.912 49.1038 191.754C48.9048 191.596 48.7637 191.377 48.7024 191.132L39.8535 155.734C39.7956 155.503 39.6667 155.295 39.4846 155.139C39.3024 154.983 39.0761 154.888 38.8368 154.865C38.5975 154.843 38.3571 154.895 38.1488 155.014C37.9406 155.133 37.7747 155.313 37.6742 155.53L20.9052 191.686C20.7913 191.932 20.5939 192.13 20.3478 192.246C20.1016 192.361 19.8223 192.387 19.5588 192.319L14.8973 191.112C14.6088 191.037 14.3602 190.856 14.2033 190.604C14.0465 190.352 13.9933 190.05 14.055 189.761C15.5887 182.573 24.7757 141.411 36.3427 130.018C36.544 129.823 36.8109 129.708 37.0923 129.696Z" fill="#2F2E41"/>
<path d="M59.5441 136.51C59.1154 136.379 58.7193 136.16 58.3817 135.866C58.0441 135.573 57.7724 135.213 57.5845 134.808C57.5411 134.714 57.5027 134.617 57.4695 134.519L41.657 130.672C41.1384 130.543 40.6756 130.252 40.3376 129.841C39.9996 129.43 39.8044 128.921 39.7812 128.391L40.3045 111.24C40.327 110.502 40.6432 109.803 41.1839 109.295C41.7245 108.788 42.4457 108.514 43.1893 108.534C43.933 108.553 44.6387 108.864 45.1518 109.399C45.665 109.933 45.9438 110.648 45.9273 111.387L45.6093 125.516L58.7743 130.813C58.8937 130.736 59.0182 130.667 59.147 130.607H59.1471C59.6173 130.391 60.1334 130.291 60.651 130.317C61.1685 130.343 61.672 130.494 62.1177 130.756C62.5635 131.019 62.9383 131.385 63.2097 131.823C63.4811 132.261 63.6409 132.759 63.6755 133.272C63.71 133.785 63.6181 134.299 63.4078 134.769C63.1975 135.239 62.8751 135.652 62.4684 135.971C62.0617 136.289 61.5829 136.505 61.0734 136.599C60.5639 136.693 60.039 136.663 59.5441 136.51V136.51Z" fill="#A0616A"/>
<path d="M38.6179 119.786C38.4815 119.64 38.3784 119.466 38.3157 119.277C38.253 119.088 38.2321 118.887 38.2546 118.689L39.0383 111.773C39.002 110.754 39.374 109.763 40.073 109.016C40.7719 108.269 41.7406 107.828 42.7668 107.789C43.7929 107.75 44.7928 108.116 45.5471 108.808C46.3014 109.5 46.7487 110.46 46.7908 111.479L48.0662 118.345C48.1026 118.541 48.096 118.743 48.0469 118.936C47.9978 119.129 47.9074 119.31 47.7817 119.465C47.656 119.62 47.4981 119.747 47.3186 119.836C47.1392 119.926 46.9425 119.975 46.7419 119.982L39.6919 120.23C39.4913 120.237 39.2915 120.201 39.1061 120.124C38.9208 120.048 38.7543 119.932 38.6179 119.786Z" fill="#14AFDD"/>
<path d="M29.7024 105.765L30.4465 103.378L30.9554 106.058L35.1348 105.948L35.1155 103.306L36.7043 105.913L40.4915 105.082C39.6824 104.012 38.8637 102.925 38.3463 101.663C37.8288 100.401 37.6404 98.9219 38.1239 97.6448C39.3193 94.4874 43.8513 95.3709 46.3301 95.3442C47.0532 95.3363 47.8696 95.2846 48.3432 94.6977C48.6999 94.2557 48.7583 93.6235 48.7402 93.039C48.6471 90.0294 46.8271 87.1581 44.254 85.9617C42.9944 85.3859 41.5903 85.197 40.2219 85.4194C39.5081 85.5314 38.8151 85.7481 38.1655 86.0624C37.5864 86.3433 36.9781 87.0122 36.3546 86.994C35.8306 86.9788 35.1369 86.437 34.5667 86.3444C33.8797 86.2391 33.1789 86.2634 32.501 86.416C31.1388 86.7175 29.9108 87.447 28.9993 88.4963C27.0621 90.7308 26.4866 94.0235 26.8242 97.0549C27.1618 100.086 28.3041 102.937 29.4337 105.739" fill="#2F2E41"/>
<path d="M233.025 200.842H0.467096C0.390191 200.842 0.316435 200.812 0.262055 200.758C0.207674 200.704 0.177124 200.63 0.177124 200.554C0.177124 200.478 0.207674 200.405 0.262055 200.351C0.316435 200.297 0.390191 200.266 0.467096 200.266H233.025C233.102 200.266 233.175 200.297 233.23 200.351C233.284 200.405 233.315 200.478 233.315 200.554C233.315 200.63 233.284 200.704 233.23 200.758C233.175 200.812 233.102 200.842 233.025 200.842Z" fill="#E6E6E6"/>
<path d="M229.102 197.274C229.987 196.562 230.632 195.598 230.95 194.512C231.186 193.413 230.714 192.122 229.66 191.697C228.476 191.243 227.21 192.06 226.251 192.882C225.293 193.704 224.191 194.646 222.934 194.469C223.578 193.887 224.059 193.148 224.33 192.327C224.6 191.505 224.652 190.628 224.48 189.78C224.428 189.428 224.278 189.097 224.047 188.824C223.392 188.127 222.198 188.428 221.408 188.977C218.905 190.727 218.207 194.101 218.197 197.141C217.942 196.041 218.154 194.899 218.149 193.795C218.144 192.691 217.831 191.405 216.878 190.822C216.287 190.507 215.623 190.35 214.952 190.368C213.826 190.33 212.574 190.44 211.804 191.257C210.841 192.27 211.096 193.977 211.929 195.081C212.762 196.185 214.023 196.897 215.183 197.671C216.118 198.221 216.915 198.975 217.513 199.874C217.584 199.999 217.643 200.13 217.687 200.266H224.74C226.323 199.47 227.791 198.463 229.102 197.274Z" fill="#F2F2F2"/>
<path d="M155.72 86.995C155.589 86.9944 155.46 86.9613 155.345 86.8988C155.23 86.8363 155.132 86.7463 155.061 86.637C154.99 86.5276 154.948 86.4024 154.937 86.2726C154.927 86.1429 154.95 86.0127 155.003 85.8938L155.911 83.8842C154.66 82.7817 153.864 81.2599 153.675 79.6105C153.485 77.9611 153.915 76.3003 154.883 74.9465C155.851 73.5927 157.288 72.6413 158.919 72.2746C160.55 71.9079 162.26 72.1518 163.721 72.9596C165.181 73.7674 166.291 75.0821 166.835 76.6516C167.38 78.2212 167.322 79.9351 166.672 81.4648C166.022 82.9944 164.826 84.232 163.314 84.9403C161.802 85.6486 160.079 85.7778 158.477 85.3029L156.161 86.8592C156.031 86.9473 155.877 86.9946 155.72 86.995ZM160.402 73.1003C159.195 73.0996 158.019 73.4715 157.035 74.1644C156.051 74.8572 155.309 75.8368 154.911 76.9672C154.513 78.0977 154.479 79.323 154.814 80.4734C155.149 81.6238 155.836 82.6422 156.78 83.3875L157.066 83.6138L156.09 85.7763L158.33 84.2706L158.552 84.3444C159.351 84.6109 160.199 84.7017 161.037 84.6106C161.875 84.5194 162.683 84.2485 163.405 83.8165C164.127 83.3845 164.745 82.8018 165.218 82.1088C165.691 81.4158 166.006 80.6291 166.142 79.8032C166.277 78.9772 166.231 78.1318 166.005 77.3256C165.779 76.5193 165.379 75.7714 164.833 75.1338C164.287 74.4962 163.608 73.9841 162.843 73.633C162.078 73.2819 161.245 73.1001 160.402 73.1003Z" fill="#3F3D56"/>
<path d="M160.402 79.4985C160.923 79.4985 161.345 79.0793 161.345 78.5622C161.345 78.0451 160.923 77.6259 160.402 77.6259C159.881 77.6259 159.458 78.0451 159.458 78.5622C159.458 79.0793 159.881 79.4985 160.402 79.4985Z" fill="#3F3D56"/>
<path d="M157.729 79.4985C158.25 79.4985 158.673 79.0793 158.673 78.5622C158.673 78.0451 158.25 77.6259 157.729 77.6259C157.209 77.6259 156.786 78.0451 156.786 78.5622C156.786 79.0793 157.209 79.4985 157.729 79.4985Z" fill="#3F3D56"/>
<path d="M163.074 79.4985C163.595 79.4985 164.017 79.0793 164.017 78.5622C164.017 78.0451 163.595 77.6259 163.074 77.6259C162.553 77.6259 162.131 78.0451 162.131 78.5622C162.131 79.0793 162.553 79.4985 163.074 79.4985Z" fill="#3F3D56"/>
</g>
<defs>
<clipPath id="clip0">
<rect width="233.138" height="200.842" fill="white" transform="translate(0.177124)"/>
</clipPath>
</defs>
</svg>
