<svg width="268" height="201" viewBox="0 0 268 201" fill="none" xmlns="http://www.w3.org/2000/svg">
<g clip-path="url(#clip0)">
<path d="M154.38 9.77503C156.672 14.6316 151.815 16.0073 146.252 18.6103C140.689 21.2134 136.525 24.0582 134.233 19.2016C131.941 14.345 130.082 4.70556 137.952 1.02306C146.093 -2.7863 152.088 4.91844 154.38 9.77503Z" fill="#2F2E41"/>
<path d="M143.029 19.326C147.165 19.326 150.518 15.9872 150.518 11.8686C150.518 7.74994 147.165 4.41113 143.029 4.41113C138.893 4.41113 135.54 7.74994 135.54 11.8686C135.54 15.9872 138.893 19.326 143.029 19.326Z" fill="#FFB8B8"/>
<path d="M180.133 44.9407C179.874 44.6037 179.614 44.2728 179.352 43.9509C179.014 43.5319 178.673 43.1261 178.331 42.7334C174.449 38.2731 170.32 35.4645 165.774 35.1639H165.768L165.7 35.1578L156.641 43.9509L153.561 46.9386L153.628 47.1026L155.29 51.2228H184.408C183.096 49.0547 181.669 46.9577 180.133 44.9407Z" fill="#2F2E41"/>
<path d="M134.885 14.8709L137.566 13.6165L137.192 9.76546L138.985 12.9524L140.267 12.3529L140.049 10.1064L141.094 11.9655L150.616 7.51045C149.721 5.61553 148.108 4.15194 146.13 3.44166C144.152 2.73138 141.972 2.8326 140.069 3.72303L138.689 4.36869C136.786 5.25913 135.316 6.86585 134.602 8.8354C133.889 10.8049 133.991 12.976 134.885 14.8709Z" fill="#2F2E41"/>
<path d="M196.934 150.236H40.5553C39.2214 150.234 37.9425 149.706 36.9993 148.767C36.0561 147.827 35.5255 146.554 35.524 145.226V51.6613C35.5251 50.6883 35.9138 49.7553 36.6048 49.0672C37.2958 48.3792 38.2327 47.9921 39.2099 47.991H198.216C199.21 47.9921 200.163 48.3858 200.866 49.0858C201.569 49.7858 201.964 50.7349 201.966 51.7248V145.226C201.964 146.554 201.433 147.827 200.49 148.767C199.547 149.706 198.268 150.234 196.934 150.236Z" fill="#F2F2F2"/>
<path d="M45.4342 145.226H192.055C193.349 145.226 194.59 144.714 195.505 143.803C196.42 142.892 196.934 141.656 196.934 140.368V60.9543C196.934 59.6658 196.42 58.4301 195.505 57.5191C194.59 56.608 193.349 56.0962 192.055 56.0962H45.4342C44.1402 56.0962 42.8993 56.608 41.9843 57.5191C41.0693 58.4301 40.5553 59.6658 40.5553 60.9543V140.368C40.5553 141.656 41.0693 142.892 41.9843 143.803C42.8993 144.714 44.1402 145.226 45.4342 145.226Z" fill="white"/>
<path d="M201.896 51.3748H35.4533V48.8242C35.4553 47.4915 35.988 46.214 36.9347 45.272C37.8813 44.33 39.1646 43.8003 40.503 43.7992H196.846C198.184 43.8003 199.468 44.33 200.414 45.272C201.361 46.214 201.894 47.4915 201.896 48.8242V51.3748Z" fill="#26A0C4"/>
<path d="M44.6303 48.8951C45.3516 48.8951 45.9364 48.3128 45.9364 47.5945C45.9364 46.8762 45.3516 46.2939 44.6303 46.2939C43.9089 46.2939 43.3241 46.8762 43.3241 47.5945C43.3241 48.3128 43.9089 48.8951 44.6303 48.8951Z" fill="white"/>
<path d="M49.5881 48.8951C50.3094 48.8951 50.8942 48.3128 50.8942 47.5945C50.8942 46.8762 50.3094 46.2939 49.5881 46.2939C48.8667 46.2939 48.2819 46.8762 48.2819 47.5945C48.2819 48.3128 48.8667 48.8951 49.5881 48.8951Z" fill="white"/>
<path d="M54.5458 48.8951C55.2672 48.8951 55.852 48.3128 55.852 47.5945C55.852 46.8762 55.2672 46.2939 54.5458 46.2939C53.8245 46.2939 53.2397 46.8762 53.2397 47.5945C53.2397 48.3128 53.8245 48.8951 54.5458 48.8951Z" fill="white"/>
<path d="M123.32 128.003H110.208C109.44 128.003 108.704 127.698 108.16 127.158C107.617 126.617 107.312 125.884 107.311 125.119V112.063C107.312 111.298 107.617 110.565 108.16 110.024C108.704 109.484 109.44 109.179 110.208 109.178H123.32C124.088 109.179 124.824 109.484 125.367 110.024C125.91 110.565 126.216 111.298 126.217 112.063V125.119C126.216 125.884 125.91 126.617 125.367 127.158C124.824 127.698 124.088 128.003 123.32 128.003ZM110.208 109.786C109.601 109.786 109.02 110.027 108.591 110.453C108.163 110.88 107.922 111.459 107.921 112.063V125.119C107.922 125.723 108.163 126.302 108.591 126.728C109.02 127.155 109.601 127.396 110.208 127.396H123.32C123.926 127.396 124.507 127.155 124.936 126.728C125.365 126.302 125.606 125.723 125.607 125.119V112.063C125.606 111.459 125.365 110.88 124.936 110.453C124.507 110.027 123.926 109.786 123.32 109.786H110.208Z" fill="#CCCCCC"/>
<path d="M120.728 124.36H112.8C112.557 124.36 112.325 124.264 112.153 124.093C111.982 123.922 111.885 123.691 111.885 123.449V113.733C111.885 113.491 111.982 113.26 112.153 113.089C112.325 112.918 112.557 112.822 112.8 112.822H118.544C118.753 112.822 118.955 112.893 119.117 113.023L121.301 114.77C121.408 114.855 121.494 114.963 121.553 115.086C121.612 115.209 121.643 115.344 121.643 115.48V123.449C121.642 123.691 121.546 123.922 121.374 124.093C121.203 124.264 120.97 124.36 120.728 124.36ZM112.8 113.429C112.719 113.429 112.641 113.461 112.584 113.518C112.527 113.575 112.495 113.652 112.495 113.733V123.449C112.495 123.53 112.527 123.607 112.584 123.664C112.641 123.721 112.719 123.753 112.8 123.753H120.728C120.809 123.753 120.886 123.721 120.943 123.664C121.001 123.607 121.033 123.53 121.033 123.449V115.48C121.033 115.435 121.023 115.39 121.003 115.349C120.983 115.308 120.955 115.272 120.919 115.243L118.735 113.496C118.681 113.453 118.614 113.429 118.544 113.429H112.8Z" fill="#CCCCCC"/>
<path d="M119.203 117.072H114.324C114.243 117.072 114.166 117.04 114.109 116.983C114.052 116.926 114.019 116.849 114.019 116.769C114.019 116.688 114.052 116.611 114.109 116.554C114.166 116.498 114.243 116.466 114.324 116.466H119.203C119.284 116.466 119.362 116.498 119.419 116.554C119.476 116.611 119.508 116.688 119.508 116.769C119.508 116.849 119.476 116.926 119.419 116.983C119.362 117.04 119.284 117.072 119.203 117.072Z" fill="#CCCCCC"/>
<path d="M119.203 118.894H114.324C114.243 118.894 114.166 118.862 114.109 118.805C114.052 118.748 114.019 118.671 114.019 118.591C114.019 118.51 114.052 118.433 114.109 118.376C114.166 118.319 114.243 118.287 114.324 118.287H119.203C119.284 118.287 119.362 118.319 119.419 118.376C119.476 118.433 119.508 118.51 119.508 118.591C119.508 118.671 119.476 118.748 119.419 118.805C119.362 118.862 119.284 118.894 119.203 118.894Z" fill="#CCCCCC"/>
<path d="M119.203 120.716H114.324C114.243 120.716 114.166 120.684 114.109 120.627C114.052 120.57 114.019 120.493 114.019 120.412C114.019 120.332 114.052 120.255 114.109 120.198C114.166 120.141 114.243 120.109 114.324 120.109H119.203C119.284 120.109 119.362 120.141 119.419 120.198C119.476 120.255 119.508 120.332 119.508 120.412C119.508 120.493 119.476 120.57 119.419 120.627C119.362 120.684 119.284 120.716 119.203 120.716Z" fill="#CCCCCC"/>
<path d="M154.422 128.003H141.311C140.543 128.003 139.806 127.698 139.263 127.158C138.72 126.617 138.415 125.884 138.414 125.119V112.063C138.415 111.298 138.72 110.565 139.263 110.024C139.806 109.484 140.543 109.179 141.311 109.178H154.422C155.19 109.179 155.927 109.484 156.47 110.024C157.013 110.565 157.318 111.298 157.319 112.063V125.119C157.318 125.884 157.013 126.617 156.47 127.158C155.927 127.698 155.19 128.003 154.422 128.003ZM141.311 109.786C140.704 109.786 140.123 110.027 139.694 110.453C139.265 110.88 139.024 111.459 139.024 112.063V125.119C139.024 125.723 139.265 126.302 139.694 126.728C140.123 127.155 140.704 127.396 141.311 127.396H154.422C155.029 127.396 155.61 127.155 156.039 126.728C156.468 126.302 156.709 125.723 156.709 125.119V112.063C156.709 111.459 156.468 110.88 156.039 110.453C155.61 110.027 155.029 109.786 154.422 109.786H141.311Z" fill="#CCCCCC"/>
<path d="M152.135 121.931H143.597C143.355 121.931 143.122 121.835 142.951 121.664C142.779 121.493 142.683 121.261 142.683 121.02V116.162C142.683 115.92 142.779 115.689 142.951 115.518C143.122 115.347 143.355 115.251 143.597 115.251H152.135C152.378 115.251 152.611 115.347 152.782 115.518C152.954 115.689 153.05 115.92 153.05 116.162V121.02C153.05 121.261 152.954 121.493 152.782 121.664C152.611 121.835 152.378 121.931 152.135 121.931ZM143.597 115.858C143.517 115.858 143.439 115.89 143.382 115.947C143.325 116.004 143.293 116.081 143.293 116.162V121.02C143.293 121.1 143.325 121.178 143.382 121.235C143.439 121.292 143.517 121.324 143.597 121.324H152.135C152.216 121.324 152.294 121.292 152.351 121.235C152.408 121.178 152.44 121.1 152.44 121.02V116.162C152.44 116.081 152.408 116.004 152.351 115.947C152.294 115.89 152.216 115.858 152.135 115.858H143.597Z" fill="#CCCCCC"/>
<path d="M147.866 119.392C147.695 119.392 147.527 119.345 147.382 119.255L142.826 116.42C142.758 116.377 142.709 116.309 142.691 116.23C142.673 116.152 142.687 116.07 142.73 116.001C142.772 115.933 142.841 115.885 142.919 115.866C142.998 115.848 143.081 115.862 143.149 115.905L147.705 118.74C147.754 118.77 147.81 118.785 147.867 118.785C147.924 118.785 147.98 118.77 148.028 118.74L152.584 115.905C152.652 115.862 152.735 115.848 152.814 115.866C152.892 115.885 152.961 115.933 153.003 116.001C153.046 116.07 153.06 116.152 153.042 116.23C153.024 116.309 152.975 116.377 152.907 116.42L148.352 119.255C148.206 119.345 148.038 119.392 147.866 119.392Z" fill="#CCCCCC"/>
<path d="M92.217 128.003H79.1051C78.3371 128.003 77.6008 127.698 77.0577 127.158C76.5147 126.617 76.2092 125.884 76.2083 125.119V112.063C76.2092 111.298 76.5147 110.565 77.0577 110.024C77.6008 109.484 78.3371 109.179 79.1051 109.178H92.217C92.9851 109.179 93.7214 109.484 94.2644 110.024C94.8075 110.565 95.113 111.298 95.1139 112.063V125.119C95.113 125.884 94.8075 126.617 94.2644 127.158C93.7214 127.698 92.9851 128.003 92.217 128.003ZM79.1051 109.786C78.4988 109.786 77.9175 110.027 77.4888 110.453C77.06 110.88 76.8188 111.459 76.8182 112.063V125.119C76.8188 125.723 77.06 126.302 77.4888 126.728C77.9175 127.155 78.4988 127.396 79.1051 127.396H92.217C92.8234 127.396 93.4047 127.155 93.8334 126.728C94.2622 126.302 94.5033 125.723 94.504 125.119V112.063C94.5033 111.459 94.2622 110.88 93.8334 110.453C93.4047 110.027 92.8234 109.786 92.217 109.786H79.1051Z" fill="#CCCCCC"/>
<path d="M89.9301 121.931H81.3921C81.1496 121.931 80.917 121.835 80.7455 121.664C80.574 121.493 80.4776 121.261 80.4773 121.02V116.162C80.4776 115.92 80.574 115.689 80.7455 115.518C80.917 115.347 81.1496 115.251 81.3921 115.251H89.9301C90.1726 115.251 90.4051 115.347 90.5766 115.518C90.7481 115.689 90.8446 115.92 90.8449 116.162V121.02C90.8446 121.261 90.7481 121.493 90.5766 121.664C90.4051 121.835 90.1726 121.931 89.9301 121.931ZM81.3921 115.858C81.3112 115.858 81.2337 115.89 81.1766 115.947C81.1194 116.004 81.0872 116.081 81.0872 116.162V121.02C81.0872 121.1 81.1194 121.178 81.1766 121.235C81.2337 121.292 81.3112 121.324 81.3921 121.324H89.9301C90.0109 121.324 90.0884 121.292 90.1456 121.235C90.2028 121.178 90.2349 121.1 90.235 121.02V116.162C90.2349 116.081 90.2028 116.004 90.1456 115.947C90.0884 115.89 90.0109 115.858 89.9301 115.858H81.3921Z" fill="#CCCCCC"/>
<path d="M88.5768 121.931H82.4404C82.3334 121.931 82.2282 121.903 82.1355 121.85C82.0427 121.796 81.9657 121.72 81.9122 121.627C81.8587 121.535 81.8305 121.43 81.8305 121.324C81.8305 121.217 81.8588 121.112 81.9123 121.02L83.7606 117.832C83.8142 117.74 83.8912 117.663 83.9839 117.61C84.0766 117.556 84.1818 117.528 84.2888 117.528C84.3959 117.528 84.5011 117.556 84.5938 117.61C84.6865 117.663 84.7635 117.74 84.817 117.832L86.0108 119.891L86.7024 118.698C86.756 118.606 86.8329 118.529 86.9257 118.476C87.0184 118.422 87.1236 118.394 87.2306 118.394C87.3377 118.394 87.4428 118.422 87.5356 118.476C87.6283 118.529 87.7053 118.606 87.7588 118.698L89.1051 121.02C89.1586 121.112 89.1868 121.217 89.1868 121.324C89.1868 121.43 89.1586 121.535 89.105 121.627C89.0515 121.72 88.9745 121.796 88.8818 121.85C88.789 121.903 88.6839 121.931 88.5768 121.931H88.5768ZM88.5768 121.324L87.2306 119.002L86.275 120.65C86.2482 120.696 86.2097 120.735 86.1633 120.761C86.117 120.788 86.0644 120.802 86.0108 120.802C85.9573 120.802 85.9047 120.788 85.8583 120.761C85.812 120.735 85.7735 120.696 85.7467 120.65L84.2889 118.136L82.4404 121.324H88.5768Z" fill="#CCCCCC"/>
<path d="M89.0153 117.68C89.3521 117.68 89.6252 117.408 89.6252 117.073C89.6252 116.737 89.3521 116.466 89.0153 116.466C88.6785 116.466 88.4054 116.737 88.4054 117.073C88.4054 117.408 88.6785 117.68 89.0153 117.68Z" fill="#CCCCCC"/>
<path d="M234.837 196.797L231.098 196.797L229.32 182.439L234.837 182.439L234.837 196.797Z" fill="#FFB8B8"/>
<path d="M235.79 200.405L223.736 200.405V200.253C223.736 199.639 223.857 199.032 224.093 198.465C224.329 197.898 224.674 197.383 225.11 196.95C225.546 196.516 226.063 196.172 226.632 195.937C227.201 195.702 227.811 195.581 228.428 195.581H228.428L235.79 195.582L235.79 200.405Z" fill="#2F2E41"/>
<path d="M250.083 196.797L246.344 196.797L244.566 182.439L250.084 182.439L250.083 196.797Z" fill="#FFB8B8"/>
<path d="M251.036 200.405L238.982 200.405V200.253C238.982 199.639 239.104 199.032 239.339 198.465C239.575 197.898 239.921 197.383 240.356 196.95C240.792 196.516 241.309 196.172 241.879 195.937C242.448 195.702 243.058 195.581 243.674 195.581H243.674L251.037 195.582L251.036 200.405Z" fill="#2F2E41"/>
<path d="M248.962 190.573L245.5 189.524C245.242 189.446 245.013 189.294 244.841 189.087C244.669 188.88 244.563 188.627 244.535 188.36L241.307 157.898C241.304 157.861 241.288 157.827 241.261 157.802C241.234 157.776 241.198 157.762 241.161 157.762C241.124 157.759 241.087 157.77 241.058 157.793C241.029 157.816 241.01 157.85 241.005 157.887L235.598 187.399C235.566 187.578 235.497 187.749 235.397 187.901C235.297 188.054 235.168 188.185 235.016 188.286C234.864 188.388 234.694 188.459 234.515 188.494C234.335 188.529 234.151 188.529 233.972 188.492L229.547 187.584C229.222 187.517 228.933 187.335 228.732 187.072C228.532 186.809 228.433 186.483 228.455 186.154L231.743 137.782L254.045 135.386L250.731 189.349C250.71 189.696 250.556 190.021 250.302 190.26C250.048 190.498 249.713 190.631 249.364 190.632C249.228 190.632 249.092 190.612 248.962 190.573Z" fill="#2F2E41"/>
<path d="M248.941 95.6575C253.077 95.6575 256.43 92.3187 256.43 88.2001C256.43 84.0815 253.077 80.7427 248.941 80.7427C244.805 80.7427 241.452 84.0815 241.452 88.2001C241.452 92.3187 244.805 95.6575 248.941 95.6575Z" fill="#FFB8B8"/>
<path d="M231.709 138.066L236.545 107.748C236.802 106.136 237.401 104.597 238.302 103.234C239.202 101.87 240.385 100.713 241.77 99.8403C243.154 98.9671 244.71 98.3975 246.333 98.1696C247.956 97.9416 249.609 98.0604 251.183 98.5181C253.934 99.3104 256.289 101.095 257.789 103.524C259.289 105.953 259.826 108.852 259.294 111.654L254.235 138.729L231.709 138.066Z" fill="#26A0C4"/>
<path d="M251.009 143.49C251.383 143.244 251.698 142.92 251.933 142.539C252.167 142.159 252.315 141.732 252.366 141.288C252.416 140.845 252.369 140.396 252.226 139.973C252.084 139.549 251.85 139.162 251.541 138.839L256.541 129.198L250.911 129.797L247.026 138.86C246.515 139.412 246.225 140.133 246.211 140.884C246.197 141.635 246.461 142.366 246.952 142.936C247.443 143.507 248.127 143.879 248.874 143.981C249.622 144.083 250.382 143.909 251.009 143.49V143.49Z" fill="#FFB8B8"/>
<path d="M252.079 137.138C251.803 137.1 251.545 136.978 251.339 136.789L249.426 135.029C249.22 134.838 249.077 134.588 249.017 134.314C248.958 134.039 248.984 133.753 249.093 133.494L252.917 124.471L252.374 106.642C252.452 106.069 252.643 105.517 252.935 105.017C253.228 104.517 253.616 104.08 254.078 103.73C254.541 103.379 255.068 103.123 255.629 102.976C256.191 102.829 256.776 102.794 257.352 102.872C257.928 102.95 258.482 103.14 258.983 103.432C259.485 103.723 259.924 104.111 260.275 104.571C260.626 105.032 260.883 105.557 261.03 106.116C261.178 106.676 261.213 107.259 261.134 107.832L262.061 119.039C262.343 122.441 261.375 125.829 259.336 128.572L253.374 136.598C253.259 136.752 253.113 136.881 252.945 136.975C252.777 137.069 252.591 137.128 252.4 137.146C252.293 137.156 252.185 137.153 252.079 137.138Z" fill="#26A0C4"/>
<path d="M205.812 84.1372C205.894 84.5761 206.071 84.9918 206.331 85.3551C206.592 85.7184 206.929 86.0205 207.32 86.2399C207.71 86.4594 208.144 86.591 208.591 86.6254C209.038 86.6599 209.487 86.5963 209.906 86.4392L216.873 94.7824L218.515 89.3864L211.648 82.2908C211.336 81.6064 210.783 81.0597 210.093 80.7541C209.404 80.4486 208.626 80.4056 207.906 80.6332C207.187 80.8607 206.577 81.3431 206.191 81.989C205.805 82.6348 205.67 83.3991 205.812 84.1372Z" fill="#FFB8B8"/>
<path d="M211.269 87.5955C211.413 87.357 211.626 87.1679 211.881 87.0533L214.254 85.9855C214.512 85.8705 214.798 85.8369 215.075 85.8893C215.352 85.9417 215.606 86.0776 215.803 86.2785L222.657 93.3021L239.357 99.7562C239.857 100.051 240.294 100.441 240.642 100.904C240.99 101.367 241.243 101.894 241.387 102.454C241.531 103.015 241.562 103.598 241.479 104.171C241.396 104.743 241.201 105.294 240.904 105.791C240.607 106.288 240.215 106.723 239.75 107.069C239.284 107.415 238.755 107.667 238.192 107.809C237.629 107.951 237.043 107.982 236.468 107.899C235.893 107.816 235.341 107.62 234.842 107.324L224.115 103.805C220.86 102.737 218.104 100.528 216.362 97.5891L211.264 88.9932C211.166 88.8279 211.104 88.6439 211.083 88.4532C211.061 88.2625 211.079 88.0693 211.138 87.8863C211.17 87.7845 211.214 87.6869 211.269 87.5955Z" fill="#26A0C4"/>
<path opacity="0.1" d="M255.016 114.059L254.711 123.775L249.093 133.494L253.784 122.663L255.016 114.059Z" fill="black"/>
<path d="M248.083 89.6017C247.613 89.6626 247.136 89.5514 246.742 89.2888C246.347 89.0263 246.062 88.6301 245.939 88.174C245.82 87.649 245.56 87.1661 245.187 86.777C244.814 86.388 244.341 86.1074 243.82 85.9655C242.446 85.6529 240.767 86.2969 239.76 85.2604C239.545 85.0238 239.389 84.7396 239.305 84.4311C239.222 84.1227 239.213 83.7989 239.28 83.4865C239.465 82.4793 240.189 81.7184 240.976 81.1098C242.633 79.8351 244.638 79.0889 246.729 78.9691C247.811 78.9379 248.894 78.9915 249.967 79.1295C251.092 79.2001 252.204 79.4025 253.28 79.7323C254.507 80.1932 255.597 80.9545 256.449 81.9458C257.302 82.9372 257.89 84.1266 258.159 85.4042C258.406 86.6857 258.368 88.0052 258.049 89.2706C257.73 90.5361 257.137 91.717 256.312 92.7308C255.325 93.955 254.052 94.9201 252.604 95.5421C252.26 95.7042 251.864 95.7241 251.505 95.5976C250.603 95.2406 250.75 94.1283 251.161 93.3864C251.602 92.5925 252.279 91.8238 251.925 90.8576C251.747 90.4096 251.407 90.0446 250.971 89.8355C250.075 89.3803 249.072 89.488 248.108 89.5988L248.083 89.6017Z" fill="#2F2E41"/>
<path d="M203.309 93.813H110.611C109.277 93.8115 107.998 93.2832 107.055 92.344C106.112 91.4048 105.581 90.1314 105.58 88.8031V69.0672C105.581 67.739 106.112 66.4656 107.055 65.5264C107.998 64.5872 109.277 64.0589 110.611 64.0574H203.309C204.643 64.0589 205.922 64.5872 206.865 65.5264C207.809 66.4656 208.339 67.739 208.341 69.0672V88.8031C208.339 90.1313 207.809 91.4047 206.865 92.3439C205.922 93.2831 204.643 93.8115 203.309 93.813Z" fill="white"/>
<path d="M203.309 93.9648H110.611C109.237 93.9632 107.919 93.4189 106.947 92.4513C105.976 91.4836 105.429 90.1716 105.427 88.8031V69.0672C105.429 67.6987 105.976 66.3867 106.947 65.419C107.919 64.4514 109.237 63.9071 110.611 63.9055H203.309C204.684 63.9071 206.001 64.4514 206.973 65.419C207.945 66.3867 208.492 67.6987 208.493 69.0672V88.8031C208.492 90.1716 207.945 91.4836 206.973 92.4513C206.001 93.4189 204.684 93.9632 203.309 93.9648ZM110.611 64.5128C109.399 64.5141 108.236 64.9944 107.378 65.8483C106.521 66.7021 106.039 67.8597 106.037 69.0672V88.8031C106.039 90.0106 106.521 91.1682 107.378 92.0221C108.236 92.8759 109.399 93.3562 110.611 93.3575H203.309C204.522 93.3562 205.685 92.8759 206.542 92.0221C207.4 91.1682 207.882 90.0106 207.883 88.8031V69.0672C207.882 67.8597 207.4 66.7021 206.542 65.8483C205.685 64.9944 204.522 64.5141 203.309 64.5128H110.611Z" fill="#3F3D56"/>
<path d="M192.027 88.9549H121.894C120.56 88.9534 119.281 88.4251 118.338 87.4859C117.394 86.5467 116.864 85.2733 116.862 83.9451V73.6217C116.864 72.2934 117.394 71.02 118.338 70.0808C119.281 69.1416 120.56 68.6133 121.894 68.6118H192.027C193.361 68.6133 194.64 69.1416 195.583 70.0808C196.526 71.02 197.057 72.2934 197.058 73.6217V83.9451C197.057 85.2733 196.526 86.5467 195.583 87.4859C194.64 88.4251 193.361 88.9534 192.027 88.9549Z" fill="#F2F2F2"/>
<path d="M136.986 83.3908C140.309 83.3908 143.003 80.7084 143.003 77.3995C143.003 74.0906 140.309 71.4082 136.986 71.4082C133.663 71.4082 130.969 74.0906 130.969 77.3995C130.969 80.7084 133.663 83.3908 136.986 83.3908Z" fill="#FF6584"/>
<path d="M187.669 88.3502L179.176 81.2575L170.829 74.2873C170.609 74.1034 170.331 74.0028 170.043 74.0034C169.756 74.0039 169.478 74.1056 169.258 74.2904L160.939 81.2925L158.907 83.003L155.843 80.4442L146.531 72.668C146.311 72.4841 146.032 72.3835 145.745 72.384C145.457 72.3846 145.179 72.4862 144.96 72.671L135.678 80.4829L126.251 88.4177C126.203 88.4579 126.169 88.5118 126.153 88.572C126.137 88.6322 126.14 88.6958 126.162 88.7543C126.183 88.8127 126.222 88.8632 126.273 88.8988C126.325 88.9344 126.386 88.9534 126.448 88.9532L145.777 88.9162L151.895 88.9044L151.835 88.9548L170.072 88.9198L187.473 88.8865C187.536 88.8864 187.597 88.8671 187.648 88.8313C187.699 88.7955 187.738 88.7449 187.759 88.6864C187.781 88.6278 187.783 88.5642 187.767 88.5041C187.751 88.4439 187.717 88.3902 187.669 88.3502Z" fill="#3F3D56"/>
<path d="M267.295 200.841H208.749C208.668 200.841 208.59 200.809 208.533 200.753C208.476 200.696 208.444 200.619 208.444 200.538C208.444 200.458 208.476 200.381 208.533 200.324C208.59 200.267 208.668 200.235 208.749 200.235H267.295C267.376 200.235 267.454 200.267 267.511 200.324C267.568 200.381 267.6 200.458 267.6 200.538C267.6 200.619 267.568 200.696 267.511 200.753C267.454 200.809 267.376 200.841 267.295 200.841Z" fill="#CCCCCC"/>
<path d="M184.594 40.0524C184.35 39.6583 184.029 39.3178 183.649 39.0515C183.268 38.7853 182.838 38.599 182.383 38.5039C182.216 38.469 182.047 38.4477 181.877 38.4401L158.644 17.7569C158.188 17.2899 157.579 17.0003 156.928 16.9402C156.799 16.9254 156.67 16.9214 156.54 16.928C156.004 16.9523 155.487 17.1315 155.052 17.4438C154.616 17.7562 154.282 18.1881 154.089 18.6867C153.896 19.1853 153.854 19.729 153.966 20.2514C154.079 20.7738 154.342 21.2522 154.723 21.6282L163.618 29.3495L178.224 42.026C178.236 42.2647 178.272 42.5017 178.331 42.7334C178.505 43.4047 178.881 44.0072 179.408 44.4611C179.934 44.915 180.587 45.1987 181.279 45.2748C181.911 45.3482 182.55 45.243 183.124 44.9712C183.579 44.7592 183.983 44.4515 184.307 44.0694C184.341 44.0299 184.371 43.9935 184.402 43.951C184.828 43.3977 185.075 42.7281 185.109 42.0315C185.144 41.335 184.964 40.6445 184.594 40.0524H184.594Z" fill="#FFB8B8"/>
<path d="M144.856 59.9855L144.639 51.2228L144.456 43.9509L144.331 38.8621L144.084 28.9425C144.035 28.4114 143.832 27.906 143.5 27.4879C143.167 27.0698 142.72 26.7572 142.212 26.5881C141.704 26.4191 141.157 26.401 140.639 26.536C140.121 26.671 139.653 26.9534 139.294 27.3485C139.209 27.4388 139.132 27.5363 139.065 27.64C138.69 28.1754 138.521 28.8276 138.589 29.4769L139.132 43.9509L139.404 51.2228L139.751 60.4987C139.651 60.635 139.56 60.778 139.48 60.9268C139.263 61.3362 139.132 61.7853 139.095 62.2467C139.057 62.7081 139.115 63.1722 139.263 63.6109C139.418 64.0709 139.669 64.493 140 64.8494C140.33 65.2058 140.733 65.4884 141.181 65.6786C141.63 65.8688 142.113 65.9623 142.601 65.9528C143.088 65.9434 143.567 65.8313 144.008 65.6239C144.519 65.383 144.964 65.0204 145.301 64.568C145.639 64.1156 145.859 63.5874 145.943 63.03C146.027 62.4727 145.971 61.9034 145.782 61.3724C145.592 60.8414 145.274 60.3651 144.856 59.9855H144.856Z" fill="#FFB8B8"/>
<path d="M165.774 35.1639L163.618 29.3494L160.129 19.9308C159.878 19.2455 159.474 18.6255 158.949 18.1167C158.424 17.6078 157.79 17.2233 157.095 16.9917C157.041 16.9735 156.983 16.9552 156.928 16.94C156.255 16.7366 155.545 16.6807 154.848 16.776C154.151 16.8714 153.484 17.1159 152.891 17.4927L141.142 24.9133C140.066 25.5914 139.296 26.6594 138.997 27.8916C138.697 29.1239 138.89 30.424 139.535 31.5173C141.004 34.047 142.605 36.4986 144.331 38.862C145.7 40.7172 148.249 40.9146 148.692 43.9509H157.355L166.124 36.1112L165.774 35.1639Z" fill="#CCCCCC"/>
<path d="M31.248 106.226C35.1503 106.226 38.3137 103.076 38.3137 99.1901C38.3137 95.3045 35.1503 92.1545 31.248 92.1545C27.3457 92.1545 24.1823 95.3045 24.1823 99.1901C24.1823 103.076 27.3457 106.226 31.248 106.226Z" fill="#A0616A"/>
<path d="M48.5943 94.3471C48.6639 94.4023 48.7314 94.4608 48.7968 94.5226C49.1214 94.8271 49.3777 95.1964 49.5489 95.6064C49.7202 96.0164 49.8025 96.4577 49.7905 96.9016C49.7785 97.3455 49.6724 97.7818 49.4793 98.182C49.2861 98.5822 49.0102 98.9373 48.6696 99.2239C48.5902 99.2902 48.5074 99.3524 48.4215 99.4101L48.8996 115.486C48.9133 116.012 48.7561 116.529 48.4515 116.959C48.1469 117.389 47.7111 117.71 47.2088 117.874L47.1797 117.881L34.0712 119.271C33.7148 119.308 33.3545 119.275 33.011 119.174C32.6674 119.072 32.3475 118.904 32.0698 118.678C31.792 118.453 31.5618 118.174 31.3925 117.86C31.2233 117.545 31.1183 117.201 31.0836 116.845C31.0489 116.49 31.0852 116.132 31.1905 115.791C31.2957 115.449 31.4678 115.132 31.6967 114.858C31.9257 114.583 32.207 114.357 32.5244 114.191C32.8418 114.025 33.1891 113.924 33.5461 113.892L42.8904 113.073L44.5064 99.1514C44.4007 99.0582 44.3017 98.9578 44.2101 98.8508C43.7035 98.2537 43.4377 97.4904 43.4645 96.7091C43.4913 95.9279 43.8087 95.1844 44.3551 94.6231C44.9015 94.0618 45.638 93.7228 46.4213 93.6718C47.2047 93.6208 47.9792 93.8615 48.5943 94.3471H48.5943Z" fill="#A0616A"/>
<path d="M42.8851 197.108H46.4122L48.0899 183.562H42.8844L42.8851 197.108Z" fill="#A0616A"/>
<path d="M41.9856 195.961L48.9313 195.961H48.9315C49.5128 195.961 50.0884 196.075 50.6254 196.296C51.1625 196.518 51.6504 196.843 52.0615 197.252C52.4725 197.661 52.7985 198.147 53.021 198.682C53.2434 199.216 53.3579 199.79 53.3579 200.368V200.512L41.9858 200.512L41.9856 195.961Z" fill="#2F2E41"/>
<path d="M7.82992 192.252L10.8603 194.049L19.262 183.265L14.7893 180.613L7.82992 192.252Z" fill="#A0616A"/>
<path d="M7.64602 190.809L13.614 194.347L13.6142 194.347C14.1136 194.643 14.5496 195.034 14.8973 195.498C15.2449 195.962 15.4973 196.49 15.6402 197.051C15.7831 197.612 15.8136 198.195 15.73 198.768C15.6463 199.341 15.4502 199.892 15.1528 200.389L15.0792 200.512L5.30795 194.719L7.64602 190.809Z" fill="#2F2E41"/>
<path d="M47.2443 192.323H43.295C42.9752 192.324 42.6666 192.206 42.4288 191.993C42.191 191.781 42.041 191.487 42.0077 191.171L38.0262 153.904C38.0162 153.81 37.9754 153.722 37.9102 153.654C37.845 153.585 37.759 153.54 37.6655 153.525C37.5719 153.51 37.476 153.527 37.3926 153.571C37.3092 153.616 37.2428 153.687 37.2038 153.773L30.0211 169.61L17.3045 190.257C17.1399 190.522 16.8851 190.719 16.5867 190.811C16.2882 190.904 15.9662 190.887 15.6795 190.763L10.5994 188.537C10.4314 188.464 10.2811 188.355 10.1583 188.219C10.0356 188.083 9.94328 187.923 9.88749 187.749C9.83171 187.575 9.81373 187.391 9.83474 187.209C9.85576 187.028 9.91529 186.853 10.0094 186.696L21.6995 167.205L25.2847 150.784C24.1571 143.662 28.9911 133.074 29.0401 132.968L29.0641 132.916L42.3795 127.734L42.4463 127.815C47.6975 144.974 50.8974 163.441 48.5347 191.142C48.5056 191.464 48.3573 191.763 48.1187 191.981C47.8801 192.2 47.5684 192.322 47.2443 192.323Z" fill="#2F2E41"/>
<path d="M28.5276 134.651L28.4656 134.521C28.4359 134.459 25.4752 128.241 23.1928 121.595C22.7541 120.31 22.5883 118.948 22.7058 117.596C22.8233 116.244 23.2216 114.931 23.8754 113.74C24.5377 112.536 25.4437 111.483 26.5362 110.646C27.6286 109.81 28.8836 109.209 30.2217 108.88C32.5447 108.326 34.9903 108.621 37.1131 109.711C39.2359 110.802 40.8946 112.616 41.787 114.822C43.5974 119.33 43.0204 124.142 42.4774 127.926L42.4666 128.002L42.3973 128.035L28.5276 134.651Z" fill="#3F3D56"/>
<path d="M39.8149 95.216H28.5954V90.3462C31.058 89.3721 33.4677 88.5436 34.9244 90.3462C36.2214 90.3462 37.4653 90.8593 38.3825 91.7725C39.2996 92.6858 39.8149 93.9244 39.8149 95.2159V95.216Z" fill="#2F2E41"/>
<path d="M27.9743 89.4868C21.2671 89.4868 19.3897 97.8582 19.3897 102.581C19.3897 105.215 20.586 106.157 22.4657 106.476L23.1296 102.95L24.6844 106.627C25.2124 106.63 25.7671 106.62 26.3422 106.609L26.8694 105.528L28.045 106.59C32.7533 106.597 36.5588 107.28 36.5588 102.581C36.5588 97.8582 34.9123 89.4868 27.9743 89.4868Z" fill="#2F2E41"/>
<path d="M59.2512 200.841H0.704953C0.624081 200.841 0.546521 200.809 0.489336 200.753C0.43215 200.696 0.400024 200.619 0.400024 200.538C0.400024 200.458 0.43215 200.381 0.489336 200.324C0.546521 200.267 0.624081 200.235 0.704953 200.235H59.2512C59.3321 200.235 59.4096 200.267 59.4668 200.324C59.524 200.381 59.5561 200.458 59.5561 200.538C59.5561 200.619 59.524 200.696 59.4668 200.753C59.4096 200.809 59.3321 200.841 59.2512 200.841Z" fill="#CCCCCC"/>
<path d="M60.352 100.948H47.2401C46.4721 100.947 45.7358 100.643 45.1927 100.102C44.6497 99.5617 44.3442 98.8286 44.3433 98.0638V85.0078C44.3442 84.243 44.6497 83.5098 45.1927 82.9691C45.7358 82.4283 46.4721 82.1242 47.2401 82.1233H60.352C61.12 82.1242 61.8564 82.4283 62.3994 82.9691C62.9425 83.5098 63.248 84.243 63.2488 85.0078V98.0638C63.248 98.8286 62.9425 99.5617 62.3994 100.102C61.8564 100.643 61.12 100.947 60.352 100.948Z" fill="white"/>
<path d="M60.352 100.948H47.2401C46.4721 100.947 45.7358 100.643 45.1927 100.102C44.6497 99.5617 44.3442 98.8286 44.3433 98.0638V85.0078C44.3442 84.243 44.6497 83.5098 45.1927 82.9691C45.7358 82.4283 46.4721 82.1242 47.2401 82.1233H60.352C61.12 82.1242 61.8564 82.4283 62.3994 82.9691C62.9425 83.5098 63.248 84.243 63.2488 85.0078V98.0638C63.248 98.8286 62.9425 99.5617 62.3994 100.102C61.8564 100.643 61.12 100.947 60.352 100.948ZM47.2401 82.7305C46.6338 82.7312 46.0525 82.9714 45.6237 83.3983C45.195 83.8252 44.9538 84.404 44.9532 85.0078V98.0638C44.9538 98.6676 45.195 99.2464 45.6237 99.6733C46.0525 100.1 46.6338 100.34 47.2401 100.341H60.352C60.9584 100.34 61.5397 100.1 61.9684 99.6733C62.3972 99.2464 62.6383 98.6676 62.639 98.0638V85.0078C62.6383 84.404 62.3972 83.8252 61.9684 83.3983C61.5397 82.9714 60.9584 82.7312 60.352 82.7305H47.2401Z" fill="#3F3D56"/>
<path d="M58.0651 95.6347H49.5271C49.2845 95.6345 49.052 95.5384 48.8805 95.3677C48.709 95.1969 48.6126 94.9654 48.6123 94.7239V88.3477C48.6126 88.1062 48.709 87.8746 48.8805 87.7039C49.052 87.5331 49.2845 87.437 49.5271 87.4368H51.9306C52.087 87.4362 52.2408 87.4758 52.3773 87.5517C52.5138 87.6276 52.6283 87.7373 52.7098 87.8701L53.3801 88.9549H58.0651C58.3076 88.9552 58.5401 89.0512 58.7116 89.222C58.8831 89.3928 58.9796 89.6243 58.9799 89.8658V94.7239C58.9796 94.9654 58.8831 95.1969 58.7116 95.3677C58.5401 95.5384 58.3076 95.6345 58.0651 95.6347Z" fill="#26A0C4"/>
<path d="M57.7874 98.856C57.83 98.9338 57.8694 99.0138 57.9056 99.096C58.0861 99.502 58.1784 99.9414 58.1765 100.385C58.1745 100.829 58.0784 101.268 57.8943 101.673C57.7103 102.077 57.4425 102.438 57.1085 102.732C56.7745 103.027 56.3819 103.247 55.9563 103.38C55.8572 103.41 55.7567 103.436 55.655 103.456L49.831 118.456C49.6385 118.947 49.2923 119.362 48.8439 119.641C48.3955 119.92 47.8688 120.047 47.3418 120.004L47.3126 119.999L34.6895 116.215C34.3463 116.112 34.027 115.943 33.75 115.716C33.473 115.49 33.2438 115.211 33.0756 114.896C32.9074 114.58 32.8036 114.235 32.7702 113.88C32.7368 113.525 32.7744 113.166 32.8809 112.825C32.9873 112.485 33.1605 112.168 33.3905 111.894C33.6204 111.621 33.9026 111.395 34.2206 111.23C34.5387 111.066 34.8863 110.966 35.2434 110.936C35.6006 110.906 35.9602 110.946 36.3014 111.055L45.2329 113.911L52.1475 101.704C52.0864 101.578 52.0343 101.447 51.9916 101.313C51.7574 100.567 51.81 99.7606 52.1391 99.0509C52.4683 98.3412 53.0506 97.7787 53.7729 97.4725C54.4952 97.1664 55.306 97.1384 56.0478 97.394C56.7897 97.6497 57.4097 98.1708 57.7874 98.856H57.7874Z" fill="#A0616A"/>
</g>
<defs>
<clipPath id="clip0">
<rect width="267.2" height="200.842" fill="white" transform="translate(0.400024)"/>
</clipPath>
</defs>
</svg>
