<svg width="268" height="153" viewBox="0 0 268 153" fill="none" xmlns="http://www.w3.org/2000/svg">
<g clip-path="url(#clip0)">
<path d="M57.8948 135.291C65.5694 135.291 71.7908 129.115 71.7908 121.496C71.7908 113.877 65.5694 107.701 57.8948 107.701C50.2203 107.701 43.9989 113.877 43.9989 121.496C43.9989 129.115 50.2203 135.291 57.8948 135.291Z" fill="#F2F2F2"/>
<path d="M60.1544 133.273C67.8289 133.273 74.0503 127.096 74.0503 119.477C74.0503 111.859 67.8289 105.682 60.1544 105.682C52.4799 105.682 46.2584 111.859 46.2584 119.477C46.2584 127.096 52.4799 133.273 60.1544 133.273Z" fill="#14AFDD"/>
<path d="M243.275 104.213H71.3454V104.679H243.275V104.213Z" fill="#3F3D56"/>
<path d="M160.388 4.34338H99.3636V3.09473H71.6927V4.34338H10.4167C9.87457 4.34338 9.3378 4.44937 8.83699 4.65531C8.33618 4.86125 7.88113 5.1631 7.49782 5.54363C7.11451 5.92416 6.81046 6.37591 6.60302 6.87309C6.39557 7.37028 6.2888 7.90315 6.2888 8.4413V91.3969C6.2888 92.4837 6.7237 93.526 7.49782 94.2945C8.27194 95.0631 9.32188 95.4948 10.4167 95.4948H160.388C161.483 95.4948 162.533 95.0631 163.307 94.2945C164.081 93.526 164.516 92.4837 164.516 91.3969V8.4413C164.516 7.90315 164.409 7.37028 164.202 6.87309C163.994 6.37591 163.69 5.92416 163.307 5.54363C162.924 5.1631 162.469 4.86125 161.968 4.65531C161.467 4.44937 160.93 4.34338 160.388 4.34338Z" fill="#3F3D56"/>
<path d="M158.982 11.5854H11.823V93.9963H158.982V11.5854Z" fill="#14AFDD"/>
<path d="M85.2766 9.33782C86.1102 9.33782 86.7859 8.66698 86.7859 7.83944C86.7859 7.01191 86.1102 6.34106 85.2766 6.34106C84.443 6.34106 83.7673 7.01191 83.7673 7.83944C83.7673 8.66698 84.443 9.33782 85.2766 9.33782Z" fill="#14AFDD"/>
<path opacity="0.1" d="M116.897 93.9965H11.8231V11.5856L116.897 93.9965Z" fill="black"/>
<path d="M34.8489 87.8295C42.6612 87.8295 48.9943 81.5423 48.9943 73.7867C48.9943 66.0311 42.6612 59.7439 34.8489 59.7439C27.0367 59.7439 20.7036 66.0311 20.7036 73.7867C20.7036 81.5423 27.0367 87.8295 34.8489 87.8295Z" fill="#F2F2F2"/>
<path d="M133.359 56.0303H119.613V58.8818H133.359V56.0303Z" fill="#3F3D56"/>
<path d="M149.978 33.8291H102.994V35.0512H149.978V33.8291Z" fill="#3F3D56"/>
<path d="M149.978 37.699H102.994V38.921H149.978V37.699Z" fill="#3F3D56"/>
<path d="M149.978 41.5688H102.994V42.7909H149.978V41.5688Z" fill="#3F3D56"/>
<path d="M149.978 45.4388H102.994V46.6609H149.978V45.4388Z" fill="#3F3D56"/>
<path d="M149.978 49.3088H102.994V50.5309H149.978V49.3088Z" fill="#3F3D56"/>
<path d="M149.978 13.2573H144.233V18.9604H149.978V13.2573Z" fill="#F2F2F2"/>
<path d="M152.645 21.6084H145.669V14.6832H152.645V21.6084ZM145.972 21.3073H152.341V14.9843H145.972V21.3073Z" fill="#3F3D56"/>
<path d="M168.648 92.498H154.286V91.4708C154.286 91.444 154.281 91.4175 154.271 91.3928C154.26 91.3681 154.245 91.3457 154.226 91.3267C154.207 91.3078 154.184 91.2928 154.159 91.2826C154.135 91.2724 154.108 91.2671 154.081 91.2671H149.157C149.13 91.2671 149.103 91.2724 149.078 91.2826C149.054 91.2928 149.031 91.3078 149.012 91.3267C148.993 91.3457 148.978 91.3681 148.967 91.3928C148.957 91.4175 148.952 91.444 148.952 91.4708V92.498H145.874V91.4708C145.874 91.444 145.869 91.4175 145.859 91.3928C145.848 91.3681 145.833 91.3457 145.814 91.3267C145.795 91.3078 145.772 91.2928 145.748 91.2826C145.723 91.2724 145.696 91.2671 145.669 91.2671H140.745C140.718 91.2671 140.691 91.2724 140.667 91.2826C140.642 91.2928 140.619 91.3078 140.6 91.3267C140.581 91.3457 140.566 91.3681 140.555 91.3928C140.545 91.4175 140.54 91.444 140.54 91.4708V92.498H137.462V91.4708C137.462 91.444 137.457 91.4175 137.447 91.3928C137.436 91.3681 137.421 91.3457 137.402 91.3267C137.383 91.3078 137.361 91.2928 137.336 91.2826C137.311 91.2724 137.284 91.2671 137.257 91.2671H132.333C132.306 91.2671 132.28 91.2724 132.255 91.2826C132.23 91.2928 132.207 91.3078 132.188 91.3267C132.169 91.3457 132.154 91.3681 132.144 91.3928C132.133 91.4175 132.128 91.444 132.128 91.4708V92.498H129.05V91.4708C129.05 91.444 129.045 91.4175 129.035 91.3928C129.025 91.3681 129.009 91.3457 128.99 91.3267C128.971 91.3078 128.949 91.2928 128.924 91.2826C128.899 91.2724 128.872 91.2671 128.845 91.2671H123.921C123.894 91.2671 123.868 91.2724 123.843 91.2826C123.818 91.2928 123.795 91.3078 123.776 91.3267C123.757 91.3457 123.742 91.3681 123.732 91.3928C123.721 91.4175 123.716 91.444 123.716 91.4708V92.498H120.639V91.4708C120.639 91.444 120.633 91.4175 120.623 91.3928C120.613 91.3681 120.598 91.3457 120.579 91.3267C120.559 91.3078 120.537 91.2928 120.512 91.2826C120.487 91.2724 120.46 91.2671 120.433 91.2671H115.509C115.482 91.2671 115.456 91.2724 115.431 91.2826C115.406 91.2928 115.383 91.3078 115.364 91.3267C115.345 91.3457 115.33 91.3681 115.32 91.3928C115.31 91.4175 115.304 91.444 115.304 91.4708V92.498H112.227V91.4708C112.227 91.444 112.221 91.4175 112.211 91.3928C112.201 91.3681 112.186 91.3457 112.167 91.3267C112.148 91.3078 112.125 91.2928 112.1 91.2826C112.075 91.2724 112.049 91.2671 112.022 91.2671H107.098C107.071 91.2671 107.044 91.2724 107.019 91.2826C106.994 91.2928 106.972 91.3078 106.952 91.3267C106.933 91.3457 106.918 91.3681 106.908 91.3928C106.898 91.4175 106.892 91.444 106.892 91.4708V92.498H103.815V91.4708C103.815 91.444 103.81 91.4175 103.799 91.3928C103.789 91.3681 103.774 91.3457 103.755 91.3267C103.736 91.3078 103.713 91.2928 103.688 91.2826C103.663 91.2724 103.637 91.2671 103.61 91.2671H65.0382C65.0112 91.2671 64.9845 91.2724 64.9596 91.2826C64.9348 91.2928 64.9121 91.3078 64.8931 91.3267C64.874 91.3457 64.8589 91.3681 64.8486 91.3928C64.8383 91.4175 64.833 91.444 64.833 91.4708V92.498H61.7555V91.4708C61.7555 91.444 61.7502 91.4175 61.7399 91.3928C61.7296 91.3681 61.7144 91.3457 61.6954 91.3267C61.6763 91.3078 61.6537 91.2928 61.6288 91.2826C61.6039 91.2724 61.5773 91.2671 61.5503 91.2671H56.6263C56.5993 91.2671 56.5727 91.2724 56.5478 91.2826C56.5229 91.2928 56.5003 91.3078 56.4812 91.3267C56.4622 91.3457 56.447 91.3681 56.4367 91.3928C56.4264 91.4175 56.4211 91.444 56.4211 91.4708V92.498H53.3436V91.4708C53.3436 91.444 53.3383 91.4175 53.328 91.3928C53.3177 91.3681 53.3026 91.3457 53.2835 91.3267C53.2645 91.3078 53.2418 91.2928 53.2169 91.2826C53.1921 91.2724 53.1654 91.2671 53.1384 91.2671H48.2144C48.1875 91.2671 48.1608 91.2724 48.1359 91.2826C48.111 91.2928 48.0884 91.3078 48.0693 91.3267C48.0503 91.3457 48.0352 91.3681 48.0249 91.3928C48.0145 91.4175 48.0092 91.444 48.0092 91.4708V92.498H44.9317V91.4708C44.9317 91.444 44.9264 91.4175 44.9161 91.3928C44.9058 91.3681 44.8907 91.3457 44.8716 91.3267C44.8526 91.3078 44.83 91.2928 44.8051 91.2826C44.7802 91.2724 44.7535 91.2671 44.7266 91.2671H39.8025C39.7756 91.2671 39.7489 91.2724 39.724 91.2826C39.6991 91.2928 39.6765 91.3078 39.6575 91.3267C39.6384 91.3457 39.6233 91.3681 39.613 91.3928C39.6027 91.4175 39.5974 91.444 39.5974 91.4708V92.498H36.5199V91.4708C36.5199 91.444 36.5146 91.4175 36.5042 91.3928C36.4939 91.3681 36.4788 91.3457 36.4598 91.3267C36.4407 91.3078 36.4181 91.2928 36.3932 91.2826C36.3683 91.2724 36.3416 91.2671 36.3147 91.2671H31.3907C31.3637 91.2671 31.337 91.2724 31.3121 91.2826C31.2872 91.2928 31.2646 91.3078 31.2456 91.3267C31.2265 91.3457 31.2114 91.3681 31.2011 91.3928C31.1908 91.4175 31.1855 91.444 31.1855 91.4708V92.498H28.108V91.4708C28.108 91.444 28.1027 91.4175 28.0924 91.3928C28.0821 91.3681 28.0669 91.3457 28.0479 91.3267C28.0288 91.3078 28.0062 91.2928 27.9813 91.2826C27.9564 91.2724 27.9298 91.2671 27.9028 91.2671H22.9788C22.9518 91.2671 22.9252 91.2724 22.9003 91.2826C22.8754 91.2928 22.8528 91.3078 22.8337 91.3267C22.8147 91.3457 22.7995 91.3681 22.7892 91.3928C22.7789 91.4175 22.7736 91.444 22.7736 91.4708V92.498H19.6961V91.4708C19.6961 91.444 19.6908 91.4175 19.6805 91.3928C19.6702 91.3681 19.6551 91.3457 19.636 91.3267C19.617 91.3078 19.5943 91.2928 19.5694 91.2826C19.5446 91.2724 19.5179 91.2671 19.4909 91.2671H14.5669C14.54 91.2671 14.5133 91.2724 14.4884 91.2826C14.4635 91.2928 14.4409 91.3078 14.4218 91.3267C14.4028 91.3457 14.3877 91.3681 14.3774 91.3928C14.367 91.4175 14.3617 91.444 14.3617 91.4708V92.498H4.92403C3.61809 92.498 2.36565 93.013 1.44222 93.9298C0.518781 94.8465 1.24416e-06 96.0899 0 97.3863V99.5967C3.73249e-06 100.893 0.518785 102.137 1.44222 103.053C2.36565 103.97 3.6181 104.485 4.92403 104.485H168.648C169.954 104.485 171.206 103.97 172.13 103.053C173.053 102.137 173.572 100.893 173.572 99.5967V97.3863C173.572 96.0899 173.053 94.8465 172.13 93.9298C171.206 93.013 169.954 92.498 168.648 92.498Z" fill="#3F3D56"/>
<path d="M38.2729 82.5576C34.7472 82.5576 31.3006 81.5197 28.3691 79.5751C25.4376 77.6306 23.1528 74.8666 21.8035 71.6329C20.4543 68.3992 20.1013 64.8409 20.7891 61.408C21.4769 57.9751 23.1747 54.8218 25.6678 52.3468C28.1608 49.8718 31.3372 48.1864 34.7951 47.5035C38.2531 46.8207 41.8374 47.1711 45.0947 48.5106C48.352 49.85 51.1361 52.1183 53.0949 55.0286C55.0537 57.9388 56.0992 61.3604 56.0992 64.8605C56.0938 69.5525 54.214 74.0507 50.8721 77.3684C47.5301 80.6861 42.9991 82.5523 38.2729 82.5576ZM38.2729 47.6292C34.84 47.6292 31.4841 48.6398 28.6298 50.5332C25.7754 52.4266 23.5507 55.1178 22.2369 58.2664C20.9232 61.415 20.5795 64.8797 21.2492 68.2222C21.9189 71.5648 23.5721 74.6351 25.9995 77.045C28.4269 79.4548 31.5197 81.0959 34.8867 81.7608C38.2536 82.4257 41.7436 82.0845 44.9152 80.7803C48.0868 79.4761 50.7976 77.2675 52.7049 74.4338C54.6121 71.6001 55.6301 68.2686 55.6301 64.8605C55.6249 60.2921 53.7945 55.9122 50.5405 52.6818C47.2865 49.4514 42.8747 47.6343 38.2729 47.6292Z" fill="#3F3D56"/>
<path d="M197.302 7.57788H137.49V8.04359H197.302V7.57788Z" fill="#3F3D56"/>
<path d="M267.2 130.526H95.2701V130.992H267.2V130.526Z" fill="#3F3D56"/>
<path d="M105.004 151.949H45.1924V152.415H105.004V151.949Z" fill="#3F3D56"/>
<path d="M117.044 128.071H110.476V134.591H117.044V128.071Z" fill="#14AFDD"/>
<path d="M121.031 130.865H113.056V122.948H121.031V130.865ZM113.403 130.521H120.684V123.292H113.403V130.521Z" fill="#3F3D56"/>
<path d="M193.275 5.1228H186.707V11.6428H193.275V5.1228Z" fill="#14AFDD"/>
<path d="M197.262 7.91712H189.287V0H197.262V7.91712ZM189.634 7.57289H196.915V0.344223H189.634V7.57289Z" fill="#3F3D56"/>
<path d="M259.42 128.071H252.852V134.591H259.42V128.071Z" fill="#14AFDD"/>
<path d="M263.407 130.865H255.432V122.948H263.407V130.865ZM255.779 130.521H263.06V123.292H255.779V130.521Z" fill="#3F3D56"/>
<path d="M247.966 54.013H247.409V38.8398C247.409 37.6865 247.18 36.5445 246.735 35.4791C246.291 34.4136 245.639 33.4455 244.818 32.63C243.996 31.8145 243.021 31.1677 241.948 30.7263C240.875 30.285 239.724 30.0579 238.563 30.0579H206.181C205.02 30.0579 203.869 30.285 202.796 30.7263C201.723 31.1677 200.748 31.8145 199.926 32.63C199.105 33.4455 198.453 34.4136 198.009 35.4791C197.564 36.5445 197.335 37.6865 197.335 38.8398V122.082C197.335 123.235 197.564 124.377 198.009 125.442C198.453 126.508 199.105 127.476 199.926 128.291C200.748 129.107 201.723 129.754 202.796 130.195C203.869 130.636 205.02 130.863 206.181 130.863H238.563C239.724 130.863 240.875 130.636 241.948 130.195C243.021 129.754 243.996 129.107 244.818 128.291C245.639 127.476 246.291 126.508 246.735 125.442C247.18 124.377 247.409 123.235 247.409 122.082V64.8136H247.966V54.013Z" fill="#3F3D56"/>
<path d="M245.525 39.3558V122.476C245.525 124.216 244.829 125.884 243.591 127.114C242.352 128.344 240.672 129.035 238.92 129.036H206.382C204.63 129.035 202.95 128.344 201.711 127.114C200.472 125.884 199.777 124.216 199.777 122.476V39.3558C199.777 37.6168 200.473 35.949 201.712 34.7194C202.95 33.4897 204.63 32.7988 206.382 32.7986H210.33C210.135 33.2717 210.061 33.7849 210.114 34.2931C210.166 34.8013 210.344 35.2889 210.631 35.7128C210.918 36.1368 211.306 36.4842 211.76 36.7244C212.214 36.9646 212.721 37.0902 213.236 37.0901H231.787C232.301 37.0902 232.808 36.9646 233.262 36.7244C233.717 36.4842 234.104 36.1368 234.391 35.7129C234.678 35.2889 234.856 34.8013 234.909 34.2931C234.961 33.7849 234.887 33.2717 234.693 32.7986H238.92C240.671 32.7988 242.351 33.4897 243.59 34.7194C244.829 35.949 245.525 37.6168 245.525 39.3558Z" fill="#14AFDD"/>
<path d="M227.497 87.6046H217.804V90.4561H227.497V87.6046Z" fill="#3F3D56"/>
<path d="M239.215 65.4034H206.086V66.6255H239.215V65.4034Z" fill="#3F3D56"/>
<path d="M239.215 69.2734H206.086V70.4955H239.215V69.2734Z" fill="#3F3D56"/>
<path d="M239.215 73.1433H206.086V74.3654H239.215V73.1433Z" fill="#3F3D56"/>
<path d="M239.215 77.0132H206.086V78.2352H239.215V77.0132Z" fill="#3F3D56"/>
<path d="M239.215 80.8832H206.086V82.1053H239.215V80.8832Z" fill="#3F3D56"/>
<path d="M223.808 49.1743H218.063V54.8774H223.808V49.1743Z" fill="#F2F2F2"/>
<path d="M220.263 50.6005V57.5256H227.238V50.6005H220.263ZM226.936 57.2252H220.565V50.9009H226.936V57.2252Z" fill="#3F3D56"/>
<path opacity="0.1" d="M245.525 113.6V122.476C245.525 124.216 244.829 125.884 243.591 127.114C242.352 128.344 240.672 129.035 238.92 129.036H206.382C204.63 129.035 202.95 128.344 201.711 127.114C200.472 125.884 199.777 124.216 199.777 122.476V77.7189L227.189 99.2185L227.659 99.5864L232.758 103.585L233.234 103.959L245.525 113.6Z" fill="black"/>
<path d="M219.836 126.342C225.519 126.342 230.126 121.769 230.126 116.127C230.126 110.485 225.519 105.912 219.836 105.912C214.153 105.912 209.547 110.485 209.547 116.127C209.547 121.769 214.153 126.342 219.836 126.342Z" fill="#F2F2F2"/>
<path d="M75.0983 152.415C71.0623 152.415 67.1169 151.226 63.7611 149C60.4052 146.774 57.7897 143.61 56.2452 139.909C54.7007 136.207 54.2966 132.134 55.0839 128.204C55.8713 124.274 57.8149 120.664 60.6687 117.831C63.5226 114.998 67.1587 113.069 71.1172 112.287C75.0756 111.505 79.1787 111.906 82.9075 113.44C86.6363 114.973 89.8233 117.57 92.0656 120.901C94.3079 124.233 95.5047 128.149 95.5047 132.156C95.4986 137.527 93.3467 142.676 89.521 146.474C85.6954 150.272 80.5085 152.409 75.0983 152.415ZM75.0983 112.363C71.155 112.363 67.3004 113.524 64.0217 115.699C60.743 117.874 58.1876 120.965 56.6786 124.582C55.1696 128.198 54.7748 132.178 55.544 136.017C56.3133 139.857 58.2122 143.384 61.0005 146.152C63.7887 148.92 67.3412 150.805 71.2087 151.569C75.0762 152.332 79.0849 151.94 82.728 150.442C86.371 148.944 89.4848 146.407 91.6755 143.152C93.8663 139.897 95.0356 136.071 95.0356 132.156C95.0296 126.909 92.9272 121.878 89.1895 118.167C85.4518 114.456 80.3841 112.369 75.0983 112.363Z" fill="#3F3D56"/>
<path d="M222.869 124.006C220.317 124.006 217.823 123.255 215.702 121.848C213.58 120.44 211.927 118.44 210.95 116.1C209.974 113.76 209.718 111.185 210.216 108.7C210.714 106.216 211.943 103.934 213.747 102.143C215.551 100.352 217.85 99.1321 220.352 98.6379C222.855 98.1438 225.449 98.3974 227.806 99.3667C230.163 100.336 232.178 101.978 233.595 104.084C235.013 106.19 235.77 108.666 235.77 111.199C235.766 114.594 234.405 117.85 231.987 120.251C229.568 122.652 226.289 124.002 222.869 124.006ZM222.869 98.8576C220.41 98.8576 218.007 99.5814 215.962 100.937C213.918 102.294 212.325 104.221 211.384 106.476C210.443 108.731 210.197 111.213 210.676 113.607C211.156 116.001 212.34 118.2 214.079 119.926C215.817 121.652 218.032 122.827 220.444 123.303C222.855 123.779 225.355 123.535 227.626 122.601C229.898 121.667 231.839 120.085 233.205 118.055C234.571 116.026 235.3 113.64 235.3 111.199C235.297 107.927 233.986 104.79 231.655 102.476C229.325 100.163 226.165 98.8612 222.869 98.8576Z" fill="#3F3D56"/>
</g>
<defs>
<clipPath id="clip0">
<rect width="267.2" height="152.415" fill="white"/>
</clipPath>
</defs>
</svg>
