<svg width="313" height="237" viewBox="0 0 313 237" fill="none" xmlns="http://www.w3.org/2000/svg">
<path d="M108.032 166.951C108.472 167.404 108.876 167.89 109.241 168.406L165.875 167.02L172.482 154.947L192.005 162.537L182.385 185.046C181.608 186.865 180.262 188.382 178.549 189.371C176.836 190.359 174.849 190.765 172.886 190.528L108.899 182.798C107.389 184.709 105.334 186.115 103.006 186.829C100.678 187.543 98.1879 187.532 95.8666 186.796C93.5454 186.061 91.5031 184.636 90.0114 182.711C88.5197 180.787 87.6494 178.453 87.516 176.022C87.3827 173.591 87.9928 171.176 89.2651 169.1C90.5374 167.024 92.4117 165.384 94.6386 164.399C96.8655 163.414 99.3395 163.131 101.732 163.586C104.124 164.041 106.32 165.214 108.03 166.949L108.032 166.951Z" fill="#9F616A"/>
<path d="M184.259 98.0121L210.763 89.3259L218.547 78.6502L256.428 80.892L261.99 93.3499L282.189 102.895L279.085 160.545L273.774 214.499C246.466 200.358 195.503 211.139 195.056 211.314L184.259 98.0121Z" fill="#002452"/>
<path d="M189.924 176.046L162.966 165.26L163.08 164.78C163.196 164.295 174.67 116.348 176.194 108.643C177.781 100.615 183.579 98.3959 183.825 98.3058L184.005 98.2395L194.674 101.487L199.36 138.303L189.924 176.046Z" fill="#002452"/>
<rect x="194" y="207" width="83" height="11" fill="white"/>
<path d="M248.133 212.127C248.765 212.112 249.398 212.147 250.024 212.231L287.514 169.76L283.153 156.709L301.993 147.553L311.959 169.911C312.764 171.718 312.961 173.736 312.522 175.664C312.082 177.592 311.028 179.326 309.52 180.604L260.347 222.268C260.722 224.674 260.355 227.137 259.295 229.329C258.236 231.522 256.535 233.34 254.417 234.541C252.299 235.743 249.866 236.272 247.44 236.057C245.015 235.842 242.712 234.894 240.839 233.338C238.965 231.783 237.61 229.694 236.953 227.349C236.295 225.005 236.368 222.516 237.159 220.213C237.951 217.91 239.425 215.903 241.386 214.459C243.346 213.015 245.7 212.201 248.133 212.127Z" fill="#9F616A"/>
<path d="M284.521 173.894L268.883 137.108L274.982 111.484L281.554 103.181C282.036 102.976 282.555 102.872 283.078 102.877C283.601 102.882 284.118 102.995 284.596 103.21C287.021 104.185 289.082 107.175 290.73 112.096L305.387 153.843L284.521 173.894Z" fill="#002452"/>
<path d="M203.384 65.0191V37.2859C203.367 32.4056 204.313 27.57 206.165 23.055C208.018 18.5401 210.742 14.4342 214.181 10.9719C217.621 7.50962 221.708 4.75868 226.211 2.87615C230.713 0.993619 235.543 0.0163718 240.423 0.000203952C245.303 -0.0159639 250.139 0.929267 254.654 2.78192C259.169 4.63458 263.275 7.35837 266.737 10.7978C270.199 14.2372 272.95 18.3249 274.833 22.8275C276.715 27.3301 277.693 32.1594 277.709 37.0396C277.709 37.1217 277.709 37.2038 277.709 37.2859V65.0191C277.707 66.3426 277.181 67.6115 276.245 68.5473C275.309 69.4832 274.04 70.0096 272.717 70.0111H208.376C207.052 70.0096 205.783 69.4832 204.847 68.5473C203.911 67.6115 203.385 66.3426 203.384 65.0191Z" fill="#2F2E41"/>
<path d="M232.909 69.365C247.957 69.365 260.156 57.1665 260.156 42.1188C260.156 27.0712 247.957 14.8727 232.909 14.8727C217.862 14.8727 205.663 27.0712 205.663 42.1188C205.663 57.1665 217.862 69.365 232.909 69.365Z" fill="#9F616A"/>
<path d="M194.592 39.5046C194.601 31.7106 197.701 24.2383 203.212 18.7272C208.723 13.216 216.195 10.116 223.989 10.1072H229.536C237.33 10.116 244.802 13.216 250.314 18.7272C255.825 24.2384 258.925 31.7106 258.933 39.5046V40.0591H247.211L243.213 28.8624L242.413 40.0591H236.356L234.339 34.4106L233.935 40.0591H194.592V39.5046Z" fill="#2F2E41"/>
<path d="M230.228 73.13C229.678 72.3848 229.349 71.4993 229.28 70.5755C229.211 69.6517 229.404 68.7271 229.837 67.9083C235.715 56.7285 243.945 36.0703 233.021 23.3302L232.238 22.4159H263.951V70.0284L235.142 75.1114C234.851 75.163 234.555 75.1891 234.259 75.1894C233.473 75.1895 232.697 75.0029 231.997 74.6451C231.297 74.2873 230.691 73.7684 230.23 73.1312L230.228 73.13Z" fill="#2F2E41"/>
<path d="M48.6048 56.2453C57.7114 50.213 71.6217 50.7017 78.1165 60.3322C81.04 64.6667 82.2417 70.2336 80.8609 75.3311C79.2557 81.2521 74.0719 84.9648 69.1244 88.0348C66.439 89.7012 63.6445 91.247 61.132 93.174C58.5304 95.1697 56.0561 97.7579 55.4487 101.105C54.9009 104.12 55.9595 107.084 57.4764 109.654C59.1813 112.432 61.1954 115.008 63.4801 117.331C68.1363 122.204 73.6893 126.13 79.8345 128.896C82.8951 130.258 86.0753 131.334 89.3345 132.11C92.7962 132.945 96.3111 133.542 99.7688 134.397C105.54 135.828 111.689 138.274 115.178 143.381C118.566 148.343 117.929 154.634 115.914 160.015C112.193 169.953 103.402 177.656 93.3031 180.651C88.4581 182.087 83.076 182.544 78.1431 181.286C73.8389 180.189 68.9697 177.537 67.4438 173.073C65.7414 168.092 69.2434 163.403 73.7147 161.464C79.4211 158.991 85.787 161.04 91.0365 163.684C97.0079 166.692 102.445 170.696 108.64 173.273C111.641 174.574 114.831 175.387 118.089 175.683C120.98 175.891 123.886 175.574 126.666 174.747C132.188 173.13 137.146 169.707 140.968 165.443C145.565 160.315 148.529 153.938 150.525 147.401C151.535 144.019 152.349 140.583 152.965 137.108C153.233 135.646 150.973 135.137 150.703 136.609C148.311 149.643 143.438 163.6 131.149 170.375C126.008 173.285 119.953 174.124 114.218 172.722C107.558 171.072 101.766 167.081 95.8982 163.697C90.3188 160.48 83.9536 157.398 77.3218 158.135C71.8816 158.739 66.3452 162.433 64.9694 167.958C63.6424 173.287 66.9006 178.07 71.2292 180.831C75.7704 183.73 81.2845 184.606 86.5899 184.222C97.6258 183.422 107.966 177.217 114.237 168.155C117.505 163.434 119.765 157.682 119.903 151.9C120.01 148.787 119.243 145.708 117.689 143.011C116.121 140.357 113.81 138.236 111.247 136.562C105.425 132.759 98.431 131.751 91.7731 130.288C88.3512 129.58 85.0035 128.552 81.774 127.218C78.6591 125.887 75.6839 124.25 72.892 122.332C70.1251 120.421 67.5584 118.236 65.2311 115.809C62.919 113.49 60.9057 110.891 59.238 108.073C57.7981 105.527 56.9714 102.534 58.3039 99.7562C59.7486 96.7446 62.6947 94.7713 65.4239 93.0319C70.8156 89.5961 76.8072 86.6153 80.5786 81.2489C83.8786 76.5551 84.4802 70.5262 82.8869 65.0899C82.1006 62.3424 80.7556 59.7875 78.9362 57.5852C77.1168 55.3829 74.8622 53.5807 72.3136 52.2914C67.0538 49.6983 60.8994 49.329 55.2554 50.7767C52.4556 51.4958 49.7948 52.6769 47.3825 54.2714C46.1387 55.0951 47.3573 57.0644 48.6023 56.2401L48.6048 56.2453Z" fill="#3F3D56"/>
</svg>
