<svg width="280" height="175" viewBox="0 0 280 175" fill="none" xmlns="http://www.w3.org/2000/svg">
<g clip-path="url(#clip0)">
<path d="M73.1778 106.537C102.597 106.537 126.446 82.688 126.446 53.2686C126.446 23.8492 102.597 0 73.1778 0C43.7584 0 19.9092 23.8492 19.9092 53.2686C19.9092 82.688 43.7584 106.537 73.1778 106.537Z" fill="#F2F2F2"/>
<path d="M0 12.79C0 32.1713 12.1588 47.8543 27.1847 47.8543L0 12.79Z" fill="#2F2E41"/>
<path d="M27.1846 47.8544C27.1846 28.2554 40.7531 12.3961 57.5212 12.3961L27.1846 47.8544Z" fill="#14AFDD"/>
<path d="M9.84949 14.547C9.84949 32.9571 17.6029 47.8543 27.1846 47.8543L9.84949 14.547Z" fill="#14AFDD"/>
<path d="M27.1846 47.8544C27.1846 22.8112 42.8677 2.54663 62.2489 2.54663L27.1846 47.8544Z" fill="#2F2E41"/>
<path d="M21.4657 48.1015C21.4657 48.1015 25.3209 47.9828 26.4828 47.1554C27.6447 46.3281 32.4131 45.3401 32.7013 46.667C32.9896 47.9939 38.495 53.2664 34.1425 53.3015C29.79 53.3366 24.0291 52.6235 22.8695 51.9172C21.7099 51.2108 21.4657 48.1015 21.4657 48.1015Z" fill="#A8A8A8"/>
<path opacity="0.2" d="M34.2203 52.8398C29.8677 52.8749 24.1069 52.1618 22.9473 51.4555C22.0641 50.9175 21.7122 48.9872 21.5945 48.0967C21.5129 48.1002 21.4658 48.1017 21.4658 48.1017C21.4658 48.1017 21.7099 51.211 22.8696 51.9173C24.0292 52.6237 29.79 53.3368 34.1426 53.3017C35.399 53.2915 35.833 52.8445 35.8091 52.1825C35.6346 52.5825 35.1554 52.8323 34.2203 52.8398Z" fill="black"/>
<path d="M49.6696 112.524C75.4979 112.524 96.4359 109.676 96.4359 106.162C96.4359 102.648 75.4979 99.7998 49.6696 99.7998C23.8413 99.7998 2.90326 102.648 2.90326 106.162C2.90326 109.676 23.8413 112.524 49.6696 112.524Z" fill="#3F3D56"/>
<path opacity="0.1" d="M49.6696 111.504C71.3543 111.504 88.9333 109.112 88.9333 106.162C88.9333 103.212 71.3543 100.821 49.6696 100.821C27.9848 100.821 10.4059 103.212 10.4059 106.162C10.4059 109.112 27.9848 111.504 49.6696 111.504Z" fill="black"/>
<path d="M209.225 174.811C248.313 174.811 280 170.5 280 165.183C280 159.865 248.313 155.554 209.225 155.554C170.137 155.554 138.451 159.865 138.451 165.183C138.451 170.5 170.137 174.811 209.225 174.811Z" fill="#3F3D56"/>
<path d="M103.688 167.215C127.169 167.215 146.203 164.626 146.203 161.431C146.203 158.237 127.169 155.647 103.688 155.647C80.2082 155.647 61.1736 158.237 61.1736 161.431C61.1736 164.626 80.2082 167.215 103.688 167.215Z" fill="#3F3D56"/>
<path d="M115.693 156.555C138.201 162.307 181.466 149.052 186.217 134.047" stroke="#2F2E41" stroke-width="2" stroke-miterlimit="10"/>
<path d="M194.744 140.859L192.774 153.437C192.774 153.437 183.075 158.59 189.895 158.742C196.714 158.893 228.842 158.742 228.842 158.742C228.842 158.742 235.055 158.742 225.205 153.286L223.234 140.102L194.744 140.859Z" fill="#2F2E41"/>
<path opacity="0.1" d="M188.523 158.605C190.072 157.227 192.774 155.791 192.774 155.791L194.744 143.213L223.234 143.24L225.205 155.639C227.502 156.912 228.925 157.887 229.757 158.635C231.022 158.346 232.405 157.274 225.205 153.286L223.234 140.102L194.744 140.859L192.774 153.437C192.774 153.437 184.624 157.768 188.523 158.605Z" fill="black"/>
<path d="M268.504 53.1908H149.172C146.679 53.1908 144.659 55.2113 144.659 57.7038V138.089C144.659 140.581 146.679 142.602 149.172 142.602H268.504C270.996 142.602 273.017 140.581 273.017 138.089V57.7038C273.017 55.2113 270.996 53.1908 268.504 53.1908Z" fill="#2F2E41"/>
<path d="M268.698 57.9642H148.978V124.947H268.698V57.9642Z" fill="#3F3D56"/>
<path d="M208.838 56.6004C209.256 56.6004 209.595 56.2612 209.595 55.8427C209.595 55.4242 209.256 55.085 208.838 55.085C208.419 55.085 208.08 55.4242 208.08 55.8427C208.08 56.2612 208.419 56.6004 208.838 56.6004Z" fill="#F2F2F2"/>
<path d="M273.017 130.251V138.089C273.017 138.682 272.9 139.268 272.673 139.816C272.447 140.364 272.114 140.861 271.695 141.28C271.276 141.699 270.778 142.032 270.231 142.258C269.683 142.485 269.096 142.602 268.504 142.602H149.172C148.579 142.602 147.992 142.485 147.445 142.258C146.897 142.032 146.399 141.699 145.98 141.28C145.561 140.861 145.229 140.364 145.002 139.816C144.775 139.268 144.659 138.682 144.659 138.089V130.251H273.017Z" fill="#2F2E41"/>
<path d="M242.329 166.925V168.44H160.798V167.228L160.91 166.925L162.92 161.469H240.662L242.329 166.925Z" fill="#2F2E41"/>
<path d="M273.705 165.441C273.556 166.076 272.996 166.746 271.729 167.379C267.182 169.653 257.938 166.773 257.938 166.773C257.938 166.773 250.816 165.561 250.816 162.378C251.016 162.241 251.224 162.117 251.44 162.007C253.351 160.996 259.689 158.501 270.926 162.113C271.754 162.373 272.493 162.857 273.062 163.513C273.518 164.046 273.875 164.722 273.705 165.441Z" fill="#2F2E41"/>
<path opacity="0.1" d="M273.705 165.441C268.14 167.573 263.18 167.733 258.09 164.197C255.523 162.415 253.19 161.974 251.44 162.007C253.351 160.996 259.689 158.501 270.926 162.113C271.754 162.373 272.494 162.857 273.062 163.513C273.518 164.046 273.875 164.722 273.705 165.441Z" fill="black"/>
<path d="M266.728 164.197C267.816 164.197 268.698 163.926 268.698 163.591C268.698 163.256 267.816 162.985 266.728 162.985C265.64 162.985 264.758 163.256 264.758 163.591C264.758 163.926 265.64 164.197 266.728 164.197Z" fill="#F2F2F2"/>
<path d="M208.838 139.344C210.428 139.344 211.717 138.055 211.717 136.464C211.717 134.874 210.428 133.585 208.838 133.585C207.248 133.585 205.958 134.874 205.958 136.464C205.958 138.055 207.248 139.344 208.838 139.344Z" fill="#F2F2F2"/>
<path opacity="0.1" d="M242.329 166.925V168.44H160.798V167.228L160.91 166.925H242.329Z" fill="black"/>
<path d="M79.1799 39.7639H27.1617V100.285H79.1799V39.7639Z" fill="#2F2E41"/>
<path d="M84.4317 33.7617H21.9099V55.2692H84.4317V33.7617Z" fill="#3F3D56"/>
<path d="M84.4317 59.2706H21.9099V80.7782H84.4317V59.2706Z" fill="#3F3D56"/>
<path d="M84.4317 84.7795H21.9099V106.287H84.4317V84.7795Z" fill="#3F3D56"/>
<path opacity="0.4" d="M71.9274 37.5131H67.926V41.5145H71.9274V37.5131Z" fill="#14AFDD"/>
<path opacity="0.8" d="M77.6794 37.5131H73.678V41.5145H77.6794V37.5131Z" fill="#14AFDD"/>
<path d="M83.4314 37.5131H79.43V41.5145H83.4314V37.5131Z" fill="#14AFDD"/>
<path opacity="0.4" d="M71.9274 62.7719H67.926V66.7732H71.9274V62.7719Z" fill="#14AFDD"/>
<path opacity="0.8" d="M77.6794 62.7719H73.678V66.7732H77.6794V62.7719Z" fill="#14AFDD"/>
<path d="M83.4314 62.7719H79.43V66.7732H83.4314V62.7719Z" fill="#14AFDD"/>
<path opacity="0.4" d="M71.9274 88.0308H67.926V92.0322H71.9274V88.0308Z" fill="#14AFDD"/>
<path opacity="0.8" d="M77.6794 88.0308H73.678V92.0322H77.6794V88.0308Z" fill="#14AFDD"/>
<path d="M83.4314 88.0308H79.43V92.0322H83.4314V88.0308Z" fill="#14AFDD"/>
<path d="M268.594 58.0203H149.302V125.044H268.594V58.0203Z" fill="#E6E6E6"/>
<path d="M264.842 66.5232H152.553V121.042H264.842V66.5232Z" fill="white"/>
<path d="M268.594 58.0203H149.052V62.2717H268.594V58.0203Z" fill="#14AFDD"/>
<path d="M152.303 61.0213C152.717 61.0213 153.053 60.6294 153.053 60.1459C153.053 59.6625 152.717 59.2706 152.303 59.2706C151.889 59.2706 151.553 59.6625 151.553 60.1459C151.553 60.6294 151.889 61.0213 152.303 61.0213Z" fill="white"/>
<path d="M155.179 61.0213C155.663 61.0213 156.054 60.6294 156.054 60.1459C156.054 59.6625 155.663 59.2706 155.179 59.2706C154.696 59.2706 154.304 59.6625 154.304 60.1459C154.304 60.6294 154.696 61.0213 155.179 61.0213Z" fill="white"/>
<path d="M158.055 61.0213C158.47 61.0213 158.805 60.6294 158.805 60.1459C158.805 59.6625 158.47 59.2706 158.055 59.2706C157.641 59.2706 157.305 59.6625 157.305 60.1459C157.305 60.6294 157.641 61.0213 158.055 61.0213Z" fill="white"/>
<path d="M228.096 70.7747H197.803C197.738 70.7667 197.679 70.7369 197.636 70.6909C197.593 70.6449 197.569 70.5858 197.569 70.5246C197.569 70.4634 197.593 70.4043 197.636 70.3583C197.679 70.3123 197.738 70.2825 197.803 70.2745H228.096C228.161 70.2825 228.22 70.3123 228.263 70.3583C228.306 70.4043 228.33 70.4634 228.33 70.5246C228.33 70.5858 228.306 70.6449 228.263 70.6909C228.22 70.7369 228.161 70.7667 228.096 70.7747Z" fill="#CCCCCC"/>
<path d="M207.088 73.7757H187.8C187.735 73.7677 187.675 73.7379 187.632 73.6919C187.589 73.6459 187.565 73.5868 187.565 73.5256C187.565 73.4644 187.589 73.4053 187.632 73.3593C187.675 73.3133 187.735 73.2835 187.8 73.2755H207.088C207.153 73.2835 207.212 73.3133 207.256 73.3593C207.299 73.4053 207.322 73.4644 207.322 73.5256C207.322 73.5868 207.299 73.6459 207.256 73.6919C207.212 73.7379 207.153 73.7677 207.088 73.7757Z" fill="#CCCCCC"/>
<path d="M228.096 73.7757H208.807C208.742 73.7677 208.683 73.7379 208.64 73.6919C208.596 73.6459 208.573 73.5868 208.573 73.5256C208.573 73.4644 208.596 73.4053 208.64 73.3593C208.683 73.3133 208.742 73.2835 208.807 73.2755H228.096C228.16 73.2835 228.22 73.3133 228.263 73.3593C228.306 73.4053 228.33 73.4644 228.33 73.5256C228.33 73.5868 228.306 73.6459 228.263 73.6919C228.22 73.7379 228.16 73.7677 228.096 73.7757H228.096Z" fill="#CCCCCC"/>
<path d="M207.091 76.5267H188.047C187.983 76.5187 187.924 76.4889 187.882 76.4429C187.839 76.3969 187.816 76.3378 187.816 76.2766C187.816 76.2154 187.839 76.1563 187.882 76.1103C187.924 76.0643 187.983 76.0345 188.047 76.0265H207.091C207.155 76.0345 207.214 76.0643 207.256 76.1103C207.299 76.1563 207.322 76.2154 207.322 76.2766C207.322 76.3378 207.299 76.3969 207.256 76.4429C207.214 76.4889 207.155 76.5187 207.091 76.5267Z" fill="#CCCCCC"/>
<path d="M207.091 79.5278H188.047C187.983 79.5198 187.924 79.49 187.882 79.444C187.839 79.398 187.816 79.3389 187.816 79.2777C187.816 79.2165 187.839 79.1574 187.882 79.1114C187.924 79.0654 187.983 79.0356 188.047 79.0276H207.091C207.155 79.0356 207.214 79.0654 207.256 79.1114C207.299 79.1574 207.322 79.2165 207.322 79.2777C207.322 79.3389 207.299 79.398 207.256 79.444C207.214 79.49 207.155 79.5198 207.091 79.5278Z" fill="#CCCCCC"/>
<path d="M215.841 76.5267H210.308C210.243 76.5187 210.183 76.4889 210.14 76.4429C210.097 76.3969 210.073 76.3378 210.073 76.2766C210.073 76.2154 210.097 76.1563 210.14 76.1103C210.183 76.0643 210.243 76.0345 210.308 76.0265H215.841C215.906 76.0345 215.965 76.0643 216.008 76.1103C216.052 76.1563 216.075 76.2154 216.075 76.2766C216.075 76.3378 216.052 76.3969 216.008 76.4429C215.965 76.4889 215.906 76.5187 215.841 76.5267Z" fill="#CCCCCC"/>
<path d="M215.841 79.5278H210.308C210.243 79.5198 210.183 79.49 210.14 79.444C210.097 79.398 210.073 79.3389 210.073 79.2777C210.073 79.2165 210.097 79.1574 210.14 79.1114C210.183 79.0654 210.243 79.0356 210.308 79.0276H215.841C215.906 79.0356 215.965 79.0654 216.008 79.1114C216.052 79.1574 216.075 79.2165 216.075 79.2777C216.075 79.3389 216.052 79.398 216.008 79.444C215.965 79.49 215.906 79.5198 215.841 79.5278Z" fill="#CCCCCC"/>
<path d="M225.094 79.5278H219.561C219.496 79.5198 219.437 79.49 219.393 79.444C219.35 79.398 219.327 79.3389 219.327 79.2777C219.327 79.2165 219.35 79.1574 219.393 79.1114C219.437 79.0654 219.496 79.0356 219.561 79.0276H225.094C225.159 79.0356 225.219 79.0654 225.262 79.1114C225.305 79.1574 225.329 79.2165 225.329 79.2777C225.329 79.3389 225.305 79.398 225.262 79.444C225.219 79.49 225.159 79.5198 225.094 79.5278Z" fill="#CCCCCC"/>
<path d="M193.333 70.7747H187.8C187.735 70.7667 187.675 70.7369 187.632 70.6909C187.589 70.6449 187.565 70.5858 187.565 70.5246C187.565 70.4634 187.589 70.4043 187.632 70.3583C187.675 70.3123 187.735 70.2825 187.8 70.2745H193.333C193.398 70.2825 193.457 70.3123 193.501 70.3583C193.544 70.4043 193.568 70.4634 193.568 70.5246C193.568 70.5858 193.544 70.6449 193.501 70.6909C193.457 70.7369 193.398 70.7667 193.333 70.7747Z" fill="#CCCCCC"/>
<path d="M207.088 104.286H187.8C187.735 104.278 187.675 104.249 187.632 104.203C187.589 104.157 187.565 104.098 187.565 104.036C187.565 103.975 187.589 103.916 187.632 103.87C187.675 103.824 187.735 103.794 187.8 103.786H207.088C207.153 103.794 207.212 103.824 207.256 103.87C207.299 103.916 207.322 103.975 207.322 104.036C207.322 104.098 207.299 104.157 207.256 104.203C207.212 104.249 207.153 104.278 207.088 104.286H207.088Z" fill="#CCCCCC"/>
<path d="M206.841 110.038H187.797C187.733 110.03 187.674 110.001 187.631 109.955C187.589 109.909 187.565 109.85 187.565 109.788C187.565 109.727 187.589 109.668 187.631 109.622C187.674 109.576 187.733 109.546 187.797 109.538H206.841C206.905 109.546 206.964 109.576 207.006 109.622C207.049 109.668 207.072 109.727 207.072 109.788C207.072 109.85 207.049 109.909 207.006 109.955C206.964 110.001 206.905 110.03 206.841 110.038H206.841Z" fill="#CCCCCC"/>
<path d="M206.841 113.039H187.797C187.733 113.031 187.674 113.002 187.631 112.956C187.589 112.91 187.565 112.851 187.565 112.789C187.565 112.728 187.589 112.669 187.631 112.623C187.674 112.577 187.733 112.547 187.797 112.539H206.841C206.905 112.547 206.964 112.577 207.006 112.623C207.049 112.669 207.072 112.728 207.072 112.789C207.072 112.851 207.049 112.91 207.006 112.956C206.964 113.002 206.905 113.031 206.841 113.039H206.841Z" fill="#CCCCCC"/>
<path d="M215.091 110.288H209.558C209.493 110.276 209.433 110.232 209.39 110.163C209.347 110.094 209.323 110.005 209.323 109.913C209.323 109.822 209.347 109.733 209.39 109.664C209.433 109.595 209.493 109.55 209.558 109.538H215.091C215.156 109.55 215.215 109.595 215.258 109.664C215.301 109.733 215.325 109.822 215.325 109.913C215.325 110.005 215.301 110.094 215.258 110.163C215.215 110.232 215.156 110.276 215.091 110.288Z" fill="#CCCCCC"/>
<path d="M215.091 113.039H209.558C209.493 113.031 209.433 113.002 209.39 112.956C209.347 112.91 209.323 112.851 209.323 112.789C209.323 112.728 209.347 112.669 209.39 112.623C209.433 112.577 209.493 112.547 209.558 112.539H215.091C215.156 112.547 215.215 112.577 215.258 112.623C215.301 112.669 215.325 112.728 215.325 112.789C215.325 112.851 215.301 112.91 215.258 112.956C215.215 113.002 215.156 113.031 215.091 113.039Z" fill="#CCCCCC"/>
<path d="M224.344 110.288H218.811C218.746 110.276 218.686 110.232 218.643 110.163C218.6 110.094 218.576 110.005 218.576 109.913C218.576 109.822 218.6 109.733 218.643 109.664C218.686 109.595 218.746 109.55 218.811 109.538H224.344C224.409 109.55 224.468 109.595 224.511 109.664C224.555 109.733 224.578 109.822 224.578 109.913C224.578 110.005 224.555 110.094 224.511 110.163C224.468 110.232 224.409 110.276 224.344 110.288Z" fill="#CCCCCC"/>
<path d="M228.096 107.287H197.803C197.738 107.279 197.679 107.25 197.636 107.204C197.593 107.158 197.569 107.099 197.569 107.037C197.569 106.976 197.593 106.917 197.636 106.871C197.679 106.825 197.738 106.795 197.803 106.787H228.096C228.161 106.795 228.22 106.825 228.263 106.871C228.306 106.917 228.33 106.976 228.33 107.037C228.33 107.099 228.306 107.158 228.263 107.204C228.22 107.25 228.161 107.279 228.096 107.287Z" fill="#CCCCCC"/>
<path d="M193.333 107.287H187.8C187.735 107.279 187.675 107.25 187.632 107.204C187.589 107.158 187.565 107.099 187.565 107.037C187.565 106.976 187.589 106.917 187.632 106.871C187.675 106.825 187.735 106.795 187.8 106.787H193.333C193.398 106.795 193.457 106.825 193.501 106.871C193.544 106.917 193.568 106.976 193.568 107.037C193.568 107.099 193.544 107.158 193.501 107.204C193.457 107.25 193.398 107.279 193.333 107.287Z" fill="#CCCCCC"/>
<path d="M202.333 84.2794L194.818 91.6571L202.333 99.0346L204.024 97.3536L198.341 91.7037L204.071 86.0071L202.333 84.2794Z" fill="#E6E6E6"/>
<path d="M213.312 84.2794L220.827 91.6571L213.312 99.0346L211.621 97.3536L217.304 91.7037L211.574 86.0071L213.312 84.2794Z" fill="#E6E6E6"/>
<path d="M202.333 84.2794L194.818 91.6571L202.333 99.0346L204.024 97.3536L198.341 91.7037L204.071 86.0071L202.333 84.2794Z" fill="#14AFDD"/>
<path d="M213.312 84.2794L220.827 91.6571L213.312 99.0346L211.621 97.3536L217.304 91.7037L211.574 86.0071L213.312 84.2794Z" fill="#14AFDD"/>
<path d="M121.61 134.316V146.852H118.028L115.64 133.719L121.61 134.316Z" fill="#FFB9B9"/>
<path d="M93.2549 134.316V146.852H89.6734L87.2856 133.719L93.2549 134.316Z" fill="#FFB9B9"/>
<path d="M112.15 41.906C112.15 41.906 106.394 37.7692 105.675 39.7477C104.955 41.7261 109.991 45.3233 109.991 45.3233L112.15 41.906Z" fill="#FFB9B9"/>
<path d="M91.7356 47.2119C91.7356 54.3639 94.8149 54.5861 99.8312 54.5861C104.848 54.5861 109.901 54.3639 109.901 47.2119C109.901 40.0598 105.835 34.262 100.819 34.262C95.8021 34.262 91.7356 40.0598 91.7356 47.2119Z" fill="#2F2E41"/>
<path d="M104.056 47.1219C104.056 47.1219 103.337 52.5176 106.754 52.8774C110.171 53.2371 95.6026 54.3162 95.6026 54.3162C95.6026 54.3162 99.3797 50.8989 97.4012 48.201C95.4227 45.5031 104.056 47.1219 104.056 47.1219Z" fill="#FFB9B9"/>
<path d="M122.222 143.527L123.481 154.138C123.481 154.138 129.776 161.872 125.819 161.333C121.862 160.793 119.344 161.448 119.344 160.728C119.344 160.009 119.251 157.438 118.711 157.438C118.172 157.438 117.725 161.497 117.725 161.497C117.725 161.497 116.107 161.375 115.927 161.195C115.747 161.015 115.567 150.721 115.567 150.721C115.567 150.721 115.027 147.664 116.107 146.225C117.186 144.786 117.006 143.527 117.006 143.527L122.222 143.527Z" fill="#2F2E41"/>
<path d="M93.5685 143.41L94.8275 154.022C94.8275 154.022 101.123 161.756 97.1657 161.216C93.2088 160.677 90.6908 161.331 90.6908 160.612C90.6908 159.892 90.5977 157.322 90.0581 157.322C89.5186 157.322 89.072 161.381 89.072 161.381C89.072 161.381 87.4533 161.258 87.2734 161.078C87.0936 160.898 86.9137 150.605 86.9137 150.605C86.9137 150.605 86.3741 147.547 87.4533 146.108C88.5324 144.669 88.3526 143.41 88.3526 143.41H93.5685Z" fill="#2F2E41"/>
<path d="M112.869 80.396C112.869 80.396 118.625 96.7632 118.984 100.36C119.344 103.958 118.625 116.188 118.625 116.188C118.625 116.188 123.841 137.32 122.761 137.5C121.682 137.68 115.672 138.533 115.493 137.633C115.313 136.734 114.672 135.342 114.851 134.802C115.031 134.262 114.312 132.284 114.312 131.205C114.312 130.126 111.79 124.462 111.97 123.562C112.15 122.663 108.912 109.353 108.373 108.274C107.833 107.195 106.394 99.641 106.394 99.641C106.394 99.641 98.3004 121.764 98.1206 122.303C97.9407 122.843 97.2213 123.742 97.581 123.922C97.9407 124.102 97.0414 125.361 97.0414 125.361C97.0414 125.361 95.1777 132.824 95.1777 133.183C95.1777 133.543 95.5374 137.615 94.818 137.795C94.0985 137.974 86.7498 137.963 86.3901 136.704C86.0304 135.445 90.2067 120.864 90.2067 120.864C90.2067 120.864 93.2644 111.692 92.3651 109.353C91.4658 107.015 93.2644 92.9862 93.9838 91.907C94.7032 90.8279 94.8831 84.3529 94.8831 84.3529L112.869 80.396Z" fill="#A0616A"/>
<path d="M100.908 50.0896C104.087 50.0896 106.664 47.5128 106.664 44.3341C106.664 41.1554 104.087 38.5786 100.908 38.5786C97.7297 38.5786 95.1529 41.1554 95.1529 44.3341C95.1529 47.5128 97.7297 50.0896 100.908 50.0896Z" fill="#FFB9B9"/>
<path d="M104.056 51.6184C104.056 51.6184 97.581 51.7982 97.2213 51.2587C96.8616 50.7191 87.8686 52.5177 87.8686 56.1149C87.8686 59.7121 93.0845 73.7411 93.0845 73.7411C93.0845 73.7411 95.063 83.8133 94.5234 84.8924C93.9838 85.9716 114.488 82.5542 113.948 80.7556C113.409 78.957 110.351 75.0001 114.308 71.5828C118.265 68.1655 119.884 64.5683 119.884 64.5683L115.207 52.1579C115.207 52.1579 110.531 51.4385 109.452 52.1579C108.373 52.8774 104.056 51.6184 104.056 51.6184Z" fill="#14AFDD"/>
<path d="M118.625 65.4677L119.884 64.5684C119.884 64.5684 131.575 52.3379 128.517 49.9997C125.459 47.6616 120.963 45.5033 118.804 45.3234C116.646 45.1435 114.848 43.5248 114.848 43.5248C114.848 43.5248 112.509 39.388 110.711 42.0859C108.912 44.7838 106.934 45.6831 109.452 46.5824C111.97 47.4817 113.589 47.122 114.848 48.0213C116.107 48.9206 120.963 50.3595 118.804 50.899C117.567 51.199 116.362 51.6208 115.207 52.1581L112.869 56.2948L118.625 65.4677Z" fill="#14AFDD"/>
<path d="M93.2826 99.4314C93.2826 99.4314 103.054 96.7255 103.655 105.445C104.257 114.164 95.6127 116.644 102.378 118.373" stroke="#2F2E41" stroke-width="2" stroke-miterlimit="10"/>
<path d="M98.3005 95.864C98.3005 95.864 102.977 102.699 99.5595 102.339C96.1422 101.979 94.5234 97.3029 94.5234 97.3029L98.3005 95.864Z" fill="#FFB9B9"/>
<path d="M89.1276 55.2156L87.8686 56.1149C87.8686 56.1149 83.7318 78.7772 87.8686 84.7126C92.0054 90.6479 92.3651 90.2882 92.3651 90.2882C92.3651 90.2882 93.0845 89.7487 93.4443 93.3458C93.804 96.943 93.2644 98.3819 94.3436 98.3819C95.4227 98.3819 100.279 97.3028 99.9192 96.4035C99.5595 95.5042 97.2213 90.2882 97.0415 89.0292C96.8616 87.7702 95.9623 84.8924 95.6026 83.2737C95.2429 81.655 97.2213 80.7557 96.322 77.3383C95.4227 73.921 94.1637 67.8058 94.1637 66.5467C94.1637 65.2877 89.1276 55.2156 89.1276 55.2156Z" fill="#14AFDD"/>
<path d="M95.3328 39.2082C95.3328 41.1452 97.9901 42.7155 101.268 42.7155C104.546 42.7155 107.563 43.7532 107.563 41.8162C107.563 39.8791 104.546 35.7009 101.268 35.7009C97.9901 35.7009 95.3328 37.2712 95.3328 39.2082Z" fill="#2F2E41"/>
<path d="M109.848 48.4257C109.848 48.4257 110.09 54.9458 103.611 54.5861C97.1314 54.2263 104.486 49.0128 104.486 49.0128L109.848 48.4257Z" fill="#2F2E41"/>
</g>
<defs>
<clipPath id="clip0">
<rect width="280" height="174.811" fill="white"/>
</clipPath>
</defs>
</svg>
