<svg width="276" height="172" viewBox="0 0 276 172" fill="none" xmlns="http://www.w3.org/2000/svg">
<g clip-path="url(#clip0)">
<path d="M209.817 152.218C244.331 152.218 272.31 124.388 272.31 90.0583C272.31 55.7284 244.331 27.8984 209.817 27.8984C175.304 27.8984 147.325 55.7284 147.325 90.0583C147.325 124.388 175.304 152.218 209.817 152.218Z" fill="#F2F2F2"/>
<path d="M33.9047 47.4765C47.085 47.4765 57.7698 36.8485 57.7698 23.7383C57.7698 10.628 47.085 0 33.9047 0C20.7243 0 10.0396 10.628 10.0396 23.7383C10.0396 36.8485 20.7243 47.4765 33.9047 47.4765Z" fill="#FF6584"/>
<path d="M76.7142 127.501C111.228 127.501 139.206 99.6712 139.206 65.3413C139.206 31.0113 111.228 3.1814 76.7142 3.1814C42.2008 3.1814 14.2221 31.0113 14.2221 65.3413C14.2221 99.6712 42.2008 127.501 76.7142 127.501Z" fill="#F2F2F2"/>
<path d="M73.7618 130.927C111.672 130.927 142.405 129.284 142.405 127.257C142.405 125.229 111.672 123.586 73.7618 123.586C35.8514 123.586 5.11894 125.229 5.11894 127.257C5.11894 129.284 35.8514 130.927 73.7618 130.927Z" fill="#3F3D56"/>
<path opacity="0.1" d="M59.9841 129.915C88.3829 129.915 111.405 128.781 111.405 127.383C111.405 125.985 88.3829 124.852 59.9841 124.852C31.5852 124.852 8.56342 125.985 8.56342 127.383C8.56342 128.781 31.5852 129.915 59.9841 129.915Z" fill="black"/>
<path d="M207.357 156.868C245.268 156.868 276 155.06 276 152.83C276 150.6 245.268 148.792 207.357 148.792C169.447 148.792 138.714 150.6 138.714 152.83C138.714 155.06 169.447 156.868 207.357 156.868Z" fill="#3F3D56"/>
<path opacity="0.1" d="M193.579 155.754C221.978 155.754 245 154.507 245 152.969C245 151.431 221.978 150.185 193.579 150.185C165.181 150.185 142.159 151.431 142.159 152.969C142.159 154.507 165.181 155.754 193.579 155.754Z" fill="black"/>
<path d="M98.635 145.611C122.827 145.611 142.439 144.625 142.439 143.408C142.439 142.192 122.827 141.206 98.635 141.206C74.4425 141.206 54.8306 142.192 54.8306 143.408C54.8306 144.625 74.4425 145.611 98.635 145.611Z" fill="#3F3D56"/>
<path d="M21.1349 137.129C32.8073 137.129 42.2697 136.653 42.2697 136.067C42.2697 135.48 32.8073 135.004 21.1349 135.004C9.4624 135.004 0 135.48 0 136.067C0 136.653 9.4624 137.129 21.1349 137.129Z" fill="#3F3D56"/>
<path d="M234.45 171.082C256.175 171.082 273.786 170.197 273.786 169.104C273.786 168.012 256.175 167.126 234.45 167.126C212.726 167.126 195.115 168.012 195.115 169.104C195.115 170.197 212.726 171.082 234.45 171.082Z" fill="#3F3D56"/>
<path d="M230.238 105.966H151.508V152.463H230.238V105.966Z" fill="#3F3D56"/>
<path d="M176.849 147.324C186.633 147.324 194.563 139.435 194.563 129.704C194.563 119.973 186.633 112.084 176.849 112.084C167.066 112.084 159.135 119.973 159.135 129.704C159.135 139.435 167.066 147.324 176.849 147.324Z" fill="#14AFDD"/>
<path d="M205.881 113.307H199.976V119.181H205.881V113.307Z" fill="#14AFDD"/>
<path opacity="0.5" d="M213.262 113.307H207.357V119.181H213.262V113.307Z" fill="#14AFDD"/>
<path opacity="0.2" d="M220.643 113.307H214.738V119.181H220.643V113.307Z" fill="#14AFDD"/>
<path d="M205.881 120.649H199.976V126.522H205.881V120.649Z" fill="#2F2E41"/>
<path opacity="0.5" d="M213.262 120.649H207.357V126.522H213.262V120.649Z" fill="#2F2E41"/>
<path opacity="0.2" d="M220.643 120.649H214.738V126.522H220.643V120.649Z" fill="#2F2E41"/>
<path d="M205.881 127.991H199.976V133.864H205.881V127.991Z" fill="#FF6584"/>
<path opacity="0.5" d="M213.262 127.991H207.357V133.864H213.262V127.991Z" fill="#FF6584"/>
<path opacity="0.2" d="M220.643 127.991H214.738V133.864H220.643V127.991Z" fill="#FF6584"/>
<path opacity="0.5" d="M176.849 112.084V147.324C186.633 147.324 195.056 139.435 195.056 129.704C195.056 119.973 186.633 112.084 176.849 112.084Z" fill="#3F3D56"/>
<path d="M247.091 109.269C247.091 109.269 257.425 113.919 253.734 119.303C250.044 124.687 238.972 134.965 238.726 137.168C238.48 139.37 237.004 141.328 237.004 141.328C237.004 141.328 232.083 136.189 232.575 135.7C233.067 135.21 237.988 130.56 238.234 129.337C238.48 128.113 245.861 118.569 245.861 118.569L239.218 112.695L247.091 109.269Z" fill="#FFB9B9"/>
<path opacity="0.1" d="M247.091 109.269C247.091 109.269 257.425 113.919 253.734 119.303C250.044 124.687 238.972 134.965 238.726 137.168C238.48 139.37 237.004 141.328 237.004 141.328C237.004 141.328 232.083 136.189 232.575 135.7C233.067 135.21 237.988 130.56 238.234 129.337C238.48 128.113 245.861 118.569 245.861 118.569L239.218 112.695L247.091 109.269Z" fill="black"/>
<path d="M234.052 119.548C234.052 119.548 241.187 122.485 240.695 127.134C240.202 131.784 249.306 144.999 249.306 144.999C249.306 144.999 250.29 148.181 250.044 149.159C249.798 150.138 256.441 149.894 256.441 149.894V147.691C256.441 147.691 251.274 138.881 250.782 136.434C250.29 133.987 247.337 124.442 247.337 124.442C247.337 124.442 246.353 115.877 241.433 115.877C240 115.877 238.588 116.209 237.307 116.846C236.025 117.483 234.911 118.408 234.052 119.548Z" fill="#FFB9B9"/>
<path d="M234.421 97.4001C234.421 97.4001 249.183 109.392 248.69 110.371C248.198 111.349 241.063 115.02 239.833 115.265C238.603 115.51 229.899 97.4001 229.899 97.4001H234.421Z" fill="#2F2E41"/>
<path opacity="0.1" d="M234.421 97.4001C234.421 97.4001 249.183 109.392 248.69 110.371C248.198 111.349 241.063 115.02 239.833 115.265C238.603 115.51 229.899 97.4001 229.899 97.4001H234.421Z" fill="black"/>
<path d="M218.429 99.8475C218.429 99.8475 216.952 106.455 220.889 109.147C224.825 111.839 231.468 122.362 232.206 122.362C232.944 122.362 243.524 116.733 243.032 115.755C242.54 114.776 237.127 106.21 237.127 106.21L235.405 97.1555C235.405 97.1555 220.397 96.6661 218.429 99.8475Z" fill="#2F2E41"/>
<path d="M234.421 78.3118L236.635 92.5058L240.572 102.539C240.572 102.539 246.476 108.658 243.032 109.147C239.587 109.636 237.619 102.539 237.619 102.539L234.421 96.6661V78.3118Z" fill="#FFB9B9"/>
<path opacity="0.1" d="M234.421 78.3118L236.635 92.5058L240.572 102.539C240.572 102.539 246.476 108.658 243.032 109.147C239.587 109.636 237.619 102.539 237.619 102.539L234.421 96.6661V78.3118Z" fill="black"/>
<path d="M226.179 62.5271C226.179 62.5271 226.179 67.6663 224.456 68.1558C222.734 68.6452 231.345 75.2528 231.345 75.2528C231.345 75.2528 230.361 66.6874 233.806 64.4849L226.179 62.5271Z" fill="#FFB9B9"/>
<path opacity="0.1" d="M226.179 62.5271C226.179 62.5271 226.179 67.6663 224.456 68.1558C222.734 68.6452 231.345 75.2528 231.345 75.2528C231.345 75.2528 230.361 66.6874 233.806 64.4849L226.179 62.5271Z" fill="black"/>
<path d="M230.115 66.6872C233.24 66.6872 235.774 64.1672 235.774 61.0586C235.774 57.95 233.24 55.4299 230.115 55.4299C226.99 55.4299 224.456 57.95 224.456 61.0586C224.456 64.1672 226.99 66.6872 230.115 66.6872Z" fill="#FFB9B9"/>
<path d="M230.361 72.8054C230.361 72.8054 225.194 66.4426 224.456 66.6873C223.718 66.932 218.306 72.316 217.813 74.029C217.321 75.7421 216.337 87.9783 217.075 90.4256C217.813 92.8728 217.813 99.2356 217.567 99.7251C217.321 100.215 215.845 101.438 217.321 101.438C218.798 101.438 223.964 97.7673 227.409 98.5015C230.853 99.2356 235.528 98.2567 235.774 97.7673C236.02 97.2778 235.528 84.5522 235.774 83.5733C236.02 82.5944 235.282 77.6999 235.036 76.721C234.79 75.7421 234.79 71.8265 232.329 70.8476L231.28 70.7445L231.222 73.1652L230.361 72.8054Z" fill="#14AFDD"/>
<path d="M219.536 85.531C219.536 85.531 220.028 93.1175 223.718 96.2989C227.409 99.4803 235.282 104.864 235.774 105.843C236.266 106.822 240.941 111.961 241.925 109.759C242.21 109.072 242.279 108.315 242.122 107.589C241.979 106.867 241.689 106.181 241.27 105.575C240.851 104.968 240.312 104.453 239.685 104.062L237.496 102.662L226.671 91.4044L226.179 85.531H219.536Z" fill="#FFB9B9"/>
<path d="M233.683 134.843C233.683 134.843 230.853 134.231 229.869 135.944C228.885 137.657 230.853 142.307 230.853 142.307C230.853 142.307 236.512 154.054 237.496 152.586C238.48 151.117 236.758 145.733 236.758 145.733C236.758 145.733 239.218 140.349 238.234 140.105C237.25 139.86 233.683 137.78 233.683 134.843Z" fill="#2F2E41"/>
<path d="M251.028 148.915C251.028 148.915 249.552 148.18 249.306 148.915C249.06 149.649 247.583 153.32 249.306 153.809C251.028 154.299 268.004 154.788 267.512 153.809C267.02 152.83 264.313 151.607 262.591 151.117C260.869 150.628 256.441 146.957 256.441 146.957C256.441 146.957 253.98 150.138 251.028 148.915Z" fill="#2F2E41"/>
<path d="M235.816 56.5913C235.709 56.2362 235.475 55.9324 235.158 55.738C235.175 55.3576 235.128 54.9771 235.019 54.6118C234.658 53.5486 233.801 53.6096 232.993 53.1395C232.643 52.9356 232.664 52.7553 232.482 52.4204C232.243 51.9813 231.884 51.6177 231.448 51.371C230.929 51.0425 230.382 50.7041 229.769 50.6625C228.48 50.5751 227.492 51.781 226.26 52.168C225.717 52.3386 225.133 52.3456 224.587 52.5069C224.041 52.6682 223.497 53.0532 223.415 53.6139C223.378 53.8727 223.444 54.1382 223.406 54.3969C223.33 54.9112 222.877 55.2714 222.573 55.6943C221.902 56.6297 221.978 57.9511 222.515 58.9689C222.628 59.1795 222.758 59.381 222.903 59.5716C222.947 60.0526 223.086 60.5203 223.311 60.9484C223.848 61.9661 224.772 62.7266 225.738 63.3584C225.659 63.0209 225.611 62.6769 225.594 62.3307C225.581 62.2153 225.596 62.0984 225.638 61.9902C225.746 61.7667 226.03 61.7072 226.246 61.5848C226.695 61.3313 226.871 60.7702 226.884 60.2571C226.897 59.7441 226.788 59.2302 226.842 58.7199C226.844 58.6025 226.871 58.4869 226.92 58.3804C226.97 58.274 227.042 58.1792 227.131 58.102C227.296 58.008 227.485 57.9632 227.676 57.9727C228.595 57.9354 229.555 57.9186 230.366 57.4863C230.627 57.3136 230.908 57.1722 231.203 57.065C231.892 56.8863 232.596 57.3666 232.993 57.9545C233.39 58.5423 233.588 59.2419 233.954 59.8492C234.321 60.4564 234.954 60.998 235.662 60.926C235.702 60.9261 235.741 60.9178 235.778 60.9017C235.814 60.8856 235.847 60.862 235.874 60.8325C235.904 60.7779 235.918 60.7155 235.912 60.6532L235.952 57.9601C235.985 57.4994 235.939 57.0366 235.816 56.5913Z" fill="#2F2E41"/>
<path d="M221.75 73.05C221.75 73.05 227.163 75.4973 226.917 80.6365C226.671 85.7757 228.393 86.2652 224.21 86.7546C220.028 87.2441 219.044 86.7546 218.798 87.2441C218.552 87.7335 217.075 75.9867 218.06 74.7631C219.044 73.5395 221.75 73.05 221.75 73.05Z" fill="#14AFDD"/>
<path d="M112.881 31.5693C117.229 31.5693 120.754 28.0632 120.754 23.7382C120.754 19.4131 117.229 15.907 112.881 15.907C108.533 15.907 105.008 19.4131 105.008 23.7382C105.008 28.0632 108.533 31.5693 112.881 31.5693Z" fill="#2F2E41"/>
<path d="M118.171 109.514L113.742 121.506C113.742 121.506 110.052 124.442 112.266 125.421C114.48 126.4 118.909 124.442 118.909 124.442L122.353 115.632L121.861 109.514H118.171Z" fill="#2F2E41"/>
<path opacity="0.1" d="M118.171 109.514L113.742 121.506C113.742 121.506 110.052 124.442 112.266 125.421C114.48 126.4 118.909 124.442 118.909 124.442L122.353 115.632L121.861 109.514H118.171Z" fill="black"/>
<path d="M118.54 38.4216L122.23 38.9111C122.23 38.9111 123.952 52.3709 123.214 53.3498C122.476 54.3287 118.786 58.2443 117.31 57.2654C115.833 56.2865 118.54 38.4216 118.54 38.4216Z" fill="#575A89"/>
<path d="M83.2341 63.0166C83.2341 63.0166 78.0674 65.2191 77.0833 65.4638C76.0992 65.7086 74.623 68.1558 76.3452 68.6452C78.0674 69.1347 84.7103 64.2402 84.7103 64.2402L83.2341 63.0166Z" fill="#A0616A"/>
<path d="M119.893 114.409L122.599 124.442C122.599 124.442 122.845 128.113 124.075 128.358C125.306 128.603 128.996 127.134 128.996 126.645C128.996 126.155 127.52 122.24 127.52 122.24C127.52 122.24 127.52 119.303 126.044 118.079C124.567 116.856 123.238 112.757 123.238 112.757L119.893 114.409Z" fill="#2F2E41"/>
<path d="M123.337 91.4046C123.834 92.5572 123.773 100.919 123.229 106.484C122.966 109.189 122.589 111.232 122.107 111.472L118.581 110.596L117.187 110.248L117.15 107.204L116.94 90.4257L112.758 73.0503V68.6453L123.337 69.6242L125.015 72.2452L125.06 72.3161C125.06 72.3161 122.599 89.6915 123.337 91.4046Z" fill="#2F2E41"/>
<path opacity="0.1" d="M121.123 96.7885C121.65 97.5741 122.528 102.278 123.229 106.484C122.966 109.189 122.589 111.232 122.107 111.472L118.581 110.596C118.527 110.483 118.473 110.366 118.417 110.248C117.966 109.309 117.543 108.271 117.15 107.204L116.94 90.4257L112.758 73.0503V68.6453L123.337 69.6242L125.015 72.2452L115.218 71.582L117.433 81.1262L120.139 91.1599C120.139 91.1599 120.139 95.3202 121.123 96.7885Z" fill="black"/>
<path d="M103.655 58.8562C103.655 58.8562 100.21 66.4427 105.131 76.9658C108.176 83.5145 110.886 90.2121 113.25 97.0332C113.25 97.0332 114.972 105.109 117.433 110.248C119.893 115.387 119.401 115.632 119.401 115.632L123.337 113.43C123.337 113.43 121.123 98.2568 120.139 96.7885C119.155 95.3201 119.155 91.1598 119.155 91.1598L116.448 81.1261L114.234 71.5819L125.06 72.316C125.06 72.316 125.06 58.3668 120.139 55.6748L103.655 58.8562Z" fill="#2F2E41"/>
<path d="M107.714 27.4092C107.714 27.4092 107.714 31.3248 106.484 31.5695C105.254 31.8142 102.794 31.8142 102.056 33.0378C101.317 34.2615 107.714 50.4132 107.714 50.4132L114.357 46.2529L116.571 35.2404C116.571 35.2404 113.373 33.2826 113.373 32.3037V27.8986L107.714 27.4092Z" fill="#A0616A"/>
<path opacity="0.1" d="M107.714 27.4092C107.714 27.4092 107.714 31.3248 106.484 31.5695C105.254 31.8142 102.794 31.8142 102.056 33.0378C101.317 34.2615 107.714 50.4132 107.714 50.4132L114.357 46.2529L116.571 35.2404C116.571 35.2404 113.373 33.2826 113.373 32.3037V27.8986L107.714 27.4092Z" fill="black"/>
<path d="M111.528 31.6918C114.789 31.6918 117.433 29.0622 117.433 25.8184C117.433 22.5747 114.789 19.9451 111.528 19.9451C108.267 19.9451 105.623 22.5747 105.623 25.8184C105.623 29.0622 108.267 31.6918 111.528 31.6918Z" fill="#A0616A"/>
<path d="M108.452 45.5186C108.452 45.5186 106.238 31.5693 105.746 31.5693C105.254 31.5693 98.3651 33.0377 97.873 33.2824C97.381 33.5271 95.6588 35.7296 95.6588 35.7296L99.1032 45.5186C99.1032 45.5186 100.579 52.3709 101.564 53.5945C102.548 54.8181 104.516 58.2443 103.532 58.7337C102.548 59.2232 101.564 59.9574 102.548 59.9574C103.532 59.9574 111.651 58.489 112.143 59.2232C112.635 59.9574 120.754 56.5312 120.754 56.2865C120.754 56.0418 119.77 44.5397 119.77 44.5397L122.23 38.9111L114.849 33.7719L108.452 45.5186Z" fill="#575A89"/>
<path d="M98.1191 34.5061L95.6587 35.7297C95.6587 35.7297 88.7699 51.3921 88.2778 51.6368C87.7857 51.8815 85.3254 56.5313 85.0794 57.5102C84.8333 58.4891 84.3413 61.6705 83.6032 62.1599C83.2073 62.4274 82.7966 62.6725 82.373 62.8941C82.373 62.8941 83.8492 65.3414 84.5873 65.3414C85.3254 65.3414 87.7857 61.9152 87.7857 61.9152C87.7857 61.9152 93.1984 65.3414 94.6746 62.6494C96.1508 59.9574 99.8413 42.8267 99.8413 42.8267L98.1191 34.5061Z" fill="#575A89"/>
<path d="M117.432 41.9701C117.432 41.9701 113.988 33.6495 112.02 34.6284C110.051 35.6073 113.496 41.4807 115.71 42.4596L117.432 41.9701Z" fill="#A0616A"/>
<path opacity="0.1" d="M113.988 42.2149L117.44 41.4387L118.171 45.1516C118.171 45.1516 121.369 50.7803 120.631 53.2275C119.893 55.6748 115.464 59.5903 113.988 57.3878C112.512 55.1853 111.282 51.7592 112.266 49.8014C113.25 47.8436 114.726 43.1938 113.988 42.2149Z" fill="black"/>
<path d="M114.726 41.7257L118.178 40.9495L118.909 44.6624C118.909 44.6624 122.107 50.291 121.369 52.7383C120.631 55.1855 116.202 59.1011 114.726 56.8986C113.25 54.696 112.02 51.2699 113.004 49.3121C113.988 47.3543 115.464 42.7046 114.726 41.7257Z" fill="#575A89"/>
<path d="M118.474 24.639C119.137 23.2315 117.28 20.9749 114.327 19.5989C111.374 18.2228 108.443 18.2483 107.78 19.6558C107.117 21.0633 108.973 23.3199 111.927 24.6959C114.88 26.072 117.811 26.0465 118.474 24.639Z" fill="#2F2E41"/>
<path d="M117.556 20.5569C119.458 20.5569 121 19.0229 121 17.1307C121 15.2385 119.458 13.7046 117.556 13.7046C115.653 13.7046 114.111 15.2385 114.111 17.1307C114.111 19.0229 115.653 20.5569 117.556 20.5569Z" fill="#2F2E41"/>
<path d="M114.357 15.9071C114.357 15.0621 114.671 14.2469 115.239 13.6182C115.807 12.9896 116.588 12.5917 117.433 12.5012C116.952 12.449 116.465 12.4981 116.004 12.6454C115.544 12.7928 115.119 13.035 114.759 13.3563C114.399 13.6777 114.111 14.0709 113.913 14.5104C113.716 14.9499 113.614 15.4258 113.614 15.9071C113.614 16.3884 113.716 16.8643 113.913 17.3038C114.111 17.7433 114.399 18.1365 114.759 18.4579C115.119 18.7792 115.544 19.0214 116.004 19.1688C116.465 19.3161 116.952 19.3652 117.433 19.313C116.588 19.2225 115.807 18.8246 115.239 18.196C114.671 17.5673 114.357 16.7521 114.357 15.9071Z" fill="#2F2E41"/>
<path d="M102.056 67.7886H15.9444V127.257H102.056V67.7886Z" fill="#3F3D56"/>
<path d="M34.1507 73.6621H22.8332V84.9194H34.1507V73.6621Z" fill="#F2F2F2"/>
<path d="M34.1507 92.0164H22.8332V103.274H34.1507V92.0164Z" fill="#14AFDD"/>
<path d="M34.1507 110.371H22.8332V121.628H34.1507V110.371Z" fill="#F2F2F2"/>
<path d="M93.4444 77.2104H39.5634V78.1894H93.4444V77.2104Z" fill="#F2F2F2"/>
<path d="M56.2936 80.3918H39.5634V81.3707H56.2936V80.3918Z" fill="#F2F2F2"/>
<path d="M93.4444 95.5647H39.5634V96.5436H93.4444V95.5647Z" fill="#F2F2F2"/>
<path d="M56.2936 98.7461H39.5634V99.725H56.2936V98.7461Z" fill="#F2F2F2"/>
<path d="M93.4444 113.919H39.5634V114.898H93.4444V113.919Z" fill="#F2F2F2"/>
<path d="M56.2936 117.101H39.5634V118.079H56.2936V117.101Z" fill="#F2F2F2"/>
<path d="M243.524 163.704C243.524 168.686 240.547 170.425 236.874 170.425C236.789 170.425 236.704 170.424 236.619 170.422C236.449 170.418 236.28 170.41 236.114 170.399C232.799 170.166 230.224 168.337 230.224 163.704C230.224 158.91 236.383 152.861 236.846 152.412L236.847 152.412C236.865 152.394 236.874 152.385 236.874 152.385C236.874 152.385 243.524 158.723 243.524 163.704Z" fill="#14AFDD"/>
<path d="M236.632 169.663L239.064 166.283L236.625 170.034L236.619 170.422C236.449 170.418 236.28 170.41 236.114 170.399L236.376 165.415L236.374 165.376L236.378 165.37L236.403 164.898L233.959 161.138L236.411 164.545L236.417 164.645L236.614 160.88L234.522 156.994L236.64 160.219L236.846 152.412L236.847 152.385V152.412L236.813 158.568L238.896 156.127L236.804 159.098L236.749 162.469L238.695 159.234L236.741 162.966L236.71 164.84L239.534 160.336L236.699 165.494L236.632 169.663Z" fill="#3F3D56"/>
<path d="M27.7539 129.687C27.7539 134.669 24.7769 136.408 21.1041 136.408C21.019 136.408 20.9339 136.407 20.8495 136.405C20.6793 136.401 20.5104 136.394 20.3439 136.382C17.0291 136.149 14.4543 134.32 14.4543 129.687C14.4543 124.894 20.6126 118.844 21.0765 118.395L21.0772 118.395C21.0949 118.377 21.1041 118.369 21.1041 118.369C21.1041 118.369 27.7539 124.706 27.7539 129.687Z" fill="#14AFDD"/>
<path d="M20.8616 135.646L23.2938 132.266L20.8555 136.018L20.8494 136.405C20.6792 136.402 20.5103 136.394 20.3438 136.382L20.6058 131.399L20.6039 131.36L20.6082 131.353L20.6333 130.882L18.1888 127.121L20.6407 130.529L20.6468 130.629L20.8445 126.863L18.7519 122.977L20.8702 126.203L21.0764 118.396L21.077 118.369V118.395L21.0428 124.551L23.1262 122.11L21.0342 125.081L20.9791 128.453L22.9248 125.217L20.9712 128.949L20.9406 130.823L23.7639 126.32L20.9295 131.477L20.8616 135.646Z" fill="#3F3D56"/>
</g>
<defs>
<clipPath id="clip0">
<rect width="276" height="171.082" fill="white"/>
</clipPath>
</defs>
</svg>
