<svg width="223" height="48" viewBox="0 0 223 48" fill="none" xmlns="http://www.w3.org/2000/svg">
<path d="M24.5243 13.7181L36.248 7.44424L36.1284 19.9919L24.5243 13.7181Z" fill="#4E4D4D" stroke="#4E4D4D" stroke-width="0.6075" stroke-miterlimit="10"/>
<path d="M36.2481 19.9919C36.2481 19.8818 41.9903 23.0738 41.9903 23.0738V4.36237C41.9903 4.36237 36.1284 7.55431 36.2481 7.44424C36.3677 7.44424 36.2481 19.9919 36.2481 19.9919Z" fill="#454544" stroke="#454544" stroke-width="0.426" stroke-miterlimit="10"/>
<path d="M11.6042 33.31L23.9261 26.706L11.963 20.212L11.6042 33.31Z" fill="#4E4D4D" stroke="#4E4D4D" stroke-width="0.6075" stroke-miterlimit="10"/>
<path d="M6.57968 35.9516L12.4416 32.8697V13.608L44.7418 31.1087C44.7418 31.1087 45.8185 31.8791 47.1344 31.1087C47.1344 31.1087 47.8522 30.5583 47.8522 30.008V1.17041L42.1099 4.25229L41.9903 22.9637L9.69007 5.5731C9.69007 5.5731 8.85266 4.80262 7.65636 5.35296C7.65636 5.35296 6.57968 5.68316 6.57968 7.11403V35.9516Z" fill="#26A0C4"/>
<path d="M6.57968 35.9516L12.4416 32.8697V13.608L44.7418 31.1087C44.7418 31.1087 45.8185 31.8791 47.1344 31.1087C47.1344 31.1087 47.8522 30.5583 47.8522 30.008V1.17041L42.1099 4.25229L41.9903 22.9637L9.69007 5.5731C9.69007 5.5731 8.85266 4.80262 7.65636 5.35296C7.65636 5.35296 6.57968 5.68316 6.57968 7.11403V35.9516" stroke="#26A0C4" stroke-width="0.426" stroke-miterlimit="10"/>
<path d="M3.58891 9.20532C2.87113 8.98518 2.15335 9.09525 1.79446 9.31539C0.717783 9.75565 0.717783 10.8563 0.717783 10.8563L0.598152 39.0335L6.46005 35.9516L6.34042 17.1302L38.6407 34.6308C39.7173 35.2912 40.5547 34.961 40.5547 34.961C41.8707 34.5208 41.8707 33.31 41.8707 33.31V29.7879L36.0088 26.706L3.58891 9.20532Z" fill="#454544" stroke="#454444" stroke-width="0.6075" stroke-miterlimit="10"/>
<path d="M0 46.7382V41.1248H0.717783V46.7382H0Z" fill="white"/>
<path d="M7.17783 41.1248C7.53672 41.1248 7.89561 41.2349 8.13487 41.3449C8.49377 41.455 8.73303 41.6751 8.97229 41.8953C9.21155 42.1154 9.33118 42.3356 9.57044 42.6658C9.69007 42.996 9.8097 43.2161 9.8097 43.5463V46.8483H9.09192V43.5463C9.09192 43.3262 9.09192 43.106 8.97229 42.8859C8.85266 42.6658 8.73303 42.4456 8.6134 42.3356C8.49377 42.2255 8.2545 42.0054 8.01524 42.0054C7.77598 41.8953 7.53672 41.8953 7.29746 41.8953H2.87113V46.7382H2.15335V41.1248H7.17783Z" fill="white"/>
<path d="M16.1501 41.1248C16.509 41.1248 16.8679 41.2349 17.1072 41.3449C17.4661 41.455 17.7053 41.6751 17.9446 41.8953C18.1838 42.1154 18.3035 42.3356 18.5427 42.6658C18.6624 42.996 18.782 43.2161 18.782 43.5463V46.8483H18.0642V43.5463C18.0642 43.3262 18.0642 43.106 17.9446 42.8859C17.8249 42.6658 17.7053 42.4456 17.5857 42.3356C17.4661 42.2255 17.2268 42.0054 16.9875 42.0054C16.7483 41.8953 16.509 41.8953 16.2697 41.8953H11.8434V46.7382H11.1256V41.1248H16.1501Z" fill="white"/>
<path d="M22.6102 46.7382C22.2513 46.7382 21.8924 46.6282 21.6531 46.5181C21.2942 46.408 21.055 46.1879 20.8157 45.9678C20.5764 45.7476 20.4568 45.5275 20.2175 45.1973C20.0979 44.8671 19.9783 44.647 19.9783 44.3168V43.4362C19.9783 43.106 20.0979 42.7758 20.2175 42.5557C20.3372 42.2255 20.5764 42.0053 20.8157 41.7852C21.055 41.5651 21.2942 41.455 21.6531 41.2349C22.012 41.1248 22.2513 41.0147 22.6102 41.0147H27.1561C27.515 41.0147 27.8739 41.1248 28.1132 41.2349C28.4721 41.3449 28.7113 41.5651 28.9506 41.7852C29.1898 42.0053 29.3095 42.2255 29.5487 42.5557C29.6684 42.8859 29.788 43.106 29.788 43.4362V44.4268C29.788 44.757 29.6684 45.0872 29.5487 45.3074C29.4291 45.6376 29.1898 45.8577 28.9506 46.0778C28.7113 46.298 28.4721 46.408 28.1132 46.6282C27.8739 46.7382 27.515 46.7382 27.1561 46.7382H22.6102ZM20.8157 43.4362V44.4268C20.8157 44.647 20.8157 44.8671 20.9353 45.0872C21.055 45.3074 21.1746 45.4174 21.2942 45.6376C21.4139 45.8577 21.6531 45.9678 21.8924 45.9678C22.1316 46.0778 22.3709 46.0778 22.6102 46.0778H27.1561C27.3954 46.0778 27.6346 46.0778 27.8739 45.9678C28.1132 45.8577 28.3524 45.7476 28.4721 45.6376C28.5917 45.5275 28.8309 45.3074 28.8309 45.0872C28.9506 44.8671 28.9506 44.647 28.9506 44.4268V43.4362C28.9506 43.2161 28.9506 42.9959 28.8309 42.7758C28.7113 42.5557 28.5917 42.4456 28.4721 42.2255C28.3524 42.0053 28.1132 41.8953 27.8739 41.8953C27.6346 41.7852 27.3954 41.7852 27.1561 41.7852H22.6102C22.3709 41.7852 22.1316 41.7852 21.8924 41.8953C21.6531 42.0053 21.5335 42.1154 21.2942 42.2255C21.055 42.3355 20.9353 42.5557 20.9353 42.7758C20.8157 42.9959 20.8157 43.2161 20.8157 43.4362Z" fill="white"/>
<path d="M35.291 46.7382H35.0517L30.3861 41.1248H31.2236L35.1714 45.9678L39.2388 41.1248H40.0762L35.4106 46.7382H35.291Z" fill="white"/>
<path d="M41.9903 46.7382C41.6314 46.7382 41.2725 46.6281 40.9136 46.408C40.5547 46.1879 40.3155 45.9677 40.1959 45.6375C40.0762 45.4174 40.0762 45.1973 40.0762 44.9771C40.0762 44.757 40.0762 44.5369 40.1959 44.3167C40.3155 44.0966 40.4351 43.8765 40.6744 43.7664C40.9136 43.6563 41.0333 43.4362 41.2725 43.4362C41.5118 43.3261 41.751 43.3261 41.9903 43.3261H47.254V42.9959C47.254 42.8859 47.254 42.6657 47.1344 42.5557C47.0148 42.4456 47.0148 42.3355 46.8952 42.2255C46.7755 42.1154 46.6559 42.0053 46.5363 42.0053C46.4166 41.8953 46.1774 41.8953 46.0577 41.8953H41.6314V41.2349H45.9381C46.1774 41.2349 46.4166 41.2349 46.6559 41.3449C46.8952 41.455 47.1344 41.5651 47.254 41.7852C47.3737 42.0053 47.6129 42.1154 47.7326 42.3355C47.8522 42.5557 47.8522 42.7758 47.8522 42.9959V46.7382H41.9903ZM41.2725 44.0966C41.1529 44.2067 40.9136 44.3167 40.9136 44.5369C40.794 44.6469 40.794 44.8671 40.794 45.0872C40.794 45.1973 40.794 45.4174 40.9136 45.5275C41.0333 45.6375 41.0333 45.7476 41.1529 45.8577C41.2725 45.9677 41.3922 46.0778 41.5118 46.0778C41.6314 46.1879 41.8707 46.1879 41.9903 46.1879H47.254V43.9865H41.9903C41.8707 43.9865 41.751 43.9865 41.6314 43.9865C41.5118 43.9865 41.3922 44.0966 41.2725 44.0966Z" fill="white"/>
<path d="M50.6037 46.0778C50.3644 45.8577 50.2448 45.6376 50.0055 45.3074C49.8859 44.9772 49.7663 44.757 49.7663 44.4268V43.4362C49.7663 43.106 49.8859 42.7758 50.0055 42.5557C50.1252 42.2255 50.3644 42.0053 50.6037 41.7852C50.843 41.5651 51.0822 41.455 51.4411 41.2349C51.8 41.1248 52.0393 41.0147 52.3982 41.0147H57.5423V41.6751H52.3982C52.1589 41.6751 51.9196 41.6751 51.6804 41.7852C51.4411 41.8953 51.2018 42.0053 51.0822 42.1154C50.9626 42.2255 50.7233 42.4456 50.7233 42.6657C50.6037 42.8859 50.6037 43.106 50.6037 43.3262V44.3168C50.6037 44.5369 50.6037 44.757 50.7233 44.9772C50.843 45.1973 50.9626 45.4174 51.0822 45.5275C51.2018 45.6376 51.4411 45.8577 51.6804 45.8577C51.9196 45.9678 52.1589 45.9678 52.3982 45.9678H57.5423V46.7382H52.3982C52.0393 46.7382 51.6804 46.6282 51.4411 46.5181C51.2018 46.408 50.843 46.298 50.6037 46.0778Z" fill="white"/>
<path d="M59.0975 46.7382V41.1248H59.8153V46.7382H59.0975Z" fill="white"/>
<path d="M63.8827 46.7382C63.5238 46.7382 63.1649 46.6282 62.9256 46.5181C62.5668 46.408 62.3275 46.1879 62.0882 45.9678C61.849 45.7476 61.7293 45.5275 61.4901 45.1973C61.3705 44.8671 61.2508 44.647 61.2508 44.3168V43.4362C61.2508 43.106 61.3705 42.7758 61.4901 42.5557C61.6097 42.2255 61.849 42.0053 62.0882 41.7852C62.3275 41.5651 62.5668 41.455 62.9256 41.2349C63.2845 41.1248 63.5238 41.0147 63.8827 41.0147H68.4286C68.7875 41.0147 69.1464 41.1248 69.3857 41.2349C69.7446 41.3449 69.9838 41.5651 70.2231 41.7852C70.4624 42.0053 70.582 42.2255 70.8213 42.5557C70.9409 42.8859 71.0605 43.106 71.0605 43.4362V44.4268C71.0605 44.757 70.9409 45.0872 70.8213 45.3074C70.7016 45.6376 70.4624 45.8577 70.2231 46.0778C69.9838 46.298 69.7446 46.408 69.3857 46.6282C69.1464 46.7382 68.7875 46.7382 68.4286 46.7382H63.8827ZM62.0882 43.4362V44.4268C62.0882 44.647 62.0882 44.8671 62.2079 45.0872C62.3275 45.3074 62.4471 45.4174 62.5668 45.6376C62.6864 45.8577 62.9257 45.9678 63.1649 45.9678C63.4042 46.0778 63.6434 46.0778 63.8827 46.0778H68.4286C68.6679 46.0778 68.9072 46.0778 69.1464 45.9678C69.3857 45.8577 69.625 45.7476 69.7446 45.6376C69.8642 45.5275 70.1035 45.3074 70.1035 45.0872C70.2231 44.8671 70.2231 44.647 70.2231 44.4268V43.4362C70.2231 43.2161 70.2231 42.9959 70.1035 42.7758C69.9838 42.5557 69.8642 42.4456 69.7446 42.2255C69.625 42.0053 69.3857 41.8953 69.1464 41.8953C68.9072 41.7852 68.6679 41.7852 68.4286 41.7852H63.8827C63.6434 41.7852 63.4042 41.7852 63.1649 41.8953C62.9257 42.0053 62.806 42.1154 62.5668 42.2255C62.3275 42.3355 62.2079 42.5557 62.2079 42.7758C62.0882 42.9959 62.0882 43.2161 62.0882 43.4362ZM67.7109 39.3637L66.036 40.9047L65.5575 40.4644L67.2323 38.9235L67.7109 39.3637Z" fill="white"/>
<path d="M77.2813 41.1248C77.6402 41.1248 77.9991 41.2349 78.2383 41.3449C78.5972 41.455 78.8365 41.6751 79.0757 41.8953C79.315 42.1154 79.4346 42.3356 79.6739 42.6658C79.7935 42.996 79.9132 43.2161 79.9132 43.5463V46.8483H79.1954V43.5463C79.1954 43.3262 79.1954 43.106 79.0757 42.8859C78.9561 42.6658 78.8365 42.4456 78.7169 42.3356C78.5972 42.2255 78.358 42.0054 78.1187 42.0054C77.8794 41.8953 77.6402 41.8953 77.4009 41.8953H72.9746V46.7382H72.2568V41.1248H77.2813Z" fill="white"/>
<path d="M81.1095 47.3986L81.3487 45.9677H82.0665L81.8272 47.3986H81.1095Z" fill="white"/>
<path d="M87.8088 46.0778C87.5695 45.8577 87.4499 45.6376 87.2106 45.3074C87.091 44.9772 86.9714 44.757 86.9714 44.4268V43.4362C86.9714 43.106 87.091 42.7758 87.2106 42.5557C87.3303 42.2255 87.5695 42.0053 87.8088 41.7852C88.048 41.5651 88.2873 41.455 88.6462 41.2349C89.0051 41.1248 89.2444 41.0147 89.6032 41.0147H94.7474V41.6751H89.6032C89.364 41.6751 89.1247 41.6751 88.8855 41.7852C88.6462 41.8953 88.4069 42.0053 88.2873 42.1154C88.1677 42.2255 87.9284 42.4456 87.9284 42.6657C87.8088 42.8859 87.8088 43.106 87.8088 43.3262V44.3168C87.8088 44.5369 87.8088 44.757 87.9284 44.9772C88.048 45.1973 88.1677 45.4174 88.2873 45.5275C88.4069 45.6376 88.6462 45.8577 88.8855 45.8577C89.1247 45.9678 89.364 45.9678 89.6032 45.9678H94.7474V46.7382H89.6032C89.2444 46.7382 88.8855 46.6282 88.6462 46.5181C88.2873 46.408 88.048 46.298 87.8088 46.0778Z" fill="white"/>
<path d="M98.2166 46.7382C97.8577 46.7382 97.4989 46.6281 97.14 46.408C96.7811 46.1879 96.5418 45.9677 96.4222 45.6375C96.3025 45.4174 96.3026 45.1973 96.3026 44.9771C96.3026 44.757 96.3025 44.5369 96.4222 44.3167C96.5418 44.0966 96.6614 43.8765 96.9007 43.7664C97.14 43.6563 97.2596 43.4362 97.4989 43.4362C97.7381 43.3261 97.9774 43.3261 98.2166 43.3261H103.48V42.9959C103.48 42.8859 103.48 42.6657 103.361 42.5557C103.241 42.4456 103.241 42.3355 103.121 42.2255C103.002 42.1154 102.882 42.0053 102.763 42.0053C102.643 41.8953 102.404 41.8953 102.284 41.8953H97.8577V41.2349H102.284C102.523 41.2349 102.763 41.2349 103.002 41.3449C103.241 41.455 103.48 41.5651 103.6 41.7852C103.72 42.0053 103.959 42.1154 104.079 42.3355C104.198 42.5557 104.198 42.7758 104.198 42.9959V46.7382H98.2166ZM97.4989 44.0966C97.3792 44.2067 97.14 44.3167 97.14 44.5369C97.0203 44.6469 97.0203 44.8671 97.0203 45.0872C97.0203 45.1973 97.0203 45.4174 97.14 45.5275C97.2596 45.6375 97.2596 45.7476 97.3792 45.8577C97.4989 45.9677 97.6185 46.0778 97.7381 46.0778C97.8577 46.1879 98.097 46.1879 98.2166 46.1879H103.48V43.9865H98.2166C98.097 43.9865 97.9774 43.9865 97.8577 43.9865C97.7381 43.9865 97.4989 44.0966 97.4989 44.0966Z" fill="white"/>
<path d="M106.71 41.1248V44.4268C106.71 44.647 106.71 44.8671 106.83 45.0872C106.95 45.3074 107.069 45.4174 107.189 45.6376C107.309 45.7476 107.548 45.9678 107.787 45.9678C108.026 46.0778 108.266 46.0778 108.505 46.0778H113.649V46.7382H108.505C108.146 46.7382 107.787 46.6282 107.548 46.5181C107.189 46.408 106.95 46.1879 106.71 45.9678C106.471 45.7476 106.352 45.5275 106.232 45.1973C106.112 44.8671 105.993 44.647 105.993 44.3168V41.0147H106.71V41.1248Z" fill="white"/>
<path d="M114.606 46.7382V41.1248H115.324V46.7382H114.606Z" fill="white"/>
<path d="M116.999 41.1248H122.98C123.339 41.1248 123.698 41.2349 123.937 41.3449C124.296 41.455 124.535 41.6751 124.775 41.8953C125.014 42.1154 125.133 42.3356 125.373 42.6658C125.492 42.996 125.612 43.2161 125.612 43.5463V44.5369C125.612 44.8671 125.492 45.1973 125.373 45.4174C125.253 45.7476 125.014 45.9678 124.775 46.1879C124.535 46.408 124.296 46.5181 123.937 46.7382C123.578 46.8483 123.339 46.9584 122.98 46.9584H116.999V41.1248ZM124.894 43.4362C124.894 43.2161 124.894 42.996 124.775 42.7758C124.655 42.5557 124.535 42.4456 124.416 42.2255C124.296 42.1154 124.057 42.0054 123.818 41.8953C123.578 41.7852 123.339 41.7852 123.1 41.7852H117.716V46.1879H123.1C123.339 46.1879 123.578 46.1879 123.818 46.0778C124.057 45.9678 124.176 45.8577 124.416 45.7476C124.535 45.6376 124.655 45.4174 124.775 45.1973C124.894 44.9772 124.894 44.757 124.894 44.5369V43.4362Z" fill="white"/>
<path d="M128.244 46.7382C127.885 46.7382 127.526 46.6281 127.167 46.408C126.808 46.1879 126.569 45.9677 126.449 45.6375C126.33 45.4174 126.33 45.1973 126.33 44.9771C126.33 44.757 126.33 44.5369 126.449 44.3167C126.569 44.0966 126.689 43.8765 126.928 43.7664C127.048 43.6563 127.287 43.4362 127.526 43.4362C127.765 43.3261 128.005 43.3261 128.244 43.3261H133.508V42.9959C133.508 42.8859 133.508 42.6657 133.388 42.5557C133.268 42.4456 133.268 42.3355 133.149 42.2255C133.029 42.1154 132.909 42.0053 132.79 42.0053C132.67 41.8953 132.431 41.8953 132.311 41.8953H127.885V41.2349H132.311C132.551 41.2349 132.79 41.2349 133.029 41.3449C133.268 41.455 133.508 41.5651 133.627 41.7852C133.747 42.0053 133.986 42.1154 134.106 42.3355C134.225 42.5557 134.225 42.7758 134.225 42.9959V46.7382H128.244ZM127.526 44.0966C127.406 44.2067 127.167 44.3167 127.167 44.5369C127.048 44.6469 127.048 44.8671 127.048 45.0872C127.048 45.1973 127.048 45.4174 127.167 45.5275C127.287 45.6375 127.287 45.7476 127.406 45.8577C127.526 45.9677 127.646 46.0778 127.765 46.0778C127.885 46.1879 128.124 46.1879 128.244 46.1879H133.508V43.9865H128.244C128.124 43.9865 128.005 43.9865 127.885 43.9865C127.765 43.9865 127.526 44.0966 127.526 44.0966Z" fill="white"/>
<path d="M136.139 41.1248H142.121C142.48 41.1248 142.839 41.2349 143.078 41.3449C143.437 41.455 143.676 41.6751 143.915 41.8953C144.155 42.1154 144.274 42.3356 144.514 42.6658C144.633 42.996 144.753 43.2161 144.753 43.5463V44.5369C144.753 44.8671 144.633 45.1973 144.514 45.4174C144.394 45.7476 144.155 45.9678 143.915 46.1879C143.676 46.408 143.437 46.5181 143.078 46.7382C142.719 46.8483 142.48 46.9584 142.121 46.9584H136.139V41.1248ZM143.915 43.4362C143.915 43.2161 143.915 42.996 143.796 42.7758C143.676 42.5557 143.557 42.4456 143.437 42.2255C143.317 42.1154 143.078 42.0054 142.839 41.8953C142.6 41.7852 142.36 41.7852 142.121 41.7852H136.738V46.1879H142.121C142.36 46.1879 142.6 46.1879 142.839 46.0778C143.078 45.9678 143.198 45.8577 143.437 45.7476C143.557 45.6376 143.676 45.4174 143.796 45.1973C143.915 44.9772 143.915 44.757 143.915 44.5369V43.4362Z" fill="white"/>
<path d="M156.237 41.1248V44.4268C156.237 44.757 156.118 45.0872 155.998 45.3074C155.879 45.6376 155.639 45.8577 155.4 46.0778C155.161 46.298 154.921 46.408 154.563 46.6282C154.204 46.7382 153.964 46.8483 153.606 46.8483H149.06V46.1879H153.606C153.845 46.1879 154.084 46.1879 154.323 46.0778C154.563 45.9678 154.682 45.8577 154.921 45.7476C155.161 45.6376 155.28 45.4174 155.28 45.1973C155.4 44.9772 155.4 44.757 155.4 44.5369V44.4268H151.213C150.854 44.4268 150.495 44.3168 150.256 44.2067C149.897 44.0966 149.658 43.8765 149.418 43.6564C149.179 43.4362 149.06 43.2161 148.82 42.8859C148.701 42.5557 148.581 42.3356 148.581 42.0054V41.1248H149.299V42.0054C149.299 42.2255 149.299 42.4456 149.418 42.6658C149.538 42.8859 149.658 43.106 149.777 43.2161C149.897 43.3262 150.136 43.5463 150.376 43.5463C150.615 43.5463 150.854 43.6564 151.093 43.6564H155.52V41.1248H156.237Z" fill="white"/>
<path d="M166.885 46.7382H161.023V46.0778H166.885C167.004 46.0778 167.124 46.0778 167.243 45.9678C167.363 45.9678 167.483 45.8577 167.602 45.7476C167.722 45.6376 167.722 45.5275 167.842 45.4174C167.842 45.3074 167.961 45.1973 167.961 45.0872C167.961 44.9772 167.961 44.8671 167.842 44.757C167.842 44.647 167.722 44.5369 167.602 44.4268C167.483 44.3167 167.363 44.3167 167.243 44.2067C167.124 44.2067 167.004 44.0966 166.885 44.0966H162.339C162.099 44.0966 161.86 44.0966 161.74 43.9865C161.501 43.8765 161.381 43.7664 161.142 43.6563C161.023 43.5463 160.903 43.3261 160.783 43.106C160.664 42.8859 160.664 42.6657 160.664 42.4456C160.664 42.2255 160.664 42.0053 160.783 41.7852C160.903 41.5651 161.023 41.455 161.142 41.3449C161.262 41.2349 161.501 41.1248 161.74 41.0147C161.98 40.9047 162.219 40.9047 162.458 40.9047H168.32V41.5651H162.458C162.339 41.5651 162.219 41.5651 162.099 41.6751C161.98 41.6751 161.86 41.7852 161.74 41.8953C161.621 42.0053 161.621 42.1154 161.501 42.2255C161.501 42.3355 161.381 42.4456 161.381 42.5557C161.381 42.7758 161.501 43.106 161.74 43.2161C161.98 43.4362 162.219 43.5463 162.458 43.5463H167.004C167.243 43.5463 167.483 43.5463 167.722 43.6563C167.961 43.7664 168.081 43.8765 168.32 43.9865C168.44 44.0966 168.559 44.3167 168.679 44.5369C168.799 44.757 168.799 44.9771 168.799 45.1973C168.799 45.4174 168.799 45.6376 168.679 45.8577C168.559 46.0778 168.44 46.1879 168.32 46.408C168.2 46.5181 167.961 46.6282 167.722 46.7382C167.363 46.7382 167.124 46.7382 166.885 46.7382Z" fill="white"/>
<path d="M170.473 42.7758C170.473 42.5557 170.473 42.3356 170.593 42.1154C170.713 41.8953 170.832 41.6751 171.072 41.5651C171.311 41.455 171.43 41.3449 171.67 41.2349C171.909 41.1248 172.148 41.1248 172.388 41.1248H176.575C176.814 41.1248 177.053 41.1248 177.292 41.2349C177.532 41.3449 177.771 41.455 177.89 41.5651C178.01 41.6751 178.249 41.8953 178.369 42.1154C178.489 42.3356 178.489 42.5557 178.489 42.7758C178.489 42.996 178.489 43.2161 178.369 43.4362C178.249 43.6564 178.13 43.8765 177.89 43.9866C177.651 44.0966 177.532 44.3168 177.292 44.3168C177.053 44.4268 176.814 44.4268 176.575 44.4268H171.191V45.1973C171.191 45.3074 171.311 45.4174 171.311 45.5275C171.43 45.6376 171.43 45.7476 171.55 45.7476C171.67 45.8577 171.789 45.8577 171.909 45.8577C172.029 45.8577 172.148 45.8577 172.388 45.8577H178.01V46.7382H172.388C172.148 46.7382 171.909 46.7382 171.67 46.6282C171.43 46.5181 171.191 46.5181 171.072 46.298C170.832 46.1879 170.713 46.0778 170.593 45.8577C170.473 45.6376 170.354 45.5275 170.354 45.3074V42.7758H170.473ZM172.388 41.6752C172.268 41.6752 172.148 41.6752 171.909 41.7852C171.789 41.7852 171.67 41.8953 171.43 42.0054C171.311 42.1154 171.191 42.2255 171.072 42.3356C170.952 42.4456 170.952 42.6658 170.952 42.7758V43.8765H176.455C176.575 43.8765 176.814 43.8765 176.933 43.7664C177.053 43.6564 177.173 43.6564 177.292 43.5463C177.412 43.4362 177.532 43.3262 177.532 43.2161C177.532 43.106 177.651 42.8859 177.651 42.7758C177.651 42.6658 177.651 42.4456 177.532 42.3356C177.412 42.2255 177.412 42.1154 177.292 42.0054C177.173 41.8953 177.053 41.7852 176.933 41.7852C176.814 41.6752 176.575 41.6752 176.455 41.6752H172.388Z" fill="white"/>
<path d="M180.283 46.7382V43.4362C180.283 43.106 180.403 42.7758 180.522 42.5557C180.642 42.2255 180.881 42.0053 181.121 41.7852C181.36 41.5651 181.599 41.455 181.958 41.2349C182.317 41.1248 182.556 41.0147 182.915 41.0147H187.461V41.6751H182.915C182.676 41.6751 182.436 41.6751 182.197 41.7852C181.958 41.8953 181.838 42.0053 181.599 42.1154C181.36 42.2255 181.24 42.4456 181.24 42.6657C181.121 42.8859 181.121 43.106 181.121 43.3262V46.6282H180.283V46.7382Z" fill="white"/>
<path d="M192.246 46.7382H192.007L187.341 41.1248H188.179L192.127 45.9678L196.194 41.1248H197.031L192.366 46.7382H192.246Z" fill="white"/>
<path d="M198.467 46.7382V41.1248H199.185V46.7382H198.467Z" fill="white"/>
<path d="M201.577 46.0778C201.338 45.8577 201.218 45.6376 200.979 45.3074C200.86 44.9772 200.74 44.757 200.74 44.4268V43.4362C200.74 43.106 200.86 42.7758 200.979 42.5557C201.099 42.2255 201.338 42.0053 201.577 41.7852C201.817 41.5651 202.056 41.455 202.415 41.2349C202.774 41.1248 203.013 41.0147 203.372 41.0147H208.516V41.6751H203.372C203.133 41.6751 202.893 41.6751 202.654 41.7852C202.415 41.8953 202.176 42.0053 202.056 42.1154C201.936 42.2255 201.697 42.4456 201.697 42.6657C201.577 42.8859 201.577 43.106 201.577 43.3262V44.3168C201.577 44.5369 201.577 44.757 201.697 44.9772C201.817 45.1973 201.936 45.4174 202.056 45.5275C202.176 45.6376 202.415 45.8577 202.654 45.8577C202.893 45.9678 203.133 45.9678 203.372 45.9678H208.516V46.7382H203.372C203.013 46.7382 202.654 46.6282 202.415 46.5181C202.056 46.408 201.817 46.298 201.577 46.0778Z" fill="white"/>
<path d="M209.951 46.7382V41.1248H210.669V46.7382H209.951Z" fill="white"/>
<path d="M214.856 46.7382C214.497 46.7382 214.139 46.6282 213.899 46.5181C213.54 46.408 213.301 46.1879 213.062 45.9678C212.823 45.7476 212.703 45.5275 212.464 45.1973C212.344 44.8671 212.224 44.647 212.224 44.3168V43.4362C212.224 43.106 212.344 42.7758 212.464 42.5557C212.583 42.2255 212.823 42.0053 213.062 41.7852C213.301 41.5651 213.54 41.455 213.899 41.2349C214.258 41.1248 214.497 41.0147 214.856 41.0147H219.402C219.761 41.0147 220.12 41.1248 220.359 41.2349C220.718 41.3449 220.958 41.5651 221.197 41.7852C221.436 42.0053 221.556 42.2255 221.795 42.5557C221.915 42.8859 222.034 43.106 222.034 43.4362V44.4268C222.034 44.757 221.915 45.0872 221.795 45.3074C221.675 45.6376 221.436 45.8577 221.197 46.0778C220.958 46.298 220.718 46.408 220.359 46.6282C220 46.7382 219.761 46.8483 219.402 46.8483H214.856V46.7382ZM213.062 43.4362V44.4268C213.062 44.647 213.062 44.8671 213.182 45.0872C213.301 45.3074 213.421 45.4174 213.54 45.6376C213.66 45.8577 213.899 45.9678 214.139 45.9678C214.378 46.0778 214.617 46.0778 214.856 46.0778H219.402C219.642 46.0778 219.881 46.0778 220.12 45.9678C220.359 45.8577 220.599 45.7476 220.718 45.6376C220.838 45.5275 221.077 45.3074 221.077 45.0872C221.077 44.8671 221.197 44.647 221.197 44.4268V43.4362C221.197 43.2161 221.197 42.996 221.077 42.7758C220.957 42.5557 220.838 42.4456 220.718 42.2255C220.599 42.0053 220.359 41.8953 220.12 41.8953C219.881 41.7852 219.642 41.7852 219.402 41.7852H214.856C214.617 41.7852 214.378 41.7852 214.139 41.8953C213.899 42.0053 213.78 42.1154 213.54 42.2255C213.301 42.3355 213.182 42.5557 213.182 42.7758C213.062 42.996 213.062 43.2161 213.062 43.4362Z" fill="white"/>
<path d="M55.03 26.4858V7.55429H57.303V26.3758L55.03 26.4858Z" fill="#C4C4C4"/>
<path d="M77.6402 26.4858H76.9224L61.4901 7.55429H64.2416L77.5206 23.7342L90.9192 7.55429H93.7903L78.1187 26.3758L77.6402 26.4858Z" fill="#C4C4C4"/>
<path d="M99.8915 12.3973C99.2933 12.9476 98.9344 13.4979 98.5755 14.1583C98.2166 14.8187 98.097 15.5892 98.097 16.3597V17.0201H121.545V19.1113H98.097V19.7718C98.097 20.5422 98.2166 21.2026 98.5755 21.9731C98.9344 22.6335 99.2933 23.2939 99.8915 23.7342C100.49 24.2845 101.088 24.6147 101.806 24.9449C102.523 25.2751 103.361 25.3852 104.198 25.3852H121.545V27.4765H104.198C103.002 27.4765 101.925 27.2563 100.968 26.8161C100.011 26.3758 99.054 25.8254 98.3363 25.165C97.6185 24.5046 97.0203 23.6241 96.5418 22.7436C96.0633 21.863 95.824 20.7624 95.824 19.7718V16.3597C95.824 15.259 96.0633 14.2684 96.5418 13.3879C97.0203 12.5073 97.6185 11.6268 98.3363 10.9664C99.054 10.306 100.011 9.75564 100.968 9.31537C101.925 8.8751 103.121 8.65497 104.198 8.65497H121.545V10.7462H104.198C103.361 10.7462 102.523 10.8563 101.806 11.1865C101.088 11.5167 100.49 11.957 99.8915 12.3973Z" fill="#C4C4C4"/>
<path d="M129.44 8.76505V19.8818C129.44 20.6523 129.56 21.4228 129.919 22.0832C130.278 22.7436 130.637 23.404 131.235 23.8442C131.833 24.3946 132.431 24.8348 133.149 25.055C133.867 25.3852 134.704 25.4953 135.541 25.4953H152.768V27.5865H135.541C134.345 27.5865 133.268 27.3664 132.311 26.9261C131.354 26.4859 130.397 25.9355 129.679 25.2751C128.962 24.6147 128.364 23.7342 127.885 22.8536C127.406 21.9731 127.167 20.8724 127.167 19.7718V8.76505H129.44Z" fill="#C4C4C4"/>
<path d="M157.793 26.4858V7.55429H160.066V26.3758L157.793 26.4858Z" fill="#26A0C4" stroke="#26A0C4" stroke-width="0.426" stroke-miterlimit="10"/>
<path d="M167.363 24.1744C166.645 23.514 165.928 22.6335 165.569 21.7529C165.09 20.8724 164.851 19.7717 164.851 18.7811V15.259C164.851 14.1583 165.09 13.1677 165.569 12.2872C166.047 11.2966 166.645 10.5261 167.363 9.8657C168.081 9.2053 169.038 8.65496 169.995 8.21469C171.072 7.77443 172.148 7.55429 173.225 7.55429H190.452V9.64557H173.225C172.388 9.64557 171.55 9.75563 170.832 10.0858C170.115 10.416 169.397 10.7462 168.918 11.2966C168.32 11.8469 167.961 12.3972 167.602 13.0576C167.243 13.718 167.124 14.4885 167.124 15.259V18.6711C167.124 19.4415 167.243 20.212 167.602 20.8724C167.961 21.5328 168.32 22.1932 168.918 22.6335C169.516 23.1838 170.115 23.514 170.832 23.8442C171.55 24.1744 172.388 24.2845 173.225 24.2845H190.571V26.3758H173.345C172.148 26.3758 171.072 26.1556 170.115 25.7154C169.038 25.3852 168.2 24.8348 167.363 24.1744Z" fill="#26A0C4" stroke="#26A0C4" stroke-width="0.426" stroke-miterlimit="10"/>
<path d="M214.976 26.4859H195.476V24.3946H214.976C215.455 24.3946 215.933 24.2845 216.292 24.1744C216.651 24.0644 217.129 23.7342 217.369 23.514C217.727 23.1838 217.967 22.8536 218.086 22.5234C218.206 22.1932 218.326 21.753 218.326 21.3127C218.326 20.8724 218.206 20.4322 218.086 20.102C217.967 19.6617 217.727 19.3315 217.369 19.1114C217.01 18.7812 216.651 18.561 216.292 18.451C215.813 18.3409 215.455 18.2308 214.976 18.2308H200.022C199.304 18.2308 198.467 18.1208 197.869 17.7906C197.151 17.5704 196.553 17.1302 196.074 16.6899C195.596 16.2496 195.117 15.6993 194.878 15.0389C194.639 14.3785 194.4 13.7181 194.4 12.9476C194.4 12.1771 194.519 11.5167 194.878 10.9664C195.117 10.306 195.596 9.75565 196.074 9.31538C196.553 8.87512 197.151 8.43485 197.869 8.21471C198.587 7.88451 199.304 7.77444 200.142 7.77444H219.642V9.86572H200.142C199.663 9.86572 199.185 9.97579 198.826 10.0859C198.467 10.306 198.108 10.5261 197.749 10.7463C197.39 10.9664 197.151 11.2966 197.031 11.7369C196.912 12.0671 196.792 12.5073 196.792 12.9476C196.912 13.8281 197.271 14.5986 197.869 15.259C198.467 15.9194 199.304 16.1395 200.261 16.1395H214.976C215.813 16.1395 216.531 16.2496 217.249 16.5798C217.967 16.7999 218.565 17.2402 219.043 17.6805C219.522 18.1208 220 18.6711 220.24 19.3315C220.479 19.9919 220.718 20.6523 220.718 21.4228C220.718 22.1932 220.599 22.8536 220.24 23.514C220 24.1744 219.522 24.7248 219.043 25.1651C218.565 25.6053 217.967 26.0456 217.249 26.2657C216.531 26.2657 215.813 26.4859 214.976 26.4859Z" fill="#26A0C4" stroke="#26A0C4" stroke-width="0.426" stroke-miterlimit="10"/>
</svg>
