<svg width="15" height="8" viewBox="0 0 15 8" fill="none" xmlns="http://www.w3.org/2000/svg">
<path fill-rule="evenodd" clip-rule="evenodd" d="M0.169473 0.167835C0.223058 0.114634 0.286715 0.0724241 0.356797 0.0436241C0.426879 0.0148241 0.50201 0 0.577887 0C0.653763 0 0.728894 0.0148241 0.798977 0.0436241C0.869059 0.0724241 0.932716 0.114634 0.9863 0.167835L7.50015 6.6199L14.014 0.167835C14.0676 0.11472 14.1313 0.0725863 14.2014 0.0438404C14.2715 0.0150945 14.3466 0.000299105 14.4224 0.000299105C14.4983 0.000299105 14.5734 0.0150945 14.6434 0.0438404C14.7135 0.0725863 14.7772 0.11472 14.8308 0.167835C14.8845 0.220951 14.927 0.284008 14.956 0.353407C14.9851 0.422806 15 0.497187 15 0.572304C15 0.64742 14.9851 0.721802 14.956 0.791201C14.927 0.860599 14.8845 0.923656 14.8308 0.976772L7.90857 7.83216C7.85498 7.88537 7.79132 7.92758 7.72124 7.95638C7.65116 7.98518 7.57603 8 7.50015 8C7.42428 8 7.34914 7.98518 7.27906 7.95638C7.20898 7.92758 7.14532 7.88537 7.09174 7.83216L0.169473 0.976772C0.115753 0.923705 0.0731311 0.860663 0.0440502 0.791258C0.0149692 0.721852 0 0.647447 0 0.572304C0 0.49716 0.0149692 0.422755 0.0440502 0.35335C0.0731311 0.283944 0.115753 0.220903 0.169473 0.167835Z" fill="#26A0C4"/>
</svg>
